<?xml version="1.0" encoding="utf-8"?>
<svg version="1.1" xmlns:xlink="http://www.w3.org/1999/xlink" width="33px" height="29px" xmlns="http://www.w3.org/2000/svg">
  <defs>
    <filter x="41px" y="531px" width="33px" height="29px" filterUnits="userSpaceOnUse" id="filter2656">
      <feOffset dx="0" dy="0" in="SourceAlpha" result="shadowOffsetInner" />
      <feGaussianBlur stdDeviation="2.5" in="shadowOffsetInner" result="shadowGaussian" />
      <feComposite in2="shadowGaussian" operator="atop" in="SourceAlpha" result="shadowComposite" />
      <feColorMatrix type="matrix" values="0 0 0 0 1  0 0 0 0 0.815686274509804  0 0 0 0 0.56078431372549  0 0 0 1 0  " in="shadowComposite" />
    </filter>
    <g id="widget2657">
      <path d="M 9.15278916676052 18.9999812930752  C 9.06373484923138 18.9999812930752  8.97468053170224 18.9812810195821  8.88562709400867 18.9532289465048  C 8.88562709400867 18.9532289465048  0.49474496206149 15.9798006563833  0.49474496206149 15.9798006563833  C 0.197897896841037 15.876945826496  0 15.6057852094957  0 15.306572519418  C 0 15.306572519418  0 6.42371480144404  0 6.42371480144404  C 0 6.18995473142982  0.118738870079961 5.97489576632753  0.316636107044315 5.83464122087299  C 0.316636107044315 5.83464122087299  8.90540051875106 0.130905655836343  8.90540051875106 0.130905655836343  C 9.03403423968129 0.0467519308609577  9.18245810222986 0  9.34077483599865 0  C 9.44961841531055 0  9.54856736373107 0.018700689202495  9.63762168126021 0.0561024833169245  C 9.63762168126021 0.0561024833169245  18.968511124641 3.89910471502024  18.968511124641 3.89910471502024  C 19.1664090214821 3.98325843999562  19.3148320041951 4.14221492178099  19.3840961801059 4.32922347664369  C 19.3840961801059 4.32922347664369  22.9660634220677 14.6988186194071  22.9660634220677 14.6988186194071  C 23.0254329670871 14.8858263428509  23.0056437053044 15.0915343397878  22.9165885079396 15.2598417897385  C 22.8176386796835 15.4281492396893  22.6494264351878 15.5590544798162  22.4515267786756 15.6058068263866  C 22.4515267786756 15.6058068263866  9.34079243271018 18.9438971009736  9.34079243271018 18.9438971009736  C 9.28142288769075 18.990649447544  9.21215871177994 18.9999995842906  9.15278916676052 18.9999995842906  Z M 1.51392999676221 6.80706791379499  L 1.51392999676221 14.8203537687343  L 8.63825164353286 17.3449588666448  L 10.4984932815755 10.0983983590417  L 8.84604681077201 1.94486128432338  L 1.51394407413143 6.80705876818729  Z M 11.9431437053044 10.5191628268242  L 10.2115375478631 17.2794995952303  L 21.2938180112901 14.4556934471064  L 18.3055708549186 5.7785279291106  L 11.943150743989 10.5191628268242  Z M 11.7848260917 8.81739221091784  L 17.2369243235824 4.74998212449404  L 10.3896628997973 1.94486502570835  L 11.7848436884115 8.81739304233673  Z " fill-rule="nonzero" fill="#f7f3f3" stroke="none" transform="matrix(1 0 0 1 46 536 )" />
    </g>
  </defs>
  <g transform="matrix(1 0 0 1 -41 -531 )">
    <use xlink:href="#widget2657" filter="url(#filter2656)" />
    <use xlink:href="#widget2657" />
  </g>
</svg>