<?xml version="1.0" encoding="utf-8"?>
<svg version="1.1" xmlns:xlink="http://www.w3.org/1999/xlink" width="33px" height="33px" xmlns="http://www.w3.org/2000/svg">
  <defs>
    <filter x="41px" y="609px" width="33px" height="33px" filterUnits="userSpaceOnUse" id="filter5201">
      <feOffset dx="0" dy="0" in="SourceAlpha" result="shadowOffsetInner" />
      <feGaussianBlur stdDeviation="2.5" in="shadowOffsetInner" result="shadowGaussian" />
      <feComposite in2="shadowGaussian" operator="atop" in="SourceAlpha" result="shadowComposite" />
      <feColorMatrix type="matrix" values="0 0 0 0 0.192156862745098  0 0 0 0 0.756862745098039  0 0 0 0 0.603921568627451  0 0 0 1 0  " in="shadowComposite" />
    </filter>
    <g id="widget5202">
      <path d="M 22.751799580054 9.85714382237324  C 23.0827345253302 9.36428633259272  23.0827345253302 8.70714405738586  22.751799580054 8.37857213640704  C 22.751799580054 8.37857213640704  14.4784180580364 0.328571431369198  14.4784180580364 0.328571431369198  C 14.3129497963871 0.164285666723637  13.9820148511109 0  13.8165481674839 0  C 13.4856132222076 0  13.1546782769314 0.164285666723637  12.9892100152821 0.328571431369198  C 12.9892100152821 0.328571431369198  0.248201603462757 13.1428583319091  0.248201603462757 13.1428583319091  C -0.0827337363190613 13.6357158216896  -0.0827337363190613 14.2928580968965  0.248201603462757 14.6214292344999  C 0.248201603462757 14.6214292344999  8.52158273097478 22.6714291561623  8.52158273097478 22.6714291561623  C 8.6870502036129 22.8357155083394  9.01798593790029 23.0000002937658  9.18345341053842 23.0000002937658  C 9.51438835581466 23.0000002937658  9.67985661746393 22.8357139415887  10.0107915627402 22.6714291561623  C 10.0107915627402 22.6714291561623  22.751799580054 9.85714382237324  22.751799580054 9.85714382237324  Z M 18.7805755026721 10.8428580185589  C 18.7805755026721 10.8428580185589  16.4640293077161 8.54285770520876  16.4640293077161 8.54285770520876  C 15.8021594171636 8.21428656760533  15.1402879485889 8.21428656760533  14.8093530033126 8.54285770520876  C 14.4784180580364 8.87142884281219  14.4784180580364 9.69285747019614  14.8093530033126 10.021429391175  C 14.8093530033126 10.021429391175  17.1258991982686 12.3214297045251  17.1258991982686 12.3214297045251  L 15.4712228938651 14.1285733114701  C 15.4712228938651 14.1285733114701  11.5000003945056 10.1857149599767  11.5000003945056 10.1857149599767  C 11.0035971875801 9.85714382237324  10.3417272970276 9.85714382237324  10.0107915627402 10.3500005287784  C 9.51438835581466 10.8428580185589  9.67985661746393 11.5000002937658  10.0107915627402 11.8285722147446  C 10.0107915627402 11.8285722147446  13.9820148511109 15.6071442140609  13.9820148511109 15.6071442140609  L 12.3273385467073 17.2500014688288  C 12.3273385467073 17.2500014688288  9.84532409010205 15.1142867242804  9.84532409010205 15.1142867242804  C 9.34892088317654 14.785715586677  8.68705099262405 14.785715586677  8.35611525833666 15.1142867242804  C 8.02518031306041 15.6071442140609  8.02518031306041 16.2642864892678  8.35611525833666 16.5928576268712  C 8.35611525833666 16.5928576268712  10.6726622423038 18.892857156846  10.6726622423038 18.892857156846  L 9.18345341053842 20.3714280594368  L 2.56474819292434 13.7999990403652  L 13.8165465894616 2.46428382579148  L 20.4352518070757 9.03571284486313  L 18.7805755026721 10.8428556684328  Z " fill-rule="nonzero" fill="#ffffff" stroke="none" transform="matrix(1 0 0 1 46 614 )" />
    </g>
  </defs>
  <g transform="matrix(1 0 0 1 -41 -609 )">
    <use xlink:href="#widget5202" filter="url(#filter5201)" />
    <use xlink:href="#widget5202" />
  </g>
</svg>