<?xml version="1.0" encoding="utf-8"?>
<svg version="1.1" xmlns:xlink="http://www.w3.org/1999/xlink" width="72px" height="8px" preserveAspectRatio="xMinYMid meet" viewBox="650 1291  72 6" xmlns="http://www.w3.org/2000/svg">
  <g transform="matrix(-0.694658370459017 -0.719339800338641 0.719339800338637 -0.694658370458988 231.709940496689 2686.35503440624 )">
    <path d="M 415 0  C 414.564143297921 0.20200668402141  395.222740629133 10.5247584786437  394.429307088668 10.8999512920278  C 376.542271063379 19.3491918328921  363.862894500203 28.8083781933933  355.885496453387 35.5577316122128  C 335.73924079854 52.6072359043719  331.55096299125 64.2547696081251  309.72495919226 83.4424261741761  C 299.73438262421 92.2259501088937  291.016289697881 97.8978177456388  273.987455518986 108.8814274866  C 228.686384088689 138.103104697865  206.035826580705 152.714687907494  181.666293825391 158.262688479536  C 166.147833876211 161.794914634397  173.690072591671 157.421461165287  104.235086716579 162.751511767751  C 84.7761334952411 164.245450184621  75.565260981541 165.249789574172  59.5624770650103 165.744995031576  C 34.3810740307335 166.522974806421  13.7476613399726 165.376459853918  0 164.248253399663  " stroke-width="4" stroke="#ffd08f" fill="none" transform="matrix(1 0 0 1 353 1234 )" />
  </g>
</svg>