<?xml version="1.0" encoding="utf-8"?>
<svg version="1.1" xmlns:xlink="http://www.w3.org/1999/xlink" width="170px" height="30px" preserveAspectRatio="xMinYMid meet" viewBox="886 1027  170 28" xmlns="http://www.w3.org/2000/svg">
  <g transform="matrix(0.766044443118981 0.642787609686534 -0.642787609686535 0.766044443118973 896.312747415152 -380.599034292476 )">
    <path d="M 0 825  C 7.36326809875166 821.226799799234  19.09875653098 814.850805482353  32.6802143189839 805.711492302109  C 87.07483017801 769.104032165596  121.083171968765 721.7922294272  135.175862743513 701.843902476004  C 145.799752048415 686.805565426469  160.134015409858 664.66869896935  184.194227640563 638.040353558757  C 191.832721526531 629.585876475544  202.045989609558 618.916366353988  218.360400332992 611.330963998172  C 233.179200214615 604.44160320064  244.85459985728 603.900353362918  255.495272282856 602.428789649091  C 268.597845897021 600.615415935035  288.492626711154 592.317207261076  328.282101380245 575.719400088507  C 343.644048265644 569.312742765252  381.352937726224 553.222655910687  429.291965349678 528.237430694341  C 438.541725779511 523.416693594519  446.201089867353 519.293387877634  451.574471176572 516.366938345799  C 469.582672700449 515.21750992698  483.581795403461 517.226154004574  493.166696491724 519.33521291324  C 504.92740308455 521.922762390208  513.643755938148 525.451831204533  527.331477837361 523.7863435198  C 534.171164746593 522.953621393444  542.513332272421 521.811185529904  548.126894821542 514.88416917072  C 554.76970615976 506.686375327833  552.749035822462 496.372616885043  552.584335146005 495.594228216157  C 550.389137745534 485.269264312114  541.563738087144 480.053773579244  537.729273288626 477.788489693345  C 524.752268722405 470.119393834296  510.767146446483 471.493365798374  506.534582547215 471.853243519074  C 491.161504887483 473.157463658454  470.537832272893 469.755346639641  429.291965349678 462.949679345342  C 385.246099967512 455.6822862426  354.1842828447 430.952267577886  346.107340801025 424.371230692888  C 340.192116875646 419.550493593066  320.793090315201 390.426587724626  282.233827087421 332.374089783304  C 278.578063392452 326.871252803734  265.239482578759 306.451514703555  256.981056737952 277.472671783117  C 251.976382328512 259.908241565423  252.184388673858 250.946087596226  254.010879174551 243.345310305202  C 257.756123860056 227.757427902057  268.293488786355 217.954212858595  276.292080613828 210.702151259039  C 297.133585960481 191.804206004232  308.779767320522 196.952746277718  322.340354906652 179.541739671945  C 324.609554564602 176.627798561974  333.448867690908 165.000004343202  335.709632308934 148.38130636884  C 337.748390154523 133.394609991513  332.645886673797 127.522144802672  335.709632308934 114.253944890926  C 338.03605110369 104.178671671931  343.198643373978 97.9574690756119  352.049174233792 87.5446204783714  C 374.081759393242 61.6275829812181  383.26186552432 66.5362047742373  399.583146022538 44.5150846513767  C 399.728367843913 44.3197925718295  399.611059917544 44.4760392650734  420.37995435351 13.3546622062771  C 420.736052172989 12.8190259571864  428.937171917816 0.531445059125943  429.291965349678 0  " stroke-width="3" stroke="#ffd08f" fill="none" transform="matrix(1 0 0 1 782 396 )" />
  </g>
</svg>