<?xml version="1.0" encoding="utf-8"?>
<svg version="1.1" xmlns:xlink="http://www.w3.org/1999/xlink" width="467px" height="563px" xmlns="http://www.w3.org/2000/svg">
  <g transform="matrix(1 0 0 1 -1794.5 -783.5 )">
    <path d="M 0 539.394127625755  C 9.37307019356301 535.932893106966  47.6061497220435 535.580523256605  61.2705637558727 540.985091400324  C 75.3415646118346 546.548642982444  77.9453208720083 557.127557350883  88.0184789441586 558.793234653881  C 103.089505924902 561.283540807871  116.628133791679 540.796743807725  131.111288769006 523.176774394375  C 168.253351625861 477.988642381093  178.58051772553 491.843223713989  212.838023667132 450.459400316902  C 250.433995389602 405.042436403757  232.981208205613 394.413307594118  266.332114262692 364.385506137332  C 284.733604031655 347.817520579508  311.623833306592 331.626143330686  312.396296075212 306.509105720417  C 312.586280161549 300.334466976699  311.178101411726 294.264427172784  315.36871193149 288.700875590663  C 318.757631361661 284.200341140941  325.584184090292 280.328877225357  355.489105900059 281.280345322287  C 385.385502782876 282.231813419216  386.843787225798 287.692156080669  400.066818817288 285.732142226137  C 424.941337813569 282.046245864885  440.731764242114 261.216287891138  444.645923559326 256.051671800353  C 464.426015800936 229.959448891687  461.819475891145 200.210693775966  460.99116615209 190.754827991257  C 458.947445399167 167.417796757722  448.790603860417 147.020308486908  446.132392454617 141.783150772589  C 437.999612143373 125.763397448666  433.185812065681 123.893995466403  431.272052954234 112.102723784903  C 428.456043410791 94.747900521281  437.020289412616 87.3274571291004  431.272052954234 73.5174867227722  C 426.683206561188 62.4921590219672  420.054988867743 64.4117754454296  416.413279256761 54.224889910756  C 412.354022203282 42.8716914468198  414.496492971446 52.4885546671893  419.692870893327 30.1114619596797  C 422.319070328535 18.8098679560773  426.347086619495 9.58315124474133  426.882243258296 0.222110827800878  " stroke-width="3" stroke="#ffd08f" fill="none" transform="matrix(1 0 0 1 1796 785 )" />
  </g>
</svg>