<?xml version="1.0" encoding="utf-8"?>
<svg version="1.1" xmlns:xlink="http://www.w3.org/1999/xlink" width="1006px" height="211px" xmlns="http://www.w3.org/2000/svg">
  <g transform="matrix(1 0 0 1 -780 -1102 )">
    <path d="M 0 126.152415697665  C 8.32096163824354 130.004298738364  22.4067082078754 135.161379596667  40.1600202327462 135.02374433138  C 50.6341016586764 134.943154122587  64.6205859928681 133.002670008169  84.7803106500705 123.194382813787  C 114.03689675254 108.961597937278  121.475556433139 95.0986104527836  159.149405956656 62.5699437928403  C 185.617942253168 39.7146125168504  198.852210401423 28.2869901603854  214.182391943783 21.1657069092449  C 225.109509695147 16.0906012686951  234.52383614955 13.4036838885135  301.936738483057 6.37969751673272  C 370.732433413954 -0.788849165128702  384.180637801224 -0.412126728319735  395.640462882784 0.465016757936068  C 436.712128383124 3.61071835573888  454.595526179703 10.0884052563107  459.597036763839 12.2943782755294  C 477.02034539194 19.9772826594861  482.71947793252 27.0415208541337  505.706434857038 43.3467985114515  C 525.902555667235 57.6727252404436  548.348272192195 73.5944419792181  569.662921665957 81.7916175022103  C 612.710253940101 98.3471489657815  670.995384219937 91.0299735100228  712.450080048085 65.5265051046993  C 742.084210933773 47.295978431511  756.056676654012 24.1154297393696  785.331547905115 25.6028427981215  C 801.357871177601 26.4159296200302  816.549695095299 34.3476162382215  819.540622978955 35.953101310716  C 823.336619835312 37.9894972955347  839.238778241361 46.8803026177342  852.26320254101 65.5265051046993  C 862.964019809998 80.8464354508507  858.569314944092 83.9240119204897  867.136342439664 93.6208924567437  C 870.350871569469 97.260176622259  877.400754161261 104.107487788726  916.219776422066 115.80207062201  C 947.375231674077 125.187756957821  947.017365193675 122.036515324183  956.378316428495 127.631518702663  C 959.858589718442 129.709638082368  988.04000908125 146.550135139224  990.587565646607 170.51182888416  C 991.090842594716 175.243711992093  990.930107431011 183.401847575058  995.050709211684 194.170638482407  C 997.052845914939 199.404241085686  999.369835463237 203.43262620558  1001 206  " stroke-width="4" stroke="#ffd08f" fill="none" transform="matrix(1 0 0 1 782 1104 )" />
  </g>
</svg>