<?xml version="1.0" encoding="utf-8"?>
<svg version="1.1" xmlns:xlink="http://www.w3.org/1999/xlink" width="606px" height="139px" xmlns="http://www.w3.org/2000/svg">
  <g transform="matrix(1 0 0 1 -1332.5 -880.5 )">
    <path d="M 0 20.6098459210893  C 38.5540054300087 7.59668358638947  71.6345803350319 2.85527664954252  95.1308869722436 1.04272007007206  C 134.124848281083 -1.96402149416142  158.991927259913 2.15059913049551  173.911443707856 5.55776670101956  C 194.769494354112 10.3232282752783  230.620851516597 18.5129071355891  237.827043397428 41.6810033959104  C 240.173184695893 49.2239825811922  237.581134514206 52.2392269751334  239.313808853462 65.7631758778752  C 241.363571646527 81.7660300612804  243.493215669173 98.9886217746846  254.177286617471 106.4028249432  C 261.464403926964 111.458351961998  269.352457806711 109.62323865294  282.419042988075 107.906900623117  C 304.16292252011 105.051535861349  322.184232333718 105.50143688195  358.22737406047 106.4028249432  C 395.28756569066 107.328179529637  407.039156164569 112.40212200345  414.710538735319 116.938403680611  C 424.603628880893 122.786323938395  431.359944991639 129.894865798555  435.521078323459 135  C 463.14084010904 123.860235736099  477.773723909659 109.026102104446  486.058573439617 97.3713218857061  C 497.790846230555 80.8660517956292  497.745945670137 69.3938401069878  514.301548042482 50.7125064534046  C 520.817350298582 43.3591447762178  530.76369459721 32.3622544850754  547.002034482565 25.1248484959243  C 569.956140747744 14.8949310668694  591.813489913087 18.266677522963  602.000000000001 20.6098459210893  " stroke-width="3" stroke="#ffd08f" fill="none" transform="matrix(1 0 0 1 1334 882 )" />
  </g>
</svg>