<?xml version="1.0" encoding="utf-8"?>
<svg version="1.1" xmlns:xlink="http://www.w3.org/1999/xlink" width="12px" height="7px" xmlns="http://www.w3.org/2000/svg">
  <g transform="matrix(1 0 0 1 -172 -38 )">
    <path d="M 10.5367760128408 0.256289399603912  C 10.5367760128408 0.256289399603912  6.00000541248227 4.88765868704779  6.00000541248227 4.88765868704779  C 6.00000541248227 4.88765868704779  1.46314415304575 0.256381489332984  1.46314415304575 0.256381489332984  C 1.12850074842602 -0.0854297998679662  0.585787092192013 -0.0854297998679662  0.251051675373747 0.256287557809327  C -0.0836837414445194 0.598004915486624  -0.0836837414445194 1.15203882713469  0.251051675373747 1.49375802660656  C 0.251051675373747 1.49375802660656  5.39400495422543 6.74380453191975  5.39400495422543 6.74380453191975  C 5.72871917215483 7.08539848936009  6.27129165280971 7.0853966475655  6.60600677281948 6.74380453191975  C 6.60600677281948 6.74380453191975  11.7488680394726 1.49366409508291  11.7488680394726 1.49366409508291  C 12.0836950174492 1.15204066892927  12.0836950174492 0.598006757281206  11.7489582475104 0.256289399603912  C 11.4142232817323 -0.0854288789706789  10.8715109786189 -0.0854288789706789  10.5367760128408 0.256289399603912  Z " fill-rule="nonzero" fill="#fffefe" stroke="none" transform="matrix(1 0 0 1 172 38 )" />
  </g>
</svg>