<?xml version="1.0" encoding="utf-8"?>
<svg version="1.1" xmlns:xlink="http://www.w3.org/1999/xlink" width="736px" height="112px" preserveAspectRatio="xMinYMid meet" viewBox="1844 1101  736 110" xmlns="http://www.w3.org/2000/svg">
  <g transform="matrix(0.777145961456969 0.629320391049836 -0.62932039104984 0.777145961456969 1220.4475053108 -1134.43743644649 )">
    <path d="M 0 647.465938527516  C 11.2557819171081 643.311218738415  57.1685080895382 642.88824884648  73.5776100394498 649.375664274807  C 90.4749674388338 656.05391671059  93.6017244164938 668.752398895246  105.698216615448 670.751807607789  C 123.796469318025 673.741065978679  140.054519196919 649.149579776357  157.446817614616 627.999312376789  C 202.049381218097 573.757386471759  214.450902495452 590.387840987633  255.589505742819 540.712446534242  C 300.737152130926 486.195840477497  279.778729508252 473.43708299759  319.82862965455 437.392977849999  C 341.926314992657 417.505467457691  374.217821422171 398.070021779767  375.145444098959 367.920590229695  C 375.373589135682 360.50881456416  373.682558066781 353.222595049978  378.714911088355 346.544342614195  C 382.784542196724 341.142091065423  390.982303140826 336.494949227575  426.894045098127 337.637051361815  C 462.795549778141 338.779153496054  464.546750966618 345.333518300768  480.425812661798 342.980800418136  C 510.296725322558 338.556406038171  529.2588788739 313.553003890794  533.959251617678 307.353616776452  C 557.712450940217 276.033613964798  554.582351178135 240.324464264174  553.587663888903 228.974042186285  C 551.133433351916 200.961255142096  538.93644869631 176.476971368006  535.744298498416 170.190508351355  C 525.977935964827 150.961072787218  520.197217081034 148.717121570584  517.899052791694 134.56337685093  C 514.517408501943 113.731379695491  524.801902620765 104.824192725629  517.899052791694 88.2472872826121  C 512.38847267391 75.0129493805724  504.428885119794 77.3171758924567  500.055687401207 65.0892685690828  C 495.181072019491 51.4613684451092  497.753887887956 63.0050450477353  503.994030705593 36.1445276832649  C 507.147738882647 22.5785713748262  511.98483835948 11.5032101703425  512.627488664391 0.266612460562414  " stroke-width="3" stroke="#ffd08f" fill="none" transform="matrix(1 0 0 1 1918 686 )" />
  </g>
</svg>