<?xml version="1.0" encoding="utf-8"?>
<svg version="1.1" xmlns:xlink="http://www.w3.org/1999/xlink" width="60px" height="8px" preserveAspectRatio="xMinYMid meet" viewBox="254 1419  60 6" xmlns="http://www.w3.org/2000/svg">
  <g transform="matrix(-0.997564050259824 -0.0697564737441249 0.0697564737441282 -0.997564050259823 468.11448460964 2860.3469180128 )">
    <path d="M 498 0  C 497.476971957505 0.242164639278679  474.26728875496 12.6170297424705  473.315168506402 13.0668090789972  C 451.850725276055 23.1957179201538  436.635473400243 34.5353449426824  427.062595744064 42.6264372941587  C 402.887088958248 63.0653008733134  397.8611555895 77.0283081446801  371.669951030712 100.030378365428  C 359.681259149052 110.560024528132  349.219547637457 117.35943211676  328.784946622783 130.526530541165  C 274.423660906427 165.55733635467  247.242991896846 183.073631889104  217.99955259047 189.724548237515  C 199.377400651453 193.958963929187  208.428087110005 188.716088987302  125.082104059895 195.105727962545  C 101.731360194289 196.896654136985  90.6783131778492 198.100651356989  71.4749724780123 198.694301272793  C 41.2572888368802 199.626939677577  16.4971936079671 198.25250307789  0 196.900014617669  " stroke-width="4" stroke="#ffd08f" fill="none" transform="matrix(1 0 0 1 186 1225 )" />
  </g>
</svg>