<?xml version="1.0" encoding="utf-8"?>
<svg version="1.1" xmlns:xlink="http://www.w3.org/1999/xlink" width="12px" height="7px" xmlns="http://www.w3.org/2000/svg">
  <g transform="matrix(1 0 0 1 -172 -38 )">
    <path d="M 10.5367760128408 6.74371060039609  C 10.5367760128408 6.74371060039609  6.00000541248227 2.11234131295221  6.00000541248227 2.11234131295221  C 6.00000541248227 2.11234131295221  1.46314415304575 6.74361851066702  1.46314415304575 6.74361851066702  C 1.12850074842602 7.08542979986797  0.585787092192013 7.08542979986797  0.251051675373747 6.74371244219067  C -0.0836837414445194 6.40199508451338  -0.0836837414445194 5.84796117286531  0.251051675373747 5.50624197339344  C 0.251051675373747 5.50624197339344  5.39400495422543 0.25619546808025  5.39400495422543 0.25619546808025  C 5.72871917215483 -0.0853984893600876  6.27129165280971 -0.085396647565503  6.60600677281948 0.25619546808025  C 6.60600677281948 0.25619546808025  11.7488680394726 5.50633590491709  11.7488680394726 5.50633590491709  C 12.0836950174492 5.84795933107073  12.0836950174492 6.40199324271879  11.7489582475104 6.74371060039609  C 11.4142232817323 7.08542887897068  10.8715109786189 7.08542887897068  10.5367760128408 6.74371060039609  Z " fill-rule="nonzero" fill="#fffefe" stroke="none" transform="matrix(1 0 0 1 172 38 )" />
  </g>
</svg>