<?xml version="1.0" encoding="utf-8"?>
<svg version="1.1" xmlns:xlink="http://www.w3.org/1999/xlink" width="727px" height="166px" xmlns="http://www.w3.org/2000/svg">
  <g transform="matrix(1 0 0 1 -1362.5 -801.5 )">
    <path d="M 0 24.7318151053072  C 46.3032324350436 9.11602030366736  86.0328929937343 3.42633197945102  114.251879204206 1.25126408408648  C 161.083497188078 -2.35682579299371  190.948776426773 2.58071895659461  208.867066114252 6.66932004122347  C 233.917515644557 12.3878739303339  276.974876489202 22.2154885627069  285.629488997244 50.0172040750925  C 288.44719690221 59.0687790974307  285.334153245467 62.6870723701601  287.41508937052 78.9158110534503  C 289.876847675147 98.1192360735365  292.434543071116 118.786346129622  305.26607678477 127.68338993184  C 314.017880463779 133.750022354398  323.491406967196 131.547886383528  339.184332359433 129.48828074774  C 365.298659438604 126.061843033619  386.942192653286 126.60172425834  430.229886122458 127.68338993184  C 474.739053146756 128.793815435565  488.852674264092 134.88254640414  498.065979245242 140.326084416733  C 509.947547642667 147.343588726073  518.06186084544 155.873838958265  523.059368152593 162  C 556.230610297069 148.632282883319  573.804655127381 130.831322525336  583.754731888444 116.845586262847  C 597.84515253271 97.0392621547551  597.791227108819 83.2726081283854  617.674450556004 60.8550077440855  C 625.499907418396 52.0309737314614  637.445433876716 38.8347053820905  656.947626131054 30.1498181951092  C 684.515431496045 17.8739172802433  710.766035227843 21.9200130275556  723.000000000001 24.7318151053072  " stroke-width="3" stroke="#ffd08f" fill="none" transform="matrix(1 0 0 1 1364 803 )" />
  </g>
</svg>