<?xml version="1.0" encoding="utf-8"?>
<svg version="1.1" xmlns:xlink="http://www.w3.org/1999/xlink" width="500px" height="124px" preserveAspectRatio="xMinYMid meet" viewBox="1304 1091  500 122" xmlns="http://www.w3.org/2000/svg">
  <path d="M 0 151.260420763705  C 9.9834914360944 155.878940720272  26.8835729846737 162.062430875615  48.1840002992289 161.897402183742  C 60.7508052867835 161.800772176111  77.5317919854491 159.474075203969  101.719433657078 147.713653179638  C 136.821491508292 130.648129565571  145.746396879321 114.026003795328  190.947489064879 75.0231850331629  C 222.704444201853 47.6189771439905  238.582921770339 33.9169250952194  256.976076647836 25.3782990610849  C 270.086434709163 19.2930995794548  281.38174547014 16.0714073808876  362.263759158993 7.64944313899506  C 444.804847682476 -0.945853125178589  460.940005993277 -0.494151950946479  474.689506415807 0.557568636942761  C 523.967298889243 4.32935647508497  545.423803138685 12.0962917393628  551.424616536834 14.7413176410474  C 572.32910571001 23.9533437713256  579.166926070885 32.4235711212185  606.746681581721 51.9740739433424  C 630.977991364984 69.1512773514057  657.90836653629 88.2418794605188  683.481687233581 98.0705316652716  C 735.129885096964 117.921096090039  805.060396052092 109.147589596969  854.797748389361 78.5681881595181  C 890.352784546914 56.7092556921515  907.116951709759 28.9151026486616  942.240948085957 30.6985542288156  C 961.469333950349 31.6734690104245  979.696487322132 41.1837922856346  983.28500319453 43.1088156492566  C 987.839440981228 45.5505137475586  1006.91885381406 56.2108482843706  1022.54556069106 78.5681881595181  C 1035.38440338842 96.9372308561171  1030.11163561224 100.627334681364  1040.39035691312 112.254176877746  C 1044.24714960533 116.617784590767  1052.70560014753 124.827910115608  1099.28067081209 138.850055551634  C 1136.66099224832 150.103766837776  1136.23162397363 146.325336335307  1147.46289513549 153.033908347368  C 1151.63852772412 155.525634011383  1185.45060030627 175.717880482467  1188.50715918239 204.448649196056  C 1189.11099096529 210.122314864306  1188.91814088376 219.90415704388  1193.86203972351 232.816250995895  C 1196.2642037401 239.091492952254  1199.04412826308 243.921644042613  1201 247  " stroke-width="4" stroke="#ffd08f" fill="none" transform="matrix(1 0 0 1 701 1069 )" />
</svg>