<?xml version="1.0" encoding="utf-8"?>
<svg version="1.1" xmlns:xlink="http://www.w3.org/1999/xlink" width="164px" height="46px" preserveAspectRatio="xMinYMid meet" viewBox="1212 821  164 44" xmlns="http://www.w3.org/2000/svg">
  <g transform="matrix(0.965925826289069 0.25881904510252 -0.258819045102521 0.965925826289067 262.276435803371 -306.187315924345 )">
    <path d="M 0 990  C 8.84124777137631 985.47215975908  22.9323224892779 977.820966578823  39.2398956741506 966.85379076253  C 104.552779815911 922.924838598716  145.387389127053 866.150675312639  162.308811684797 842.212682971205  C 175.065163399906 824.166678511763  192.276647797731 797.60243876322  221.166305883063 765.648424270508  C 230.338023677426 755.503051770652  242.601332912742 742.699639624785  262.190426439615 733.597156797806  C 279.983705140152 725.329923840768  294.002629846716 724.680424035501  306.779133446323 722.91454757891  C 322.511699232589 720.738499122041  346.399826647751 710.780648713291  394.175977064164 690.863280106208  C 412.621425042292 683.175291318302  457.899368264399 663.867187092825  515.460877020228 633.884916833209  C 526.567280140317 628.100032313423  535.764057272916 623.15206545316  542.216001557403 619.640326014959  C 563.838869209942 618.261011912377  580.647942401262 620.671384805489  592.156756727857 623.202255495888  C 606.27811147946 626.307314868249  616.744039679802 630.542197445439  633.179206661859 628.54361222376  C 641.391778285241 627.544345672133  651.408413433793 626.173422635885  658.148748935812 617.861003004864  C 666.1249274685 608.023650393399  663.698661457713 595.647140262051  663.500901513467 594.713073859388  C 660.865076786681 582.323117174537  650.268213544057 576.064528295093  645.664082212745 573.346187632014  C 630.082290111531 564.143272601155  613.290027559611 565.792038958048  608.207889351448 566.223892222889  C 589.749076392927 567.788956390145  564.985751589875 563.706415967569  515.460877020228 555.53961521441  C 462.573978984499 546.81874349112  425.277330576638 517.142721093463  415.579157851501 509.245476831465  C 408.476610498064 503.46059231168  385.183746779916 468.511905269552  338.884739938603 398.848907739965  C 334.495179190937 392.245503364481  318.479234054785 367.741817644266  308.563149500905 332.96720613974  C 302.55392019192 311.889889878507  302.803678263005 301.135305115471  304.99678801429 292.014372366243  C 309.493790674643 273.308913482468  322.146250549981 261.545055430313  331.750346342824 252.842581510847  C 356.775227988714 230.165047205078  370.759069621748 236.343295533262  387.041583468385 215.450087606333  C 389.766264431999 211.953358274368  400.379833900114 198.000005211842  403.094386714525 178.057567642608  C 405.542370818451 160.073531989815  399.415675861486 153.026573763206  403.094386714525 137.104733869111  C 405.88777203047 125.014406006317  412.086616998773 117.548962890734  422.71365586119 105.053544574046  C 449.168694822989 73.9530995774617  460.191462401715 79.8434457290847  479.788804627423 53.418101581652  C 479.963175855982 53.1837510861954  479.822321492314 53.3712471180881  504.760017523925 16.0255946475325  C 505.187592482576 15.3828311486237  515.034868270217 0.637734070951132  515.460877020228 0  " stroke-width="3" stroke="#ffd08f" fill="none" transform="matrix(1 0 0 1 701 219 )" />
  </g>
</svg>