<?xml version="1.0" encoding="utf-8"?>
<svg version="1.1" xmlns:xlink="http://www.w3.org/1999/xlink" width="290px" height="34px" preserveAspectRatio="xMinYMid meet" viewBox="544 1235  290 32" xmlns="http://www.w3.org/2000/svg">
  <g transform="matrix(0.75470958022277 0.656059028990505 -0.65605902899051 0.754709580222769 989.734944493639 -145.166355833142 )">
    <path d="M 0 1238  C 11.0515597142204 1232.33791291085  28.6654031115974 1222.77005719655  49.0498695926883 1209.0555484485  C 130.690974769888 1154.12217190425  181.734236408816 1083.12579397682  202.886014605996 1053.1912136549  C 218.831454249882 1030.62459393693  240.345809747164 997.405877968552  276.457882353829 957.447221461504  C 287.922529596783 944.760381911179  303.251666140928 928.749650359075  327.738033049518 917.366949611802  C 349.97963142519 907.028733045324  367.503287308395 906.216530258536  383.473916807903 904.008292831  C 403.139624040737 901.287133245543  432.999783309688 888.834791017226  492.719971330205 863.928020981298  C 515.776781302865 854.314152173796  572.374210330498 830.169270324159  644.326096275285 792.676289938901  C 658.209100175397 785.442262630321  669.705071591145 779.254805081831  677.770001946753 774.863357178302  C 704.798586512428 773.13851792679  725.809928001578 776.152701403228  740.195945909821 779.317567983747  C 757.847639349325 783.200460411003  770.930049599752 788.496202462074  791.474008327324 785.996961548501  C 801.739722856551 784.74737367889  814.260516792241 783.033027498207  822.685936169764 772.638304767699  C 832.656159335626 760.336645643463  829.623326822141 744.859757216586  829.376126891834 743.691702462548  C 826.081345983351 728.197999052603  812.835266930071 720.371602049823  807.080102765931 716.972303321649  C 787.602862639414 705.464011596192  766.612534449514 707.52580225259  760.25986168931 708.06583694135  C 737.186345491159 710.022957586869  706.232189487343 704.917720169546  644.326096275285 694.705094581253  C 578.217473730624 683.799600446471  531.596663220798 646.689584559301  519.473947314377 636.8140407246  C 510.59576312258 629.580013416019  481.479683474895 585.876503761318  423.605924923254 498.762573517249  C 418.118973988671 490.504982995179  398.099042568482 459.863000246062  385.703936876131 416.377172930301  C 378.1924002399 390.019882494537  378.504597828757 376.571219932276  381.245985017862 365.165447464049  C 386.867238343304 341.774176657874  402.682813187477 327.06341275023  414.68793292853 316.180925162049  C 445.969034985893 287.822553979684  463.448837027185 295.548484717351  483.801979335481 269.421422683476  C 487.207830539999 265.048744993604  500.474792375143 247.600006517435  503.867983393156 222.661887617726  C 506.927963523064 200.172760205446  499.269594826857 191.360503352373  503.867983393156 171.450162151474  C 507.359715038087 156.331146096788  515.108271248467 146.995571776494  528.392069826487 131.369988063302  C 561.460868528736 92.4787245221187  575.239328002144 99.8446321339464  599.736005784279 66.7996058162476  C 599.953969819977 66.5065493380908  599.777901865392 66.7410140729223  630.950021904906 20.0400870440861  C 631.48449060322 19.2363080424203  643.793585337771 0.797489676603536  644.326096275285 0  " stroke-width="3" stroke="#ffd08f" fill="none" transform="matrix(1 0 0 1 579 99 )" />
  </g>
</svg>