<?xml version="1.0" encoding="utf-8"?>
<svg version="1.1" xmlns:xlink="http://www.w3.org/1999/xlink" width="142px" height="12px" preserveAspectRatio="xMinYMid meet" viewBox="894 1175  142 10" xmlns="http://www.w3.org/2000/svg">
  <g transform="matrix(0.98480775301221 0.173648177666932 -0.173648177666925 0.984807753012211 219.565367990189 -149.643640002999 )">
    <path d="M 0 189.228623546497  C 12.4772861328707 195.006448107547  33.5988701498711 202.742069395  60.219970398953 202.53561649707  C 75.9258607289443 202.41473118388  96.8986009743207 199.504005012253  127.128118167588 184.79157422068  C 170.99838364192 163.442396905917  182.152657548593 142.647915679175  238.644613727214 93.8549156892605  C 278.33419712488 59.5719187752756  298.178988823713 42.4304852405781  321.166603703915 31.7485603638674  C 337.551822230186 24.1359019030427  351.668609451024 20.1055258327703  452.754290172896 9.56954627509909  C 555.91346908526 -1.18327374769305  576.079058281356 -0.618190092479603  593.263071715343 0.697525136904102  C 654.850054648421 5.41607753360832  681.666218577158 15.132607884466  689.165986196326 18.4415674132941  C 715.292246187115 29.9659239892292  723.838098278433 40.5622812812005  758.307051668745 65.0201977671773  C 788.591144911608 86.5090878606654  822.248508052433 110.391662968827  854.209835585016 122.687426253315  C 918.759331832259 147.520723448672  1006.15791380032 136.544960265034  1068.31925090127 98.2897576570489  C 1112.75564496663 70.9439676472665  1133.70736429338 36.1731446090543  1177.60504835722 38.4042641971823  C 1201.63652810947 39.6238944300453  1224.41667566238 51.5214243573323  1228.90157351789 53.929651966074  C 1234.5936727001 56.984245943302  1258.43896717311 70.3204539266012  1277.96909791614 98.2897576570489  C 1294.01497875605 121.269653176276  1287.42511661447 125.886017880735  1300.27137862331 140.431338685116  C 1305.09156665911 145.890264933388  1315.66286912693 156.161231683088  1373.87201239712 173.703105933015  C 1420.58963310968 187.781635436732  1420.05301214356 183.054772986274  1434.08976319597 191.447278053995  C 1439.30843473265 194.564457123552  1481.56648714381 219.825202708835  1485.38654948607 255.76774332624  C 1486.14121352115 262.86556798814  1485.90019106288 275.102771362587  1492.07903549125 291.25595772361  C 1495.08124047785 299.106361628528  1498.55556746286 305.14893930837  1501 309  " stroke-width="4" stroke="#ffd08f" fill="none" transform="matrix(1 0 0 1 579 1161 )" />
  </g>
</svg>