<?xml version="1.0" encoding="utf-8"?>
<svg version="1.1" xmlns:xlink="http://www.w3.org/1999/xlink" width="134px" height="18px" preserveAspectRatio="xMinYMid meet" viewBox="2706 901  134 16" xmlns="http://www.w3.org/2000/svg">
  <g transform="matrix(-0.39073112848928 0.920504853452443 -0.920504853452437 -0.390731128489276 4693.23633108904 -1288.38536282687 )">
    <path d="M 0 809.573654880158  C 14.0697273963851 804.378707185589  71.4606351119228 803.849837231291  91.9720125493122 811.961523586532  C 113.093709298542 820.31182730281  117.002155520617 836.189661211791  132.122770769309 838.689667038652  C 154.745586647531 842.42735373489  175.068148996149 811.678833729304  196.80852201827 785.233119350412  C 252.561726522621 717.410502607759  268.063628119315 738.204766898099  319.486882178524 676.092015860252  C 375.921440163657 607.925946588107  349.723411885315 591.972746102799  399.785787068188 546.904185419  C 427.407893740821 522.037387774967  467.772276777714 497.73583945339  468.931805123699 460.037816993613  C 469.216986419603 450.77033594535  467.103197583476 441.65984686577  473.393638860444 433.309543149493  C 478.480677745905 426.554715952146  488.727878926032 420.744057230902  533.617556372659 422.172110421106  C 578.494437222676 423.60016361131  580.683438708272 431.795561630915  600.532265827247 428.853787706135  C 637.870906653197 423.321646298101  661.573598592375 392.058077890277  667.449064522098 384.306534240601  C 697.140563675271 345.144861574465  693.227938972669 300.495119996485  691.984579861129 286.302863478827  C 688.916791689894 251.276442718657  673.670560870388 220.661965689653  669.680373123021 212.801544719504  C 657.472419956034 188.757585795045  650.246521351292 185.951810726856  647.373815989617 168.25435644997  C 643.146760627429 142.206598456806  656.002378275957 131.069296120421  647.373815989617 110.341988122372  C 640.485590842387 93.7941349184803  630.536106399743 96.6752765629973  625.069609251509 81.385836556573  C 618.976340024364 64.3458839425434  622.192359859946 78.7797806185543  629.992538381992 45.1941262686427  C 633.934673603309 28.2316265029497  639.981047949351 14.3832985587441  640.784360830488 0.333364909704717  " stroke-width="3" stroke="#ffd08f" fill="none" transform="matrix(1 0 0 1 2101 683 )" />
  </g>
</svg>