<?xml version="1.0" encoding="utf-8"?>
<svg version="1.1" xmlns:xlink="http://www.w3.org/1999/xlink" width="908px" height="207px" xmlns="http://www.w3.org/2000/svg">
  <g transform="matrix(1 0 0 1 -1406.5 -827.5 )">
    <path d="M 0 30.9911016443047  C 57.8950513434017 11.423161244719  107.570864822041 4.29349007301579  142.854355187555 1.56794203129355  C 201.410071172921 -2.95330639492421  238.751997081332 3.23386387770806  261.156055003159 8.35723437264422  C 292.477778897205 15.5230765917147  346.314368390372 27.837927026108  357.135626630025 62.6758791805171  C 360.658735822404 74.0182849183854  356.766354818675 78.5523190811266  359.368244524135 98.8883311348791  C 362.446293635316 122.951882240296  365.64429728394 148.849557187118  381.688151332547 159.998321951627  C 392.630932142816 167.600336653968  404.476116041971 164.840869974421  424.097699105017 162.260006122168  C 456.749637804285 157.966383554473  483.811538255284 158.642901385451  537.936123173862 159.998321951627  C 593.587972399264 161.389781070492  611.234879024535 169.019487160743  622.754696041078 175.840710719733  C 637.610764963999 184.634250070327  647.75646224658 195.323390793382  654.005074425925 203  C 695.480597107262 186.249095217986  717.454229924139 163.942953534834  729.895266427597 146.417617354062  C 747.51316443924 121.598581588983  747.445739012963 104.3477743831  772.306643572098 76.2565837780825  C 782.091170548036 65.1993065894238  797.027209162588 48.6632419294097  821.411692977141 37.7803277383158  C 855.880982119536 22.3975630116629  888.703313756529 27.4676706456407  904.000000000001 30.9911016443047  " stroke-width="3" stroke="#ffd08f" fill="none" transform="matrix(1 0 0 1 1408 829 )" />
  </g>
</svg>