<?xml version="1.0" encoding="utf-8"?>
<svg version="1.1" xmlns:xlink="http://www.w3.org/1999/xlink" width="98px" height="8px" preserveAspectRatio="xMinYMid meet" viewBox="-68 1601  98 6" xmlns="http://www.w3.org/2000/svg">
  <g transform="matrix(-0.999847695156391 0.0174524064372846 -0.0174524064372846 -0.999847695156407 -10.003446282567 3208.08729875318 )">
    <path d="M 623 0  C 622.345689818324 0.303010026032116  593.310282920362 15.7871377179655  592.11917666564 16.3499269380417  C 565.267071981892 29.0237877493381  546.232730779822 43.21256729009  534.25702238665 53.3365974183192  C 504.013366307206 78.9108538565579  497.725903478431 96.3821544121876  464.960601389826 125.163639261264  C 449.962699698513 138.338925163341  436.875056582602 146.846726618458  411.311288646574 163.3221412299  C 343.305101896995 207.154657046798  309.301975806697 229.072031861241  272.718315790889 237.394032719303  C 249.421928927421 242.692371951596  260.744374035208 236.13219174793  156.478214516696 244.127267651627  C 127.266340162735 246.368175276931  113.438933955422 247.874684361258  89.4154776180757 248.617492547364  C 51.6130340268601 249.784462209632  20.6380554573565 248.064689780877  0 246.372380099495  " stroke-width="4" stroke="#ffd08f" fill="none" transform="matrix(1 0 0 1 -64 1356 )" />
  </g>
</svg>