<?xml version="1.0" encoding="utf-8"?>
<svg version="1.1" xmlns:xlink="http://www.w3.org/1999/xlink" width="180px" height="103px" xmlns="http://www.w3.org/2000/svg">
  <defs>
    <mask fill="white" id="clip98">
      <path d="M 26.3352496953448 0  L 86.4204346334776 6.6616793878645  L 180 14.8610076706688  L 143.437499047688 103  L 114.141275349697 98.970451084662  L 0 83.2709923483062  L 26.3352496953448 0  Z " fill-rule="evenodd" />
    </mask>
  </defs>
  <g transform="matrix(1 0 0 1 0 -12 )">
    <path d="M 26.3352496953448 0  L 86.4204346334776 6.6616793878645  L 180 14.8610076706688  L 143.437499047688 103  L 114.141275349697 98.970451084662  L 0 83.2709923483062  L 26.3352496953448 0  Z " fill-rule="nonzero" fill="#4e95ff" stroke="none" fill-opacity="0.2" transform="matrix(1 0 0 1 0 12 )" />
    <path d="M 26.3352496953448 0  L 86.4204346334776 6.6616793878645  L 180 14.8610076706688  L 143.437499047688 103  L 114.141275349697 98.970451084662  L 0 83.2709923483062  L 26.3352496953448 0  Z " stroke-width="4" stroke-dasharray="6,2" stroke="#4e95ff" fill="none" transform="matrix(1 0 0 1 0 12 )" mask="url(#clip98)" />
  </g>
</svg>