<?xml version="1.0" encoding="utf-8"?>
<svg version="1.1" xmlns:xlink="http://www.w3.org/1999/xlink" width="26px" height="17px" xmlns="http://www.w3.org/2000/svg">
  <g transform="matrix(1 0 0 1 -4 -36 )">
    <path d="M 25.2711439872892 11.0485377165612  C 25.2711439872892 11.0485377165612  25.2711439872892 6.6805687046663  25.2711439872892 6.6805687046663  C 25.2711439872892 6.54448553925268  25.2188134162307 6.41388202269962  25.1256272799255 6.31762807643143  C 25.1256272799255 6.31762807643143  23.4983275448498 4.63559506223782  23.4983275448498 4.63559506223782  C 23.4051792798509 4.53930980369046  23.2788254534798 4.48520218522874  23.1470560303064 4.48513956067027  C 23.1470560303064 4.48513956067027  15.2123886947742 4.48513956067027  15.2123886947742 4.48513956067027  C 15.0903900686286 4.48513956067027  14.9727390684474 4.53154435844827  14.8817646164307 4.61539864215219  C 14.8817646164307 4.61539864215219  12.2807860218756 7.0116021203939  12.2807860218756 7.0116021203939  C 12.2807860218756 7.0116021203939  11.4487685707777 1.23154325330894  11.4487685707777 1.23154325330894  C 11.4267729160731 0.548559819346539  10.8824107591799 0  10.2164362634654 0  C 10.2164362634654 0  5.67214460546547 0  5.67214460546547 0  C 4.99226376607418 0  4.43897155515315 0.571636969118783  4.43897155515315 1.27431582669946  C 4.43897155515315 1.27431582669946  4.43897155515315 3.68420277095258  4.43897155515315 3.68420277095258  C 4.43897155515315 3.68420277095258  1.93049741338978 3.68420277095258  1.93049741338978 3.68420277095258  C 0.866033458425171 3.68420277095258  0 4.5792642719527  0 5.67935857717003  C 0 5.67935857717003  0 11.2056627335989  0 11.2056627335989  C 0 12.0639949310946  0.528175960576553 12.7952932118662  1.26543940328805 13.0762582931493  C 1.25004850440385 13.2116525884204  1.23992929135794 13.3487064344892  1.23992929135794 13.4883278874527  C 1.23992929135794 15.4246792333281  2.76417362770408 17  4.63772774492685 17  C 5.92174681109035 17  7.04126807116776 16.2597777196556  7.61894182909087 15.1708618981135  C 8.19661558701399 16.2597777196556  9.31612927283013 17  10.6001559132549 17  C 11.2098082022258 17  11.7958515188433 16.8311955028199  12.3166425746895 16.513250619799  C 12.6450019489157 16.7167804346145  13.0159968397851 16.8261855381475  13.4075482757194 16.8261855381475  C 13.6782750960038 16.8261855381475  13.9583788517303 16.7746455265805  14.2404291926012 16.6677140931043  C 14.2632580160446 16.6588840303693  14.2854657500645 16.6484570413948  14.3069009094357 16.6364331261811  C 14.3069009094357 16.6364331261811  18.8167069559102 14.0940326163436  18.8167069559102 14.0940326163436  C 18.9871960026545 13.9979665437507  19.0832679325005 13.810499928166  19.073565303824 13.6166769199032  C 19.2562716339837 15.4194813949805  20.7350401057134 16.8296298888599  22.5269664093166 16.8296298888599  C 24.4419593099032 16.8296298888599  26 15.2193959308773  26 13.2402406993322  C 26 12.4146924581613  25.7261828811208 11.6555888734579  25.2711061159829 11.0485377165612  Z M 15.4016391866642 5.51208838167095  L 22.9412406290366 5.51208838167095  L 24.2775751177361 6.89317908045042  C 24.2775751177361 6.89317908045042  24.2775751177361 10.1454915843645  24.2775751177361 10.1454915843645  C 23.7628358966381 9.83324553615832  23.1657796041458 9.65103938347961  22.5270573004517 9.65103938347961  C 21.8883198482351 9.65103938347961  21.291271130004 9.83324553615832  20.7765622059512 10.1454915843645  C 20.7765622059512 10.1454915843645  20.7765622059512 7.0636431284282  20.7765622059512 7.0636431284282  C 20.7765622059512 6.78001650341307  20.5541818953016 6.55021568634674  20.2797436869989 6.55021568634674  C 20.2797436869989 6.55021568634674  16.7814802320521 6.55021568634674  16.7814802320521 6.55021568634674  C 16.6571184363928 6.55021568634674  16.5372709004457 6.59834265948078  16.445576893609 6.68523423426742  C 16.445576893609 6.68523423426742  12.7396574919057 10.1993173923134  12.7396574919057 10.1993173923134  L 12.455615120323 8.22614280609598  L 15.4016316124029 5.51208838167095  Z M 5.67214460546547 1.02694882100062  C 5.67214460546547 1.02694882100062  10.2164135406816 1.02694882100062  10.2164135406816 1.02694882100062  C 10.3483723203866 1.02694882100062  10.4557601965579 1.13795085077304  10.4557601965579 1.27431582669946  C 10.4557601965579 1.29955352373652  10.457555296477 1.3247912207737  10.4610773279638 1.34987235641478  C 10.4610773279638 1.34987235641478  11.333215640966 7.40870444523848  11.333215640966 7.40870444523848  L 8.02009742830525 7.40870444523848  C 8.02009742830525 7.40870444523848  5.49490689193685 3.90266854294758  5.49490689193685 3.90266854294758  C 5.47631208053887 3.87724297223525  5.4554677135461 3.85369613827505  5.43263131584145 3.83224722702145  C 5.43263131584145 3.83224722702145  5.43263131584145 1.27431582669946  5.43263131584145 1.27431582669946  C 5.43263131584145 1.13795085077304  5.54001919201277 1.02694882100062  5.67215217972673 1.02694882100062  Z M 0.993606740859469 11.2056627335989  C 0.993606740859469 11.2056627335989  0.993606740859469 5.67938988944921  0.993606740859469 5.67938988944921  C 0.993606740859469 5.14551552904861  1.41392522106647 4.71112027967397  1.93049741338978 4.71112027967397  C 1.93049741338978 4.71112027967397  4.83866532194397 4.71112027967397  4.83866532194397 4.71112027967397  C 4.83866532194397 4.71112027967397  7.32303816437196 8.16048095660861  7.32303816437196 8.16048095660861  C 7.37052120822285 8.22648724116723  7.43271346744437 8.27962417897365  7.50434325619822 8.31547673866035  C 7.59042473543979 8.3893424052988  7.69950924613378 8.43555932940152  7.82018237655848 8.43555932940152  C 7.82018237655848 8.43555932940152  11.4398688137949 8.43555932940152  11.4398688137949 8.43555932940152  C 11.4537827317331 8.43555932940152  11.4668634809324 8.43252203831892  11.48047442842 8.43139479626763  C 11.48047442842 8.43139479626763  11.731727823 10.176835175846  11.731727823 10.176835175846  C 11.3682693220861 10.0442589857032  10.9856403659184 9.9765618380676  10.6002013588225 9.97662446262606  C 9.31618229265897 9.97662446262606  8.19667618110408 10.7168154306912  7.61898727465844 11.8057625645125  C 7.04132866525785 10.7168154306912  5.92179983091918 9.97662446262606  4.63778076475568 9.97662446262606  C 3.24940352692563 9.97662446262606  2.05463955547243 10.8426594808055  1.52796329862574 12.0786177654821  C 1.21257105967994 11.9226199904958  0.993621889381993 11.5904593327169  0.993621889381993 11.2056627335989  Z M 7.04193460615881 13.4883278874527  C 7.04193460615881 14.8583966639529  5.96340524803084 15.9731138035578  4.63773531918811 15.9731138035578  C 3.3120805388679 15.9731138035578  2.23353603221741 14.8583966639529  2.23353603221741 13.4883278874527  C 2.23353603221741 12.1182591109523  3.3120805388679 11.0035419713475  4.63773531918811 11.0035419713475  C 5.96340524803084 11.0035419713475  7.04193460615881 12.1182591109523  7.04193460615881 13.4883278874527  Z M 11.5656924418777 15.7625074136426  C 11.2631007044646 15.9012208105091  10.936407667716 15.9731138035578  10.6001937845612 15.9731138035578  C 9.27452385571848 15.9731138035578  8.19599449759051 14.8583966639529  8.19599449759051 13.4883278874527  C 8.19599449759051 12.1182591109523  9.27452385571848 11.0035419713475  10.6001937845612 11.0035419713475  C 11.2767873945648 11.003322785393  11.9221220283406 11.2978773958499  12.3776986947217 11.8148744377605  C 12.3594825963868 11.8230782549114  12.342857092917 11.833379994769  12.3249818363389 11.8420221838288  C 12.2916020669576 11.8581166953389  12.2586085849008 11.8750879506666  12.2260468357358 11.8929672620911  C 12.190364490931 11.9124748120343  12.1552426414595 11.9330782917494  12.1206737130602 11.9546211398406  C 12.0891647862107 11.9742539389005  12.0581330378206 11.994732169499  12.0276466362414 12.0159932070773  C 11.9953424119594 12.0386946094991  11.9636819998846 12.0623040680176  11.9326729742784 12.0868215826331  C 11.9033227118885 12.1097734832885  11.874563241877 12.1335708154823  11.8464400098116 12.1580883300978  C 11.8173548465659 12.1837017744853  11.78898923814 12.2101919626905  11.7613431845341 12.2374649578758  C 11.7345000026219 12.2635167741722  11.7083233557007 12.2902261483318  11.6828208180319 12.3176243926339  C 11.6569092702549 12.3460872544289  11.6317551486041 12.3752389863663  11.6073887501245 12.4050795884462  C 11.583196559654 12.4339495098707  11.5597466467871 12.4634769891586  11.5370314372627 12.4935994017513  C 11.5143465247833 12.5245985581616  11.4924493354751 12.5561926478768  11.4713474435994 12.5883503586177  C 11.4502909972913 12.6199757606122  11.4292875708121 12.6515385380482  11.4097611252789 12.6843538066523  C 11.3898938379889 12.7176700717236  11.371677739654 12.7520196420086  11.3534464927966 12.7864631491312  C 11.3355788104797 12.8201864738321  11.3175823657215 12.8537532371371  11.3012977040084 12.8885098670518  C 11.2845661608808 12.9241745530632  11.2696675889786 12.9609351688469  11.25460995759 12.9976331600721  C 11.2400219303995 13.033203909246  11.2250930614523 13.0685554724655  11.2120804806044 13.105002965457  C 11.198507404423 13.1430160724088  11.1869793787824 13.1821251091325  11.1751483826913 13.2210462721811  C 11.1639536245462 13.2579947616399  11.1522513908966 13.2945675037483  11.1426396533552 13.3322048633495  C 11.1322704896876 13.3727855771958  11.1242266242275 13.4142430348598  11.1157510258754 13.4556691802446  C 11.1080328536495 13.4933378521251  11.09957240382 13.5306620889343  11.0933766581078 13.568988318678  C 11.0864083377468 13.6120740148605  11.0820682860437 13.656099079419  11.0771222934397 13.7000615194191  C 11.0728276873042 13.7379493772541  11.0675938727722 13.7755241122969  11.0648141188891 13.8140382157158  C 11.0615193152402 13.8600672661434  11.0610648595645 13.9069417481093  11.0599362946364 13.9536283564001  C 11.0590349575463 13.9910778423262  11.0569596099605 14.0280889563433  11.0574595112038 14.0658515650614  C 11.0581487689786 14.1156380889932  11.0620495135285 14.1661761076259  11.0652382775198 14.2165262525833  C 11.0674651103308 14.2521596263156  11.0682679820245 14.2873859404182  11.0718203105564 14.3232698123842  C 11.0771980360523 14.3783481115012  11.0862038326927 14.4339587193647  11.094626411216 14.4895067026696  C 11.0994815126848 14.5214139151769  11.102579385541 14.5530706294505  11.1084115667126 14.585165715633  C 11.1203637509839 14.6506396914452  11.1362545511114 14.7164894146077  11.1524331731668 14.7823704500495  C 11.1579699581493 14.8049152910752  11.1617267917352 14.827303570705  11.1678013492672 14.8499110362891  C 11.1919026486026 14.9401530249504  11.2195789992536 15.0293930206772  11.250792529914 15.1173179006775  C 11.2512015400221 15.118476455008  11.2518150551843 15.1195410725008  11.2522164910312 15.1206996268314  C 11.2909664116471 15.2293219233844  11.3352152459392 15.3320888237266  11.3825771016099 15.4313487487982  C 11.3880229954572 15.4426837938694  11.3930295821513 15.4543319617327  11.3985890899176 15.4655417576872  C 11.4461024308135 15.5619209530721  11.498751120845 15.6555133556081  11.5563079321742 15.7458492811069  C 11.5596784784358 15.7511410562921  11.5622915985711 15.7572156384574  11.5656924418777 15.7625074136426  Z M 13.8652305867314 15.7157268685142  C 13.3405236378128 15.9028803613069  12.928249023066 15.7641356521611  12.6298988719594 15.4801332797954  C 12.5970795979116 15.4489462497099  12.5656918592423 15.4161622933851  12.5358871411767 15.3818753476584  C 12.5255179775091 15.3699766815615  12.5145352986793 15.3587981978863  12.5044918282461 15.346523784439  C 12.4684989387295 15.3024987198804  12.4346647136725 15.2549353677719  12.4021408358139 15.2054619666321  C 12.357695070729 15.1379840049511  12.317437872122 15.0677192504209  12.2815964678307 14.9950121381129  C 12.2758400292716 14.9833013456913  12.2707198286586 14.9713087427568  12.2651906179374 14.959441388939  C 12.2361206032142 14.8971612656055  12.2086260348334 14.8330963423574  12.1846004781107 14.7657123175138  C 12.1846004781107 14.7657123175138  12.1835931013628 14.7631133983401  12.1835931013628 14.7631133983401  C 12.0321230246472 14.3372350889084  11.9945471145269 13.8474484176248  12.1389201084401 13.4439583878228  C 12.1857366173 13.3132296221529  12.2522007598732 13.1918945402437  12.3395547150068 13.0844307980211  C 12.3420466469619 13.0813621946592  12.3439932321062 13.077917843947  12.3465381838902 13.0748492405851  C 12.360353636432 13.0582224203287  12.3766004268388 13.0432551508699  12.3914459789121 13.0273485130351  C 12.4419890243128 12.9732408945734  12.4967206361913 12.9220453180775  12.5599202721607 12.8771748219805  C 12.5599202721607 12.8771748219805  12.56105641135 12.8764859518381  12.56105641135 12.8764859518381  C 12.642525165483 12.8187774212681  12.7346660537341 12.7693979569659  12.8384107102385 12.7299757974501  C 12.8384107102385 12.7299757974501  13.2858374715018 12.5616722967373  13.2858374715018 12.5616722967373  L 13.3236027381537 12.5474565219794  C 13.3236178866762 12.547393897421  16.3775978987834 11.3985150612063  16.3775978987834 11.3985150612063  C 16.2706796268103 11.9525858416925  16.3439378817355 12.4782563849421  16.4497200145193 12.8055323271654  C 16.4497200145193 12.8055323271654  16.4650806163584 12.8541289844875  16.4650806163584 12.8541289844875  C 16.5441786267165 13.105002965457  16.686968600026 13.5581855823531  17.157405967003 13.859691518793  C 17.157405967003 13.859691518793  13.8652078639476 15.7157268685142  13.8652078639476 15.7157268685142  Z M 19.0568943547866 13.5032012200737  C 18.9934902137631 13.272554971469  18.7863568910338 13.1172773789044  18.5524788517886 13.1304598484485  C 17.6144747628528 13.183283663463  17.5145323855019 12.8682195101287  17.4099091146912 12.535933603233  C 17.4099091146912 12.535933603233  17.3922838087348 12.4807613672783  17.3922838087348 12.4807613672783  C 17.3892238071849 12.4710858730048  17.085336871096 11.4977749862779  17.7509856735761 10.8347374741674  C 17.9200356106806 10.666496598013  17.9520974586023 10.3989018599494  17.827849276862 10.1930862487521  C 17.7035859465991 9.98733326211322  17.4569225543439 9.89947100667139  17.2363827891809 9.98247985883694  C 17.2363827891809 9.98247985883694  13.3600122120397 11.4408805749672  13.3600122120397 11.4408805749672  C 13.2992666367192 11.3537071896677  13.2347036337227 11.2694771586133  13.166489836798 11.1883783554792  C 13.166489836798 11.1883783554792  16.9749117161586 7.57713319506813  16.9749117161586 7.57713319506813  L 19.7829403165692 7.57713319506813  C 19.7829403165692 7.57713319506813  19.7829403165692 11.0486316533989  19.7829403165692 11.0486316533989  C 19.3280074623952 11.6557141225747  19.0542054920386 12.4147863949988  19.0542054920386 13.2403033238905  C 19.0542054920386 13.3539668973952  19.0606739111562 13.4660335446606  19.0707098073283 13.5770981989913  C 19.0675513403821 13.5524241229799  19.0636202987871 13.5277500469684  19.0569246518316 13.5032012200737  Z M 25.0064159819243 13.2403033238905  C 25.006378110618 14.6533638597357  23.8942266067484 15.8027750046968  22.5270118548841 15.8027750046968  C 21.1599788852901 15.8027750046968  20.0477667873305 14.6533638597357  20.0477667873305 13.2403033238905  C 20.0477667873305 11.8274306617206  21.1599182912001 10.677956892201  22.5270118548841 10.677956892201  C 23.8942266067484 10.677956892201  25.0064159819243 11.8273993494414  25.0064159819243 13.2403033238905  Z " fill-rule="nonzero" fill="#f5f5f5" stroke="none" transform="matrix(1 0 0 1 4 36 )" />
  </g>
</svg>