<?xml version="1.0" encoding="utf-8"?>
<svg version="1.1" xmlns:xlink="http://www.w3.org/1999/xlink" width="17px" height="10px" xmlns="http://www.w3.org/2000/svg">
  <g transform="matrix(1 0 0 1 -220 -703 )">
    <path d="M 1.34027744603989 8.49915905418335  C 0.879850596271994 8.31406103377874  0.631502951390667 8.13238076107845  0.540701609857646 7.99084403378174  C 0.454497028780284 7.85692228821207  0.273660472456814 7.81674876256547  0.136799591158746 7.90114314666635  C -6.12901394365678E-05 7.98547757028118  -0.0411103610079344 8.16239098434132  0.0451095426043367 8.29631272991099  C 0.240196056340031 8.59944296708469  0.638520672352858 8.83667663010076  1.11710472592041 9.02923973101726  C 1.61088873406116 9.22749907810753  2.24763199237121 9.40057502106112  2.98688300884116 9.54328097783561  C 4.46713181075405 9.82866291114156  6.39430830923039 10  8.49724960499407 10  C 10.600160255688 10  12.5273673992341 9.82866291114156  14.0081984574715 9.54328097783561  C 14.7474494739413 9.39997541620072  15.3835951533921 9.2280687027249  15.8768122277434 9.02923973101726  C 16.3559785376354 8.83667663010076  16.7548854099725 8.59944296708469  16.9493590223141 8.29628274966797  C 17.035609570996 8.16239098434132  16.9945605001275 7.98547757028118  16.8576996188295 7.90114314666635  C 16.7208387375313 7.81674876256547  16.5399868586731 7.85692228821207  16.4537669550608 7.99084403378174  C 16.3624140022731 8.13295038569583  16.1146486137162 8.31406103377874  15.6542217639482 8.49915905418335  C 15.2090255138232 8.67853084817106  14.6127184249877 8.84237287627459  13.894566539009 8.98052183611006  C 12.4594119571654 9.25786906428663  10.5714764704451 9.42692765467557  8.49724960499407 9.42692765467557  C 6.42360499586742 9.42692765467557  4.53450499649832 9.25786906428663  3.09994799351403 8.98109146072738  C 2.38179610753532 8.84237287627459  1.78607127502418 8.67853084817106  1.34029276857477 8.49915905418335  Z M 1.34027744603989 5.88254340389683  C 0.879850596271994 5.69798502786664  0.631502951390667 5.51687437978372  0.540701609857646 5.37476802786963  C 0.454497028780284 5.24087626254298  0.273660472456814 5.20073271713946  0.136799591158746 5.28506714075424  C -6.12901394365678E-05 5.3694315446121  -0.0411103610079344 5.54637493891526  0.0451095426043367 5.68023672399888  C 0.240196056340031 5.98279733655521  0.638520672352858 6.22063060443168  1.11710472592041 6.41316372510516  C 1.61088873406116 6.61145305243844  2.24763199237121 6.78449901514902  2.98688300884116 6.9272049719235  C 4.46713181075405 7.21261688547247  6.39430830923039 7.38395397433092  8.49724960499407 7.38395397433092  C 10.600160255688 7.38395397433092  12.5273673992341 7.21261688547247  14.0081984574715 6.9272049719235  C 14.7474494739413 6.78395937077466  15.3835951533921 6.61145305243844  15.8768122277434 6.41316372510516  C 16.3559785376354 6.22063060443168  16.7548854099725 5.98336696117259  16.9493590223141 5.67966709938151  C 17.0095765842826 5.59299421681118  17.0165943052448 5.481047989375  16.9677154190668 5.38783941382629  C 16.9188058878192 5.29457087779154  16.8217835971364 5.23488021393901  16.7147097235905 5.23218199206723  C 16.6076358500447 5.22948377019544  16.507579697461 5.28413775322063  16.4537976001306 5.37476802786963  C 16.3624140022731 5.51690436002674  16.1146486137162 5.69798502786664  15.6542217639482 5.88308304827124  C 15.2090255138232 6.06245484225895  14.6127184249877 6.22635683084847  13.894566539009 6.36444583019796  C 12.4594119571654 6.64182303861761  10.5714764704451 6.81088162900648  8.49724960499407 6.81088162900648  C 6.42360499586742 6.81088162900648  4.53450499649832 6.64182303861761  3.09994799351403 6.36444583019796  C 2.38179610753532 6.22635683084847  1.78607127502418 6.06245484225895  1.34029276857477 5.88308304827124  Z M 1.34027744603989 3.26706700284513  C 0.879850596271994 3.08196898244063  0.631502951390667 2.90028870974034  0.540701609857646 2.75878196268665  C 0.454497028780284 2.62486021711692  0.273660472456814 2.58468669147032  0.136799591158746 2.66905109532818  C -6.12901394365678E-05 2.75338551894307  -0.0411103610079344 2.93029893300315  0.0451095426043367 3.06422067857288  C 0.240196056340031 3.36675131088613  0.638520672352858 3.60401495414522  1.11710472592041 3.79654807481869  C 1.61088873406116 3.99540702676941  2.24763199237121 4.16791334510558  2.98688300884116 4.31061930188006  C 4.46713181075405 4.59657085980345  6.39430830923039 4.76733832404451  8.49724960499407 4.76733832404451  C 10.600160255688 4.76733832404451  12.5273673992341 4.59657085980345  14.0081984574715 4.31061930188006  C 14.7474494739413 4.16791334510558  15.3835951533921 3.99540702676941  15.8768122277434 3.79654807481869  C 16.3559785376354 3.60461455900562  16.7548854099725 3.36675131088613  16.9493590223141 3.0641906983298  C 17.035609570996 2.93029893300315  16.9945605001275 2.75338551894307  16.8576996188295 2.66905109532818  C 16.7208387375313 2.58468669147032  16.5399868586731 2.62486021711692  16.4537669550608 2.75872200220055  C 16.3624140022731 2.90028870974034  16.1146486137162 3.08196898244063  15.6542217639482 3.26706700284513  C 15.2090255138232 3.44583919197249  14.6127184249877 3.61031080517939  13.894566539009 3.74842978477184  C 12.4594119571654 4.02523736857411  10.5714764704451 4.19426597872002  8.49724960499407 4.19426597872002  C 6.42360499586742 4.19426597872002  4.53450499649832 4.02523736857411  3.09994799351403 3.74842978477184  C 2.38179610753532 3.61031080517939  1.78607127502418 3.44583919197249  1.34029276857477 3.26706700284513  Z M 1.34027744603989 0.65045135255872  C 0.879850596271994 0.46535333215411  0.631502951390667 0.284242684071197  0.540701609857646 0.142675976531466  C 0.452045423203963 0.0150800622389845  0.276050787893784 -0.0209561898708751  0.142530219193425 0.0611596957605497  C 0.00904029556274112 0.143305561634938  -0.0340160273714837 0.314132986361987  0.0451401876740122 0.447575048043339  C 0.240196056340031 0.750735265460062  0.638520672352858 0.987968928476134  1.11710472592041 1.18107167376699  C 1.61088873406116 1.37936100110027  2.24763199237121 1.55186731943649  2.98688300884116 1.69457327621098  C 4.46713181075405 1.98052483413431  6.39430830923039 2.15129229837537  8.49724960499407 2.15129229837537  C 10.600160255688 2.15129229837537  12.5273673992341 1.98052483413431  14.0081984574715 1.69457327621098  C 14.7474494739413 1.55186731943649  15.3835951533921 1.37936100110027  15.8768122277434 1.18053202939263  C 16.3559785376354 0.987968928476134  16.7548854099725 0.750735265460062  16.9493590223141 0.447575048043339  C 17.0095765842826 0.360872185229933  17.0165943052448 0.248985918279854  16.9677154190668 0.1557173822451  C 16.9188058878192 0.0624788264534231  16.8217835971364 0.00281814284386589  16.7147097235905 8.99407290595498E-05  C 16.6076358500447 -0.00263826138569095  16.507579697461 0.0520457018825153  16.4537976001306 0.142675976531466  C 16.3624140022731 0.284242684071197  16.1146486137162 0.46535333215411  15.6542217639482 0.65045135255872  C 15.2090255138232 0.829823146546426  14.6127184249877 0.994294759753323  13.894566539009 1.13238375910275  C 12.4594119571654 1.40916136266201  10.5714764704451 1.57824993329396  8.49724960499407 1.57824993329396  C 6.42360499586742 1.57824993329396  4.53450499649832 1.40916136266201  3.09994799351403 1.13238375910275  C 2.38179610753532 0.993725135135945  1.78607127502418 0.829823146546426  1.34029276857477 0.651020977176041  Z " fill-rule="nonzero" fill="#ffffff" stroke="none" transform="matrix(1 0 0 1 220 703 )" />
  </g>
</svg>