<?xml version="1.0" encoding="utf-8"?>
<svg version="1.1" xmlns:xlink="http://www.w3.org/1999/xlink" width="17px" height="2px" xmlns="http://www.w3.org/2000/svg">
  <g transform="matrix(1 0 0 1 -220 -714 )">
    <path d="M 1.51697166352174 0.537683233798924  C 1.06883678716753 0.386802230886926  0.862036599622606 0.249494101969301  0.79810558353859 0.165539706825922  C 0.67086131513663 4.93559054340852E-05  0.403942165966623 -0.0495533290558215  0.201933414461018 0.0546863432209664  C -7.53370446710252E-05 0.15887665959232  -0.0606764557553839 0.377424608854449  0.0665678126465475 0.542914959774937  C 0.283719310125387 0.8249346034253  0.712854183820644 1.03208133853216  1.18865282296769 1.19194511623316  C 1.6857567783398 1.35940970337101  2.32110421063171 1.50328216771137  3.05322961047203 1.62168698484774  C 4.520343217849 1.85899017817482  6.42524039164627 2  8.50006780334015 2  C 10.5748952150341 2  12.4803649503706 1.85849661912048  13.9469210636172 1.62168698484774  C 14.6790464634575 1.50377572676571  15.3149664572888 1.35940970337101  15.8120704126609 1.1924386752875  C 16.2872964902687 1.03208133853216  16.7164313639639 0.8249346034253  16.9335828614428 0.542421400720596  C 17.0606764557555 0.376980405705543  16.9999397303643 0.158481812348848  16.7979309788587 0.054439563693796  C 16.5959222273531 -0.0496520408666897  16.3291386848633 4.93559054340852E-05  16.2020300231418 0.165490350920488  C 16.1380990070578 0.24900054291496  15.9313138869217 0.387197078130398  15.4831639431586 0.537683233798924  C 15.0569069445688 0.681111494990376  14.4808949686377 0.814619219189576  13.779868700826 0.927792310349933  C 12.3801516135865 1.15374364542718  10.5328571441233 1.29243373969695  8.50006780334015 1.29243373969695  C 6.46729352996595 1.29243373969695  4.61999906050274 1.15374364542718  3.22085453480258 0.927792310349933  C 2.519828266991 0.814619219189576  1.94324372952054 0.681111494990376  1.51698673093061 0.537683233798924  Z " fill-rule="nonzero" fill="#ffffff" stroke="none" transform="matrix(1 0 0 1 220 714 )" />
  </g>
</svg>