<?xml version="1.0" encoding="utf-8"?>
<svg version="1.1" xmlns:xlink="http://www.w3.org/1999/xlink" width="172px" height="980px" xmlns="http://www.w3.org/2000/svg">
  <defs>
    <filter x="30px" y="63px" width="172px" height="980px" filterUnits="userSpaceOnUse" id="filter214">
      <feOffset dx="1" dy="1" in="SourceAlpha" result="shadowOffsetInner" />
      <feGaussianBlur stdDeviation="1.5" in="shadowOffsetInner" result="shadowGaussian" />
      <feComposite in2="shadowGaussian" operator="atop" in="SourceAlpha" result="shadowComposite" />
      <feColorMatrix type="matrix" values="0 0 0 0 0.192156862745098  0 0 0 0 0.541176470588235  0 0 0 0 1  0 0 0 0.501960784313725 0  " in="shadowComposite" />
    </filter>
    <g id="widget215">
      <path d="M 32.5 70  A 4.5 4.5 0 0 1 37 65.5 L 193 65.5  A 4.5 4.5 0 0 1 197.5 70 L 197.5 1034  A 4.5 4.5 0 0 1 193 1038.5 L 37 1038.5  A 4.5 4.5 0 0 1 32.5 1034 L 32.5 70  Z " fill-rule="nonzero" fill="#318aff" stroke="none" fill-opacity="0.0509803921568627" />
      <path d="M 32.5 70  A 4.5 4.5 0 0 1 37 65.5 L 193 65.5  A 4.5 4.5 0 0 1 197.5 70 L 197.5 1034  A 4.5 4.5 0 0 1 193 1038.5 L 37 1038.5  A 4.5 4.5 0 0 1 32.5 1034 L 32.5 70  Z " stroke-width="1" stroke="#318aff" fill="none" />
    </g>
  </defs>
  <g transform="matrix(1 0 0 1 -30 -63 )">
    <use xlink:href="#widget215" filter="url(#filter214)" />
    <use xlink:href="#widget215" />
  </g>
</svg>