<?xml version="1.0" encoding="utf-8"?>
<svg version="1.1" xmlns:xlink="http://www.w3.org/1999/xlink" width="21px" height="22px" xmlns="http://www.w3.org/2000/svg">
  <g transform="matrix(1 0 0 1 -48 -172 )">
    <path d="M 21 14.0948743010489  C 21 16.9002635205377  18.7695651525915 19.1744678646547  16.0181927477408 19.1744678646547  C 13.266805438946 19.1744678646547  11.0363705915375 16.9002635205377  11.0363705915375 14.0948743010489  C 11.0363705915375 10.0480401739305  14.5214045476901 6.39686123899551  15.6614593942044 5.31067862582501  C 15.6647904257063 5.31407503600526  15.6684866038383 5.31709913276531  15.6719443188649 5.32042715884797  C 15.7627018863425 5.21886917569532  15.8908087376856 5.16040077225678  16.0255478441445 5.15902549207193  C 16.1602869506034 5.15765021188709  16.2895115977525 5.21349722491806  16.3822439378207 5.31318604273661  C 17.5296911405988 6.39380674930321  21 10.0004448420086  21 14.0948743010489  Z M 19.5575143202062 14.080490845856  C 19.5575143202062 11.1790675586532  17.2484388118576 8.3417125726581  16.360595959044 7.35787056064599  C 16.3600817729732 7.35836444579524  16.3595228750702 7.35875955391464  16.3590086889994 7.3592534390639  C 16.2810387055428 7.25441301922698  16.1594225218467 7.19282174199854  16.0303767220265 7.19282174199854  C 15.9013234702343 7.19282174199854  15.7797147385103 7.25440542099392  15.7017447550537 7.3592534390639  C 15.698093288754 7.35583423418445  15.6941810034329 7.35271136039456  15.6906264127697 7.34918578025219  C 14.8137752187154 8.33744996390839  12.478982954856 11.2361150925085  12.478982954856 14.080490845856  C 12.478982954856 16.0707644167838  14.0635553855402 17.6841732258989  16.0183119792935 17.6841732258989  C 17.9730685730467 17.6841732258989  19.5575143202062 16.0707340238515  19.5575143202062 14.080490845856  Z M 17.2222898419685 15.7249080441112  C 17.2222898419685 16.1358508812223  16.8955655798379 16.4689878117434  16.4925331240157 16.4689878117434  C 16.4925331240157 16.4689878117434  16.3952327250868 16.4689878117434  16.3952327250868 16.4689878117434  C 15.5521613202907 16.4689878117434  14.7583623546244 16.063819631762  14.2531335542429 15.375617270093  C 13.7478898499173 14.6873693190256  13.5903402570434 13.7966208585313  13.8279389335731 12.9718098645788  C 13.8279389335731 12.9718098645788  13.8394000665709 12.9718098645788  13.8394000665709 12.9718098645788  C 13.9626184242557 12.6418641919452  14.2993283289201 12.4486943127225  14.6398759991853 12.5125802563368  C 14.9804162174784 12.576466199951  15.2276502938561 12.8791874035111  15.2276204859679 13.2322393028967  C 15.2276204859679 13.2998027913145  15.1789665605175 13.4575952973845  15.1789665605175 13.7406902649366  C 15.1789665605175 14.4256025916882  15.7235045134111 14.980828276479  16.3952327250868 14.980828276479  C 16.4280214020637 14.980828276479  16.4604002205784 14.9791186740393  16.4925331240157 14.9765124800978  C 16.4925331240157 14.9765124800978  16.4925331240157 14.980828276479  16.4925331240157 14.980828276479  C 16.8955655798379 14.980828276479  17.2222898419685 15.313965207  17.2222898419685 15.7249080441112  Z M 5.07692422338031 16.1686904445312  C 5.72110994639548 17.0295474561461  6.72211099463955 17.5349439284937  7.78408407811654 17.5355061977406  C 8.02065438250476 17.5355061977406  8.25707564745217 17.5103332515948  8.48902572917546 17.4603900656556  C 8.48902572917546 17.4603900656556  8.48951755933012 17.464842630232  8.48951755933012 17.464842630232  C 8.51352781324364 17.4623656062527  8.53785104998286 17.4611042995638  8.5624947215198 17.4611042995638  C 8.9463905131428 17.4610967013307  9.26457481531529 17.7645169423329  9.2902319550497 18.1550661218964  C 9.31589654675616 18.5456153014599  9.04025555296117 18.8896025087984  8.65979512044871 18.9418175664241  C 8.65979512044871 18.9418175664241  8.65979512044871 18.9432840254057  8.65979512044871 18.9432840254057  C 8.37085235656196 18.9968211755848  8.07776629622086 19.0237265188695  7.78408407811654 19.0236733312381  C 5.09719358732966 19.0236733312381  2.91903432378322 16.802762993842  2.91903432378322 14.0631288833015  C 2.91892999617465 13.6830120777368  2.96157018018868 13.3041261859288  3.04612770692884 12.9339098780484  C 3.07574929578864 12.6643853547511  3.24692109355206 12.4326772374206  3.49281381496257 12.3292576871669  C 3.73869908440104 12.2258457351463  4.02030910780023 12.2671193371578  4.2276751337629 12.4369702391026  C 4.43504115972557 12.6068211410474  4.53527018366627 12.8783136067085  4.48923190040191 13.145429490124  C 4.48923190040191 13.145429490124  4.49895672391437 13.145429490124  4.49895672391437 13.145429490124  C 4.21903084619627 14.1899509913967  4.43273850036515 15.3078334329162  5.07692422338031 16.1686904445312  Z M 11.9923542766868 6.54791411233642  C 11.7429814843335 6.54791411233642  11.5109196230296 6.41784755872225  11.3772685044886 6.2031594834583  C 11.3743249755327 6.20704218055474  11.3710684637511 6.2105905553963  11.3683186860683 6.21470879771777  C 10.119062641277 4.33436646278075  8.78056923130424 2.95372192539226  8.15115331687275 2.33393405424448  C 8.14774776565038 2.33792312660383  8.1438578362454 2.316693663419  8.14032560149834 2.3205839587485  C 8.05837626497225 2.20292531973019  7.92560447913199 2.13302917376123  7.78406172220042 2.13302917376123  C 7.64252641724088 2.13302917376123  7.50975463140062 2.20292531973019  7.42779784290249 2.3205839587485  C 7.42565167495492 2.31822850649822  7.42324468798593 2.31612379593909  7.42112832792651 2.31369236135815  C 6.07723223822464 3.66742395722886  1.45951343590559 8.70822854103564  1.45951343590559 14.0631288833015  C 1.45951343590559 17.6246486680643  4.29112867568521 20.5118328665025  7.78408407811654 20.5118328665025  C 9.06682183328448 20.5138008088664  10.3195355931025 20.1161396831537  11.3744963708896 19.3720903084537  C 11.5706397269597 19.1859639912828  11.8511170506088 19.1245322769487  12.104923766326 19.212117109494  C 12.3587379340153 19.2997019420393  12.5449701672719 19.5221858044284  12.5899353665625 19.7915127736659  C 12.6349080178251 20.0608549393696  12.5313554143545 20.3336315064188  12.3202634023717 20.5019171723521  C 12.3219400960808 20.5042422316701  12.3234453944329 20.5066964609503  12.325129540114 20.508983529103  C 11.0029559489093 21.4806759664434  9.41390488302888 22.0024238363479  7.78408407811654 21.9999924017669  C 3.48505631206872 21.9999924017669  0 18.4465343422866  0 14.0631288833015  C 0 7.49187299898805  5.88184898330261 1.58736966439986  7.41962302957439 0.15593093896892  C 7.42156799427689 0.157860890167541  7.42372906616854 0.159524903208872  7.42568148284308 0.161432059708297  C 7.51345080953256 0.0631945044052483  7.6363189245314 0.00512120908610525  7.76656449185003 0.000326724021813836  C 7.89681005916866 -0.00447535927554301  8.02347122793595 0.0443888775682891  8.11797713734978 0.135917193074556  C 8.12004133360492 0.133607330222663  8.1223738008535 0.131525414362733  8.12442309316455 0.129169962112447  C 8.89570219932535 0.835273760883605  10.8427236461009 2.72948287116505  12.552034636766 5.31407503600526  C 12.552034636766 5.31407503600526  12.5466841208412 5.32067030230606  12.5466841208412 5.32067030230606  C 12.7319997615369 5.5412318117296  12.7743940304736 5.85162723068581  12.6552444495228 6.11542268625169  C 12.5360874166 6.37921814181757  12.2771984559514 6.54812686286225  11.9923542766868 6.54790651410336  Z " fill-rule="nonzero" fill="#ffffff" stroke="none" transform="matrix(1 0 0 1 48 172 )" />
  </g>
</svg>