<?xml version="1.0" encoding="utf-8"?>
<svg version="1.1" xmlns:xlink="http://www.w3.org/1999/xlink" width="25px" height="21px" xmlns="http://www.w3.org/2000/svg">
  <g transform="matrix(1 0 0 1 -47 -332 )">
    <path d="M 23.0771169416749 12.3632466626545  C 22.3661684339429 12.3632466626545  21.7519549024011 12.7403469671605  21.4196519030164 13.2958336307795  C 21.4196519030164 13.2958336307795  17.9006817210815 13.2958336307795  17.9006817210815 13.2958336307795  L 15.1178161903411 7.89613175452871  L 12.9739279629113 15.5202970340327  L 11.533693541637 0.155476251034758  L 9.64812407178505 0  L 5.99219740312036 13.2958617601215  L 0 13.2958617601215  L 0 15.1610886457211  L 7.47002615054981 15.1610886457211  L 10.1103430449422 5.55685926913824  L 11.5423871335999 20.839697912141  L 13.4276768253745 21.0000004136668  L 15.647842110074 13.0989067259384  L 16.7121145041937 15.1608172803039  C 16.7121145041937 15.1608172803039  21.419762790669 15.1608172803039  21.419762790669 15.1608172803039  C 21.7526526416305 15.7143779113278  22.3662793215955 16.0931593576866  23.0772278293275 16.0931593576866  C 24.1387877408685 16.0931593576866  24.9999992536408 15.2560268297191  24.9999992536408 14.2280681547955  C 24.9998593646022 13.1962044653321  24.1386478518298 12.3632483173217  23.0770879402888 12.3632483173217  Z " fill-rule="nonzero" fill="#ffffff" stroke="none" transform="matrix(1 0 0 1 47 332 )" />
  </g>
</svg>