<?xml version="1.0" encoding="utf-8"?>
<svg version="1.1" xmlns:xlink="http://www.w3.org/1999/xlink" width="141px" height="92px" xmlns="http://www.w3.org/2000/svg">
  <defs>
    <linearGradient gradientUnits="userSpaceOnUse" x1="29.1698661446571" y1="120.171795368195" x2="144.73041343689" y2="4.43326935172081" id="LinearGradient5025">
      <stop id="Stop5026" stop-color="#4e95ff" offset="0" />
      <stop id="Stop5027" stop-color="#4d94fe" stop-opacity="0.976470588235294" offset="0.1" />
      <stop id="Stop5028" stop-color="#4d94fe" stop-opacity="0.917647058823529" offset="0.22" />
      <stop id="Stop5029" stop-color="#4d93fc" stop-opacity="0.815686274509804" offset="0.36" />
      <stop id="Stop5030" stop-color="#4d92fb" stop-opacity="0.670588235294118" offset="0.51" />
      <stop id="Stop5031" stop-color="#4c91f9" stop-opacity="0.486274509803922" offset="0.67" />
      <stop id="Stop5032" stop-color="#4c8ff6" stop-opacity="0.262745098039216" offset="0.83" />
      <stop id="Stop5033" stop-color="#4c8ef4" stop-opacity="0" offset="1" />
    </linearGradient>
  </defs>
  <g transform="matrix(1 0 0 1 -78 0 )">
    <path d="M 42.7976708045907 86.0262874736326  C 28.7352098043532 87.0881868834296  14.6857765954793 89.0984754863316  1.04216214574877 92  C 1.04216214574877 92  0 87.0921686233567  0 87.0921686233567  C 13.8630379310307 84.1424956853387  28.1359619832972 82.1010269959304  42.4209046318216 81.0221592482901  C 51.3255529371959 80.3496740033665  57.643787095186 80.2443110391409  70.2321810261344 80.0345652312871  C 70.2321810261344 80.0345652312871  71.6281119289117 80.0114711397098  71.6281119289117 80.0114711397098  C 88.4213019766387 79.7314629365265  106.05426467893 79.4052665501886  124.066011944203 79.0419480962223  C 130.078612893536 63.5898568171649  133.861504292821 47.4733662881128  135.313583141475 31.1119681247736  C 136.214457972435 20.9570611296955  136.214457972435 10.6386577674557  135.313583141475 0.443627085419641  C 135.313583141475 0.443627085419641  140.304022357153 0  140.304022357153 0  C 141.231992547616 10.4890668612703  141.231992547616 21.1076321564784  140.304022357153 31.5575554513881  C 138.760810132293 48.9516944367503  134.657178179436 66.0738499563207  128.10945917076 82.4503174738457  C 128.10945917076 82.4503174738457  127.493177359587 83.9919246585558  127.493177359587 83.9919246585558  C 127.493177359587 83.9919246585558  125.834733402666 84.025064986257  125.834733402666 84.025064986257  C 107.237744721137 84.4024114162743  89.0275835817642 84.740614279931  71.7122726843874 85.0296885986406  C 71.7122726843874 85.0296885986406  70.3153631681743 85.0517413120832  70.3153631681743 85.0517413120832  C 57.8251669791709 85.2605069993395  51.5560469829881 85.3648898429676  42.7976708045907 86.0262874736326  Z " fill-rule="nonzero" fill="url(#LinearGradient5025)" stroke="none" transform="matrix(1 0 0 1 78 0 )" />
  </g>
</svg>