<?xml version="1.0" encoding="utf-8"?>
<svg version="1.1" xmlns:xlink="http://www.w3.org/1999/xlink" width="12px" height="4px" xmlns="http://www.w3.org/2000/svg">
  <g transform="matrix(1 0 0 1 -124 -1012 )">
    <path d="M 12 0.500658475324146  C 12 0.22450614350689  11.7564882456969 0  11.4551040248882 0  C 11.1537272112812 0  10.9102006425748 0.22450614350689  10.9102006425748 0.499409408729889  C 10.9102006425748 0.499409408729889  10.9102006425748 2.99879166383816  10.9102006425748 2.99879166383816  L 1.08981417182856 2.99879166383816  C 1.08981417182856 2.99879166383816  1.08981417182856 0.500658475324146  1.08981417182856 0.500658475324146  C 1.08981417182856 0.22450614350689  0.844939492421507 0.00130337383748557  0.544910789515106 0.00130337383748557  C 0.243533975908077 0.00130337383748557  0 0.22564659561469  0 0.500658475324146  C 0 0.500658475324146  0 3.50064489851334  0 3.50064489851334  C 0 3.77690584481705  0.244882086608705 4  0.544910789515106 4  C 0.544910789515106 4  11.4551040248882 4  11.4551040248882 4  C 11.7564882456969 4  12 3.77560247097957  12 3.50064489851334  C 12 3.50064489851334  12 0.500658475324146  12 0.500658475324146  Z " fill-rule="nonzero" fill="#e9e9eb" stroke="none" transform="matrix(1 0 0 1 124 1012 )" />
  </g>
</svg>