<?xml version="1.0" encoding="utf-8"?>
<svg version="1.1" xmlns:xlink="http://www.w3.org/1999/xlink" width="77px" height="61px" xmlns="http://www.w3.org/2000/svg">
  <defs>
    <filter x="47px" y="79px" width="77px" height="61px" filterUnits="userSpaceOnUse" id="filter2590">
      <feOffset dx="0" dy="0" in="SourceAlpha" result="shadowOffsetInner" />
      <feGaussianBlur stdDeviation="2.5" in="shadowOffsetInner" result="shadowGaussian" />
      <feComposite in2="shadowGaussian" operator="atop" in="SourceAlpha" result="shadowComposite" />
      <feColorMatrix type="matrix" values="0 0 0 0 0.305882352941176  0 0 0 0 0.584313725490196  0 0 0 0 1  0 0 0 1 0  " in="shadowComposite" />
    </filter>
    <g id="widget2591">
      <path d="M 49.4819584767403 36.7403241028216  C 53.7899223111369 33.8949497077963  56.1141827581397 28.5672696052168  55.207520874078 23.2845577043353  C 54.6105398934732 19.8045676574168  52.7344071420234 16.7727962554894  49.9259624850188 14.7474284510181  C 47.1162208310915 12.7211460390546  43.7096774873104 11.9462295978642  40.3354713285678 12.5609372933446  C 37.8005251755757 13.0240335535416  35.5221326432718 14.2186328859678  33.6905593655077 16.0353482345609  C 32.6818924881787 15.7694718365901  31.6255285490203 15.6278296229711  30.537628511158 15.6278296229711  C 26.2081421572395 15.6278296229711  22.2041047561299 17.9100801850736  19.8751961010382 21.5787537576246  C 18.5068643476726 20.7093278755775  16.9285678660187 20.2447987303096  15.2831422568771 20.2447987303096  C 10.445398094929 20.2447987303096  6.50855753217583 24.3034609375175  6.50855753217583 29.291913121255  C 6.50855753217583 29.7272967744395  6.5377385324235 30.159082971488  6.59662600740734 30.5846193506735  C 2.6463710632471 32.2087793352507  0 36.1504632442114  0 40.6566733842495  C 0 46.5530869123703  4.52413888912612 51  10.5232589182772 51  C 10.5232589182772 51  39.5008499941641 51  39.5008499941641 51  C 45.3030267626604 51  50.0246334332556 46.1328857435557  50.0246334332556 40.1504991111719  C 50.0246334332556 38.969832299543  49.8342342850148 37.8213291847216  49.4819584767403 36.7403241028216  Z M 46.9057258599437 40.1504991111719  C 46.9057945244866 44.3596752246729  43.5839336356623 47.7848193089782  39.500785144318 47.7848193089782  C 39.500785144318 47.7848193089782  10.5231969294537 47.7848193089782  10.5231969294537 47.7848193089782  C 6.30153965718971 47.7848193089782  3.11818659561082 44.7204878803299  3.11818659561082 40.6566124104167  C 3.11818659561082 37.1026915912153  5.45599064687579 34.0485732795628  8.80259032148784 33.2294203226682  C 9.22899522593538 33.1247282517322  9.59357057046798 32.8400719132558  9.80575926700885 32.4443212513983  C 10.0189283406354 32.0494242232001  10.0592325200058 31.5798952236417  9.91901761592835 31.1511882051501  C 9.725477064847 30.5573335604908  9.62674412778665 29.9321383657668  9.62674412778665 29.291913121255  C 9.62674412778665 26.0763056134035  12.1643052554566 23.4598574736658  15.283077407031 23.4598574736658  C 16.781091686523 23.4598574736658  18.1943090701534 24.0580107735383  19.2619244576156 25.1447473957225  C 19.6244083946105 25.5143097963877  20.1399932815787 25.6737258822712  20.6404643397016 25.5817773423927  C 21.141850925064 25.4859874510472  21.5661005258019 25.1439547358959  21.7776350018362 24.6657064782455  C 23.3334247721857 21.1280656724047  26.7725399048603 18.84294934016  30.5375617539634 18.84294934016  C 35.8394047934228 18.84294934016  40.1526023918719 23.2898624277897  40.1526023918719 28.755770209351  C 40.1526023918719 29.2565482982248  40.0218040669223 30.3030117038376  39.9332115477136 30.8845496342691  C 39.8064072103464 31.7212630550132  40.3304321140538 32.5160874526164  41.1321478735912 32.7019356950232  C 44.4776293651946 33.4758765548888  46.9057258599437 36.6082242940374  46.9057258599437 40.1504991111719  Z M 52.1368997332559 23.8450596624471  C 52.8049408864331 27.7410741706326  51.1534975930402 31.6693133494586  48.0531752226901 33.8603165707599  C 46.8529304557993 32.1283243628571  45.1707979263991 30.757876496605  43.1918056895918 29.9891488994448  C 43.2366283773589 29.561417462278  43.2709110577813 29.1125585920425  43.2709110577813 28.7557092355181  C 43.2709110577813 23.9251183049274  40.7268706675435 19.696278130345  36.9479137309158 17.4167104168862  C 38.1082415101645 16.5651498678527  39.4388230236881 15.9901971113647  40.8791266621687 15.7271255097032  C 43.4334400309731 15.259944002708  46.0124802646375 15.8485548977456  48.1384909173207 17.3817114368529  C 50.2647609693885 18.9148984628765  51.6841944015054 21.2101059644514  52.1368997332559 23.8450596624471  Z M 41.5011015364119 6.13115516271276  C 41.5062094154689 7.01585498987876  42.2035550697036 7.72903542534858  43.0602291664887 7.72903542534858  C 43.0602291664887 7.72903542534858  43.0708950588289 7.72903542534858  43.0708950588289 7.72903542534858  C 43.9316241783456 7.72327339814789  44.6249148098488 6.99893475127389  44.6198107454886 6.1115292102768  C 44.6198107454886 6.1115292102768  44.5923983340593 1.59756015001359  44.5923983340593 1.59756015001359  C 44.5874239693913 0.713195678927965  43.8899371713738 0  43.0332745186792 0  C 43.0332745186792 0  43.0231960896511 0  43.0231960896511 0  C 42.1620092065146 0.0057467837423609  41.4691763386312 0.729932996034459  41.4742804029914 1.61749859334263  C 41.4742804029914 1.61749859334263  41.5011015364119 6.13115516271276  41.5011015364119 6.13115516271276  Z M 66.999977111819 27.0970990354029  C 66.9947509771602 26.2129174858158  66.2972641791427 25.5000114325937  65.4407884465928 25.5000114325937  C 65.4407884465928 25.5000114325937  65.430114924859 25.5000114325937  65.430114924859 25.5000114325937  C 65.430114924859 25.5000114325937  61.0511786559172 25.5286996209311  61.0511786559172 25.5286996209311  C 60.1904457217036 25.5345835957973  59.4971550902005 26.2588002950057  59.5022629692575 27.1468536829764  C 59.5072335192286 28.031218154062  60.2047165025493 28.7439717727021  61.0612570849453 28.7439717727021  C 61.0612570849453 28.7439717727021  61.0714652136657 28.7439717727021  61.0714652136657 28.7439717727021  C 61.0714652136657 28.7439717727021  65.450866875621 28.7152530974483  65.450866875621 28.7152530974483  C 66.3113938162056 28.709369122582  67.004882811944 27.9851524233737  66.999977111819 27.0970990354029  Z M 55.4571355612302 13.0168996151027  C 55.7606671733951 13.3262808427839  56.1566517779619 13.4805446397948  56.5523006892075 13.4805446397948  C 56.9544956202156 13.4805446397948  57.356366301993 13.3208541716638  57.6620532178676 13.0026012513086  C 57.6620532178676 13.0026012513086  60.7388923145246 9.79068266034218  60.7388923145246 9.79068266034218  C 61.3435255769729 9.15905472625663  61.3374373208302 8.1408222052352  60.7242324346021 7.51705989558228  C 60.1131828520837 6.89375488967547  59.1269616509097 6.9000656813714  58.5199022412767 7.53135825937647  C 58.5199022412767 7.53135825937647  55.4432653235518 10.7430939288445  55.4432653235518 10.7430939288445  C 54.8378462335562 11.3748438105955  54.8438696398528 12.393076331617  55.4571355612302 13.0168996151027  Z M 23.3580219373536 9.79043876501094  C 23.3580219373536 9.79043876501094  26.4336803853413 13.0024488167266  26.4336803853413 13.0024488167266  C 26.7382553170896 13.320945632413  27.1410415261065 13.4806056136277  27.5434348213498 13.4806056136277  C 27.9388910904055 13.4806056136277  28.3350702445107 13.3263418166167  28.6384664349381 13.0169910758519  C 29.2517380783607 12.393228766199  29.2572999063407 11.3754230620073  28.6525312221548 10.7436122064234  C 28.6525312221548 10.7436122064234  25.5770081959046 7.53187653695533  25.5770081959046 7.53187653695533  C 24.9721765692211 6.89951691687605  23.9830733645911 6.89375488967547  23.3720905392672 7.51705989558228  C 22.758820803193 8.1408222052352  22.7527993042448 9.15859742251052  23.3580219373536 9.79043876501094  Z M 59.0230531239236 42.5613129997557  C 59.0230531239236 42.5613129997557  55.9463513563525 39.3492724611236  55.9463513563525 39.3492724611236  C 55.3392957614163 38.7178579354529  54.3524146176905 38.7114556830078  53.7414413291087 39.3350960449951  C 53.128362327876 39.9590412761464  53.1226021356609 40.9774262317499  53.7273689124983 41.6089017312534  C 53.7273689124983 41.6089017312534  56.8042003797616 44.8209422698854  56.8042003797616 44.8209422698854  C 57.109891110333 45.1391951902406  57.5117617921104 45.2985807892077  57.9133005952635 45.2985807892077  C 58.3094148995226 45.2985807892077  58.705521574388 45.1443169921967  59.0089883367068 44.8349357645155  C 59.622258072781 44.2112954025282  59.6279496004532 43.1928494730919  59.0230531239236 42.5613129997557  Z " fill-rule="nonzero" fill="#ffffff" stroke="none" transform="matrix(1 0 0 1 52 84 )" />
    </g>
  </defs>
  <g transform="matrix(1 0 0 1 -47 -79 )">
    <use xlink:href="#widget2591" filter="url(#filter2590)" />
    <use xlink:href="#widget2591" />
  </g>
</svg>