<?xml version="1.0" encoding="utf-8"?>
<svg version="1.1" xmlns:xlink="http://www.w3.org/1999/xlink" width="23px" height="23px" xmlns="http://www.w3.org/2000/svg">
  <g transform="matrix(1 0 0 1 -47 -293 )">
    <path d="M 0.0430430162767091 22.1329173187379  C 0.0430430162767091 22.1329173187379  8.51339201108622 0.410704728506231  8.51339201108622 0.410704728506231  C 8.63221964148256 0.105947708669611  8.96619316463117 -0.061985628487386  9.28793567529608 0.0212272321318836  C 9.28793567529608 0.0212272321318836  9.36093736891345 0.0446555835047154  9.36093736891345 0.0446555835047154  C 9.36093736891345 0.0446555835047154  22.5872206258329 5.15571476562308  22.5872206258329 5.15571476562308  C 22.8317101858701 5.25009906019812  22.9944572218726 5.47920391324654  23 5.73678009291502  C 23 5.73678009291502  22.9967711972073 5.81388710906454  22.9967711972073 5.81388710906454  C 22.9967711972073 5.81388710906454  22.8013901901217 7.7304664596426  22.8013901901217 7.7304664596426  C 22.776428469484 7.97351675993675  22.6123822247387 8.18136422853491  22.3786860911799 8.26600932427671  C 22.3786860911799 8.26600932427671  22.2981735872567 8.28916630478422  22.2981735872567 8.28916630478422  L 5.35910537428543 12.1226039148852  L 5.340324504708 12.1254985374487  C 5.340324504708 12.1254985374487  1.26096280492717 22.589234966857  1.26096280492717 22.589234966857  C 1.14298850098318 22.8918813244078  0.812597411409306 23.0599729612362  0.492315549626799 22.9802803837866  C 0.492315549626799 22.9802803837866  0.419851989808214 22.9576435307709  0.419851989808214 22.9576435307709  C 0.110863250174392 22.8422807606906  -0.061047435658751 22.5182865617344  0.0199647639347408 22.2039637188952  C 0.0199647639347408 22.2039637188952  0.0430430162767091 22.1329173187379  0.0430430162767091 22.1329173187379  Z M 21.6505756861791 6.1665033962326  L 9.49645483469766 1.47018935328193  L 5.9001758460817 10.6878510737667  L 21.5501906698295 7.14650650978721  L 21.6505756861791 6.1665033962326  Z " fill-rule="nonzero" fill="#ffffff" stroke="none" transform="matrix(1 0 0 1 47 293 )" />
  </g>
</svg>