<?xml version="1.0" encoding="utf-8"?>
<svg version="1.1" xmlns:xlink="http://www.w3.org/1999/xlink" width="23px" height="20px" xmlns="http://www.w3.org/2000/svg">
  <g transform="matrix(1 0 0 1 -46 -253 )">
    <path d="M 12.3454480080774 12.622745280511  C 12.214046211435 12.3315394728653  11.9074445082933 12.1374022677681  11.6008428051516 12.1374022677681  C 11.2942411020099 12.1374022677681  10.9876393988683 12.3315385197172  10.8562376022258 12.622745280511  C 10.6810376957266 12.9139510881568  10.7248358055834 13.3022274046473  10.8562376022258 13.5934341654412  C 10.9438394222434 13.7390361161159  11.0314375087251 13.8361047186645  11.1628393053675 13.9331733212131  C 11.4256428986524 14.1273124326065  11.7760427116509 14.1273124326065  12.0388463049357 13.9331733212131  C 12.2578480548278 13.8361047186645  12.3892479847022 13.5934341654412  12.433049828095 13.3507607527735  C 12.4768498047198 13.108089246402  12.4768498047198 12.8654177400306  12.3454480080774 12.622745280511  Z M 13.4842548673945 4.37189643064146  C 13.5280567107873 4.51749933446434  13.6594585074297 4.66310176171317  13.7908565705362 4.71163749270961  C 14.0536601638211 4.90577517438083  14.4040637103555 4.90577517438083  14.6668635701044 4.71163749270961  C 14.8858653199965 4.56603411231268  15.0172689834069 4.37189643064146  15.0610670932637 4.12922444769595  C 15.1486689132813 3.88655294132449  15.1048670698885 3.64388072009195  14.9734652732461 3.40120873714644  C 14.8858653199965 3.25560535674951  14.7982634999789 3.11000340607474  14.6668635701044 3.0129343269521  C 14.4040637103555 2.81879640699386  14.0536601638211 2.81879640699386  13.7908565705362 3.0129343269521  C 13.5718566874121 3.158537469062  13.4404548907697 3.3526749124462  13.3966530473769 3.59534689539171  C 13.3090549608953 3.88655246475044  13.3528568042881 4.12922444769595  13.4842548673945 4.37189643064146  Z M 10.8562264016181 1.45984276249389  C 10.9438263548677 1.60544614289082  11.0314244413494 1.75104857013964  11.1628281047598 1.84811753011877  C 11.4256316980446 1.99372079137218  11.7760352445791 1.99372079137218  12.03883323756 1.84811753011877  C 12.2578331206841 1.70251450715238  12.3892386508625 1.50837658719413  12.4330386274873 1.26570460424862  C 12.5206404475049 0.974498915746378  12.4768386041121 0.731826932800867  12.3454349407017 0.489154949855355  C 12.0826369477208 0.00381102771234019  11.5570316279191 -0.141791770929155  11.1628281047598 0.149413828215452  C 10.9438263548677 0.295017000111232  10.8124264249933 0.489154949855355  10.7686264483684 0.731826813657354  C 10.6810246283509 0.974498915746378  10.7248264717436 1.21717077954838  10.8562264016181 1.45984276249389  Z M 13.4842548673945 10.6813846673165  C 13.5280567107873 10.8269875711394  13.6594585074297 10.9725895218142  13.7908565705362 11.0211247762366  C 14.0536601638211 11.2152619813337  14.4040637103555 11.2152619813337  14.6668635701044 11.0211247762366  C 14.8858653199965 10.8755209192656  15.0172689834069 10.6813846673165  15.0610670932637 10.4387112546489  C 15.1048670698885 10.1960397482774  15.1048670698885 9.90483394063165  14.9734652732461 9.71069482923827  C 14.8858653199965 9.5650919254154  14.7982634999789 9.41948997474062  14.6668635701044 9.32242041904394  C 14.4040637103555 9.12828321394677  14.0536601638211 9.12828321394677  13.7908565705362 9.32242041904394  C 13.5718566874121 9.46802427601492  13.4404548907697 9.66216052796398  13.3966530473769 9.90483394063165  C 13.3090549608953 10.1960397482774  13.3528568042881 10.4387112546489  13.4842548673945 10.6813846673165  Z M 19.8791559936238 13.9331790401017  C 20.1419595869086 14.127317198347  20.4923631334431 14.127317198347  20.755162993192 13.9331790401017  C 20.9741684766199 13.7875761362788  21.1055628061905 13.5934398843298  21.1931664929761 13.3507664716621  C 21.2369646028329 13.1080959184387  21.2369646028329 12.8654225057711  21.1055628061905 12.6227519525477  C 21.0179628529409 12.4771471424286  20.9303628996913 12.3800804461763  20.8427666799775 12.2830108904796  C 20.4923631334431 12.0403393841081  20.054359633659 12.1374079866567  19.7477541969814 12.4286137943024  C 19.4411487603037 12.7198205550963  19.3973543839828 13.2051626146911  19.5725542904821 13.5934408374779  C 19.6601542437317 13.7390437413007  19.7477541969814 13.8361123438493  19.8791559936238 13.933181899546  Z M 15.5428724364406 13.1080959184387  C 15.5428724364406 13.4478360273588  15.7180742097078 13.7875770894269  15.9808740694568 13.9331790401017  C 16.2436776627416 14.127317198347  16.5940774757401 14.127317198347  16.856879202257 13.9331790401017  C 17.0758809521491 13.7875761362788  17.2072846155594 13.5934398843298  17.2510845921842 13.3507664716621  C 17.2948845688091 13.1080959184387  17.2948845688091 12.8168891576449  17.1634809053987 12.6227519525477  C 17.0320809755242 12.3800804461763  16.856879202257 12.2344765892053  16.6378811859009 12.1374079866567  C 16.4188775692409 12.04033843096  16.1998758193488 12.1374079866567  15.9808740694568 12.2830108904796  C 15.7180742097078 12.4771471424286  15.5428724364406 12.7683548563706  15.5428724364406 13.1080959184387  Z M 17.8643085329152 10.6813846673165  C 17.90810850954 10.8269875711394  18.0395084394145 10.9725895218142  18.1709102360569 11.0211247762366  C 18.4337100958058 11.2152619813337  18.7841117755723 11.2152619813337  19.0469135020892 11.0211247762366  C 19.2659189855171 10.8755209192656  19.3973170486236 10.6813846673165  19.4411226255523 10.4387112546489  C 19.4849170018733 10.1960397482774  19.4849170018733 9.90483394063165  19.3535189387668 9.71069482923827  C 19.2221171421244 9.46802427601492  19.0469172356251 9.32242041904394  18.8279136189651 9.22535086334725  C 18.608911869073 9.17681560892486  18.3899138527169 9.22535086334725  18.1709102360569 9.37095376717013  C 17.9519047526289 9.51655762414111  17.8205066895224 9.71069578238638  17.7767067128976 9.95336728875784  C 17.6891067596479 10.1960397482774  17.7329067362728 10.4387112546489  17.8643085329152 10.6813846673165  Z M 15.6304630558504 7.38102930511024  C 15.6304630558504 7.38102930511024  16.0246628454738 7.67223463618194  16.0246628454738 7.67223463618194  C 16.2874627052227 7.81783849315292  16.5940681419003 7.81783849315292  16.8568680016493 7.67223463618194  C 17.0320697749165 7.52663125578501  17.2072734149517 7.33249309753974  17.2510715248085 7.08982206774233  C 17.2948752349693 6.84715008479682  17.2948752349693 6.55594427715107  17.1634734383269 6.3618061189058  C 17.1196715949341 6.21620226193482  16.9882716650596 6.07060031126004  16.900669845042 5.97353075556336  C 16.6378718520611 5.82792737516643  16.3312682821514 5.82792737516643  16.0684646888666 5.97353075556336  C 15.8494629389745 6.07059983468599  15.6742592989394 6.31327229420555  15.5866612124577 6.55594427715107  C 15.499063125976 6.79861626009658  15.5428612358329 7.08982206774233  15.6304630558504 7.38102930511024  Z M 4.24237952853558 10.6813846673165  C 4.32997948178522 10.8269875711394  4.46138127842763 10.9725895218142  4.59278307507004 11.0211247762366  C 4.85558293481896 11.2152619813337  5.20598648135342 11.2152619813337  5.46878820787029 11.0211247762366  C 5.86299173102958 10.7299189685908  5.99439166090404 10.1475054470031  5.77538991101198 9.71069578238638  C 5.55638816111993 9.27388611776965  5.03078470808619 9.07974891267248  4.59278307507004 9.32242137219204  C 4.15477957528594 9.61362622668969  4.02337777864353 10.1960397482774  4.24237952853558 10.6813846673165  Z M 12.3892386508625 6.31328992744541  C 12.3016368308448 6.0706179444999  12.0826369477208 5.92501551725108  11.8636333310607 5.82794548498034  C 11.6446297144007 5.73087640585771  11.4256316980446 5.77941118370605  11.2066299481525 5.87648073940273  C 10.9876300650285 6.02208364322561  10.8124264249933 6.21622227804493  10.7686264483684 6.50742713254258  C 10.7248264717436 6.79863294018833  10.7686264483684 7.0413044465598  10.9000282450109 7.28397642950531  C 10.9876300650285 7.47811363460248  11.0752281515101 7.57518128400296  11.2066299481525 7.62371796814751  C 11.5570316279191 7.86638995109302  11.9512351510783 7.76932087197038  12.2578331206841 7.47811458775058  C 12.5206367139689 7.18690878010483  12.5644366905938 6.7015657673619  12.3892386508625 6.31329040401946  Z M 7.30840589379227 14.078785756517  C 7.61501133046987 14.0302505020946  7.87780932345083 13.8361132969974  8.00921112009324 13.4963712817812  C 8.1406110499677 13.1566292665649  8.09681107334288 12.8168891576449  7.92160930007564 12.5256833499991  C 7.74640752680842 12.2344775423534  7.39600584704191 12.0888727322343  7.08940227713225 12.1374089398048  C 6.60760253425925 12.2344775423534  6.30099709758164 12.671286253822  6.3447952074385 13.2051664272835  C 6.38859891759924 13.7390437413007  6.82660055061538 14.078785756517  7.30840402702431 14.078785756517  Z M 1.65816877367954 13.5934398843298  C 1.70196875030436 13.7390427881526  1.8333696135628 13.8846447388274  1.96477047682123 13.9331790401017  C 2.2275722033381 14.127317198347  2.57797574987257 14.127317198347  2.84077840977343 13.9331790401017  C 3.05977735951354 13.8361104375531  3.19117915615595 13.5934398843298  3.23497913278077 13.3507664716621  C 3.27877910940559 13.1080959184387  3.27877910940559 12.8654225057711  3.14737917953113 12.6227519525477  C 3.01597831627269 12.3315451917539  2.709376613131 12.1374079866567  2.40277397660534 12.1374079866567  C 2.09617227346365 12.1374079866567  1.789568703554 12.3315451917539  1.65816877367954 12.6227519525477  C 1.52676791042111 12.9139587133416  1.52676791042111 13.302234076684  1.65816877367954 13.5934398843298  Z M 9.45461781578409 4.85724230282869  C 9.67361583214023 4.85724230282869  9.89261944880023 4.76017417685415  10.0240212454426 4.56603697175698  C 10.1992211519419 4.37189929008576  10.2868211051916 4.1292268305662  10.2868211051916 3.88655484762069  C 10.2868211051916 3.35267729531645  9.89261571526432 2.91586667755162  9.45461594901613 2.91586667755162  C 9.14801237910649 2.86733261456435  8.84140880919683 3.06147005794855  8.6662070359296 3.35267705702942  C 8.49100712943032 3.6924183573846  8.49100712943032 4.08069300586596  8.6662070359296 4.37189833693766  C 8.84140880919683 4.71163939900581  9.14801237910649 4.90577612752893  9.45461594901613 4.85724230282869  Z M 8.79761069933998 10.8755047157479  C 8.97281247260721 11.069640967697  9.23561233235612 11.1667095702455  9.45461781578409 11.1667095702455  C 9.93641942542505 11.1181762221193  10.2868229719595 10.6813646512064  10.2868229719595 10.1960216384635  C 10.2868229719595 9.71067767257247  9.93641942542505 9.27386705480764  9.45461781578409 9.22533370668144  C 8.92901062921444 9.22533370668144  8.53481083959107 9.66214432444628  8.53481083959107 10.1960216384635  C 8.53481083959107 10.438693144835  8.62240892607274 10.6813646512064  8.79761069933998 10.8755047157479  Z M 7.17700409714985 7.76931753595203  C 7.43980395689876 7.72078228152964  7.65880570679082 7.62371367898105  7.83400934682601 7.42957599730984  C 8.00921112009324 7.23543879221267  8.09680920657492 6.99276585611905  8.09680920657492 6.75009434974759  C 8.0530092299501 6.21621655915633  7.65880570679082 5.82794071923984  7.17700409714985 5.82794071923984  C 6.69520062074092 5.87647502051413  6.34479894097442 6.31328468513086  6.34479894097442 6.79862865102188  C 6.34479894097442 7.28397261691291  6.69520062074092 7.72078228152964  7.17700409714985 7.76931658280393  Z M 22.9450908872505 16.7481732797512  C 22.7698909807512 16.262828360712  22.2880893711102 15.9716235062144  21.8500858713261 16.1172273631854  C 21.8500858713261 16.1172273631854  16.9006735785779 17.9615327179047  16.9006735785779 17.9615327179047  L 11.6008428051516 16.0201492291558  L 6.34480267451034 17.9615250927199  C 6.34480267451034 17.9615250927199  1.13256812079774 16.1172178317044  1.13256812079774 16.1172178317044  C 0.650760910852898 15.9716254125106  0.168958367827962 16.2142959657339  0.0375556378015659 16.7481732797512  C -0.0938452254568746 17.2820505937684  0.125156524435176 17.8159298140818  0.606959067460124 17.9615327179047  C 0.606959067460124 17.9615327179047  6.34480080774238 20.0000000595718  6.34480080774238 20.0000000595718  L 11.6008409383837 18.0586241960077  L 16.900669845042 20.0000000595718  C 16.900669845042 20.0000000595718  22.41952103604 17.9615327179047  22.41952103604 17.9615327179047  C 22.8575208022882 17.7673955128075  23.120324395573 17.2335162924941  22.9451207555378 16.7481732797512  Z " fill-rule="nonzero" fill="#ffffff" stroke="none" transform="matrix(1 0 0 1 46 253 )" />
  </g>
</svg>