<?xml version="1.0" encoding="utf-8"?>
<svg version="1.1" xmlns:xlink="http://www.w3.org/1999/xlink" width="21px" height="20px" xmlns="http://www.w3.org/2000/svg">
  <g transform="matrix(1 0 0 1 -48 -214 )">
    <path d="M 21 6.70695555252843  C 21 3.02112457167978  18.4273985785885 0  15.2564629934806 0  C 13.7009372458343 0  12.2650008303632 0.725094582298802  11.1880708746918 1.93355043172577  C 10.4701473788203 1.14803757252185  9.57269084513945 0.725094582298802  8.55561517137416 0.725094582298802  C 6.82055638591872 0.725094582298802  5.3248253043601 2.05437193364827  4.84619970447584 3.92750408846898  C 4.84619970447584 3.92750408846898  4.06842192669809 3.92750408846898  4.06842192669809 3.92750408846898  C 1.85470773344921 3.92750408846898  0 6.04232440279754  0 8.64050598425419  C 0 11.2386875657109  1.79488325945233 13.3534777762642  4.06842192669809 13.3534777762642  C 4.06842192669809 13.3534777762642  15.2564629934806 13.3534777762642  15.2564629934806 13.3534777762642  C 18.4273985785885 13.3534777762642  21 10.3927714814896  21 6.70695555252843  Z M 15.2564629934806 11.9637520442345  C 15.2564629934806 11.9637520442345  4.12827620860427 11.9637520442345  4.12827620860427 11.9637520442345  C 2.51286637114259 11.9637520442345  1.25646299348058 10.453174706507  1.25646299348058 8.58004255168633  C 1.25646299348058 6.70692544875322  2.57269084513937 5.19636316291335  4.12827620860427 5.19636316291335  C 4.12827620860427 5.19636316291335  5.38467958626627 5.19636316291335  5.38467958626627 5.19636316291335  C 5.68380195625048 5.19636316291335  5.92312966014731 4.9546599515179  5.98295413414408 4.65253846321735  C 6.22228183804091 3.14197617737749  7.29921179371226 2.05437193364827  8.61543964537105 2.05437193364827  C 9.45307170505497 2.05437193364827  10.2308196749234 2.53774825266397  10.7692995567139 3.32323100809265  C 10.8889485047075 3.50451594258304  11.0684219266981 3.56493421948813  11.247925156598 3.56493421948813  C 11.4274283864978 3.56493421948813  11.6069018084885 3.44408261379039  11.7265805643914 3.32323100809265  C 12.624007290163 2.05437193364827  13.880410667825 1.32927735134944  15.3162874674774 1.32927735134944  C 17.8291240307107 1.32927735134944  19.9231594680565 3.74620410209093  19.9231594680565 6.64649211996056  C 19.8633349940598 9.60721346662282  17.8291240307107 11.9637219404592  15.2564928013899 11.9637219404592  Z M 3.64965060872012 14.8640400621041  C 3.64965060872012 14.8640400621041  0.17956284571852 18.8519624274781  0.17956284571852 18.8519624274781  C -0.059764858178198 19.0936656388736  -0.059764858178198 19.5166236809843  0.17956284571852 19.8187451692848  C 0.299241601621578 19.9395817230949  0.418860741705949 20  0.598363971605893 20  C 0.777837393596437 20  0.897486341590097 19.9395817230949  1.01716509749315 19.8187451692848  C 1.01716509749315 19.8187451692848  4.48725286049475 15.8308228039108  4.48725286049475 15.8308228039108  C 4.72655075648218 15.5891346444029  4.72655075648218 15.1661615504046  4.48725286049475 14.8640400621041  C 4.24792515659804 14.5619336256912  3.88894850470755 14.5619336256912  3.64962080081083 14.8640400621041  Z M 9.03427057916771 15.8308228039108  C 9.27356847515514 15.5286862637226  9.27356847515514 15.105728221612  9.03427057916771 14.8640400621041  C 8.79494287527099 14.6223519025963  8.4359662233805 14.6223519025963  8.19666832739307 14.8640400621041  C 8.19666832739307 14.8640400621041  6.46160954193763 16.8580388745102  6.46160954193763 16.8580388745102  C 6.22228183804091 17.0996969302428  6.22228183804091 17.5226700242411  6.46160954193763 17.8247915125416  C 6.58128829784069 17.9456130144642  6.70093724583434 18.0060312913691  6.88041066782489 18.0060312913691  C 7.05988408981554 18.0060312913691  7.17956284571849 17.9456130144642  7.29921179371226 17.8247915125416  C 7.29921179371226 17.8247915125416  9.03427057916771 15.8308228039108  9.03427057916771 15.8308228039108  Z M 17.3505282387359 14.8640400621041  C 17.3505282387359 14.8640400621041  15.615439645371 16.8580388745102  15.615439645371 16.8580388745102  C 15.3761417493836 17.0996969302428  15.3761417493836 17.5226700242411  15.615439645371 17.8247915125416  C 15.7351184012741 17.9456130144642  15.8547673492678 18.0060312913691  16.0342407712584 18.0060312913691  C 16.2137440011582 18.0060312913691  16.333392949152 17.9456130144642  16.4530717050551 17.8247915125416  C 16.4530717050551 17.8247915125416  18.1881304905105 15.8308228039108  18.1881304905105 15.8308228039108  C 18.4273985785885 15.5891346444029  18.4273985785885 15.1661615504046  18.1881304905105 14.8640400621041  C 17.9488027866137 14.5619336256912  17.5897963268139 14.5619336256912  17.3504984308265 14.8640400621041  Z M 13.7009372458343 14.8640400621041  C 13.4616095419376 14.5619336256912  13.0427786081409 14.5619336256912  12.8633349940597 14.8640400621041  C 12.8633349940597 14.8640400621041  9.39324723105819 18.8519624274781  9.39324723105819 18.8519624274781  C 9.15391952716137 19.0936656388736  9.15391952716137 19.5166236809843  9.39324723105819 19.8187451692848  C 9.51289617905185 19.9395817230949  9.63254512704562 20  9.81204835694546 20  C 9.991521778936 20  10.1112005348391 19.9395817230949  10.2308196749234 19.8187451692848  C 10.2308196749234 19.8187451692848  13.7009372458343 15.8308228039108  13.7009372458343 15.8308228039108  C 13.9402351418217 15.5891346444029  13.9402351418217 15.1661615504046  13.7009372458343 14.8640400621041  Z " fill-rule="nonzero" fill="#ffffff" stroke="none" transform="matrix(1 0 0 1 48 214 )" />
  </g>
</svg>