<?xml version="1.0" encoding="utf-8"?>
<svg version="1.1" xmlns:xlink="http://www.w3.org/1999/xlink" width="7px" height="10px" xmlns="http://www.w3.org/2000/svg">
  <g transform="matrix(1 0 0 1 -127 -1004 )">
    <path d="M 0.143288909297711 6.48542061134726  C 0.143288909297711 6.48542061134726  3.10240140264454 9.81783399049734  3.10240140264454 9.81783399049734  C 3.20421002097702 9.93386886731776  3.34882852043963 10.0000377030403  3.50048946451121 9.99999999999999  C 3.6517705256786 9.99999999999999  3.79638902514121 9.93425343832882  3.89857752637789 9.81783399049734  C 3.89857752637789 9.81783399049734  6.85771924148655 6.48542061134726  6.85771924148655 6.48542061134726  C 7.05940784186858 6.25804865652757  7.04479696093682 5.90604553169959  6.82586752105538 5.69649203372462  C 6.60559388012816 5.48829584520036  6.26454669741906 5.50336198010335  6.06154311775332 5.72936154425621  C 6.06154311775332 5.72936154425621  4.06709942704479 7.97837806045004  4.06709942704479 7.97837806045004  C 4.06709942704479 7.97837806045004  4.06709942704479 0.554732372509054  4.06709942704479 0.554732372509054  C 4.06709942704479 0.247935192998093  3.82558156524277 0  3.52968200461289 0  C 3.23243824293723 0  2.99226458218099 0.249292502448812  2.99226458218099 0.554732372509054  C 2.99226458218099 0.554732372509054  2.99226458218099 8.04412462212128  2.99226458218099 8.04412462212128  C 2.99226458218099 8.04412462212128  0.939465033031054 5.72936154425621  0.939465033031054 5.72936154425621  C 0.737747210887194 5.50198958943651  0.395414270656106 5.48692345453353  0.175140629728995 5.69649203372462  C -0.0451622329600601 5.90467314103275  -0.0597146703680354 6.25806373774368  0.143288909297711 6.48542061134726  Z " fill-rule="nonzero" fill="#e9e9eb" stroke="none" transform="matrix(1 0 0 1 127 1004 )" />
  </g>
</svg>