<?xml version="1.0" encoding="utf-8"?>
<svg version="1.1" xmlns:xlink="http://www.w3.org/1999/xlink" width="207px" height="65px" xmlns="http://www.w3.org/2000/svg">
  <defs>
    <linearGradient gradientUnits="userSpaceOnUse" x1="103.5" y1="0" x2="103.5" y2="65" id="LinearGradient227">
      <stop id="Stop228" stop-color="#31c19a" offset="0" />
      <stop id="Stop229" stop-color="#000000" stop-opacity="0" offset="1" />
    </linearGradient>
  </defs>
  <g>
    <path d="M 207 65  C 207 65  207 46.4121792890263  207 46.4121792890263  C 200.852380799974 44.0672024729521  191.665563626041 38.8944358578054  182.409585116938 37.0322411128286  C 173.153606607835 35.1700463678517  154.64177342371 30.3421020092737  145.385794914607 29.5834312210201  C 136.129816405503 28.8247604327667  115.476644263865 33.1699227202474  108.362004712276 26.5487789799074  C 101.247365160687 19.9276352395673  86.2581162921683 -1.31523956723338  79.903322671837 0.0641731066460587  C 73.5485290515057 1.4435857805255  62.4967086755347 2.99122102009274  54.4840862734705 5.58179289026287  C 46.4714638714064 8.17236476043277  28.0419803522571 15.9440803709429  22.433596665214 15.9440803709429  C 16.8252129781708 15.9440803709429  0 15.9440803709429  0 15.9440803709429  C 0 15.9440803709429  0 65  0 65  C 0 65  207 65  207 65  Z " fill-rule="nonzero" fill="url(#LinearGradient227)" stroke="none" />
  </g>
</svg>