<?xml version="1.0" encoding="utf-8"?>
<svg version="1.1" xmlns:xlink="http://www.w3.org/1999/xlink" width="35px" height="50px" xmlns="http://www.w3.org/2000/svg">
  <defs>
    <filter x="16px" y="22px" width="35px" height="50px" filterUnits="userSpaceOnUse" id="filter250">
      <feOffset dx="0" dy="0" in="SourceAlpha" result="shadowOffsetInner" />
      <feGaussianBlur stdDeviation="1.5" in="shadowOffsetInner" result="shadowGaussian" />
      <feComposite in2="shadowGaussian" operator="atop" in="SourceAlpha" result="shadowComposite" />
      <feColorMatrix type="matrix" values="0 0 0 0 0.305882352941176  0 0 0 0 0.584313725490196  0 0 0 0 1  0 0 0 1 0  " in="shadowComposite" />
    </filter>
    <g id="widget251">
      <path d="M 17.552637675818 16.6896568930725  C 17.552637675818 16.6896568930725  13.4315872391125 16.6896568930725  13.4315872391125 16.6896568930725  C 11.4473777695875 16.6896568930725  9.615815243124 16.082764815061  7.93685332350514 15.17241326367  C 7.93685332350514 15.17241326367  1.83160886268023 12.13793368165  1.83160886268023 12.13793368165  C 1.67897736502447 11.986217379334  1.52636131277423 11.6827655827395  1.52636131277423 11.3793176245375  C 1.52636131277423 11.075865827943  1.67897736502447 10.7724217081335  1.98422491493046 10.7724217081335  C 1.98422491493046 10.7724217081335  3.5105707822992 10.0138018126285  3.5105707822992 10.0138018126285  C 3.66318683454935 3.94484264858853  7.0210797829761 1.91919625385142E-05  12.2105198124608 1.91919625385142E-05  C 12.6684297508336 1.91919625385142E-05  12.9736773007396 0.303467150164538  12.9736773007396 0.758639087467544  C 12.9736773007396 1.21381486316305  12.6684297508336 1.51725898297253  12.2105198124608 1.51725898297253  C 6.86844828532029 1.51725898297253  5.03687031345116 6.37241096063449  5.03687031345116 10.468962234754  C 5.03687031345116 10.7724063545635  4.88423881579543 11.0758543127655  4.57899126588943 11.0758543127655  C 4.57899126588943 11.0758543127655  3.96846527526639 11.37930610936  3.96846527526639 11.37930610936  C 3.96846527526639 11.37930610936  8.70001081178391 13.8068859365835  8.70001081178391 13.8068859365835  C 10.2263257883415 14.717225972797  11.7526562103046 15.1723979101  13.4315717937069 15.1723979101  C 13.4315717937069 15.1723979101  17.5526222304125 15.1723979101  17.5526222304125 15.1723979101  C 19.2315687046258 15.1723979101  20.757899126589 14.717225972797  22.1315671600852 13.8068859365835  C 22.1315671600852 13.8068859365835  26.5578960375078 11.531022411676  26.5578960375078 11.531022411676  C 26.5578960375078 11.531022411676  25.9473700468848 11.2275782918665  25.9473700468848 11.2275782918665  C 25.6420916061677 11.075850474373  25.4894755539175 10.772402516171  25.4894755539175 10.620686213855  C 25.4894755539175 6.06896300243249  23.1999876436756 1.51724362940251  18.163163666441 1.51724362940251  C 17.7052691734738 1.51724362940251  17.3999907327566 1.21379567120051  17.3999907327566 0.758619895504998  C 17.3999907327566 0.303447958202006  17.8579006711295 0  18.3157951640968 0  C 23.3526191413313 0  26.8631590328194 4.09654743572699  27.0157905304751 10.1654912461969  C 27.0157905304751 10.1654912461969  28.5421055070327 10.9241111417019  28.5421055070327 10.9241111417019  C 28.8473530569387 11.0758389591954  29 11.2275590999039  29 11.5310070581059  C 29 11.8344511779154  28.8473530569387 12.1378991361174  28.5421055070327 12.2896269536109  C 28.5421055070327 12.2896269536109  22.8947555391752 15.1724324556325  22.8947555391752 15.1724324556325  C 21.3684405626175 16.0827763302385  19.3842310930927 16.68966840825  17.552637675818 16.68966840825  Z M 1.52631497655757 42.9377479034526  C 1.52631497655757 43.2411958616546  1.22106742665169 43.6963677989576  0.763172933684381 43.6963677989576  C 0.305278440717072 43.6963677989576  0 43.3929275175406  0 42.9377479034526  C 0 42.9377479034526  0 31.1032852103596  0 31.1032852103596  C 0 30.6481055962716  0.305278440717072 30.3446653148546  0.763172933684381 30.3446653148546  C 1.22106742665169 30.3446653148546  1.52631497655757 30.6481055962716  1.52631497655757 31.1032852103596  C 1.52631497655757 31.1032852103596  1.52631497655757 42.9377479034526  1.52631497655757 42.9377479034526  Z M 5.34211786335713 43.9999616160749  C 4.88420792498433 43.9999616160749  4.57894492967278 43.6965136578729  4.57894492967278 43.2413417205699  C 4.57894492967278 43.2413417205699  4.57894492967278 28.8275905747225  4.57894492967278 28.8275905747225  C 4.57894492967278 28.3724109606345  4.88420792498433 28.0689706792175  5.34211786335713 28.0689706792175  C 5.79999691091886 28.0689706792175  6.10525990623041 28.3724109606345  6.10525990623041 28.8275905747225  C 6.10525990623041 28.8275905747225  6.10525990623041 43.241380104495  6.10525990623041 43.241380104495  C 6.10525990623041 43.696544365013  5.79999691091886 44  5.34211786335713 44  Z " fill-rule="nonzero" fill="#ffffff" stroke="none" fill-opacity="0.8" transform="matrix(1 0 0 1 19 25 )" />
    </g>
  </defs>
  <g transform="matrix(1 0 0 1 -16 -22 )">
    <use xlink:href="#widget251" filter="url(#filter250)" />
    <use xlink:href="#widget251" />
  </g>
</svg>