<?xml version="1.0" encoding="utf-8"?>
<svg version="1.1" xmlns:xlink="http://www.w3.org/1999/xlink" width="207px" height="65px" xmlns="http://www.w3.org/2000/svg">
  <defs>
    <linearGradient gradientUnits="userSpaceOnUse" x1="103.5" y1="0" x2="103.5" y2="65" id="LinearGradient2598">
      <stop id="Stop2599" stop-color="#4e95ff" offset="0" />
      <stop id="Stop2600" stop-color="#000000" stop-opacity="0.0117647058823529" offset="1" />
    </linearGradient>
  </defs>
  <g>
    <path d="M 207 65.0000000000001  L 207 0  C 207 0  186.195838099585 13.3022467771985  186.195838099585 13.3022467771985  C 186.195838099585 13.3022467771985  163.543875984614 20.9034958862981  154.715756189212 17.9172865337036  C 145.88763639381 14.9310771811092  128.573695627693 4.13999970985788  119.403399695355 5.972449123326  C 110.233103763017 7.80489853679413  88.2655552657938 15.4740409278375  82.7223386537538 13.3022467771985  C 77.1791220417138 11.1304526265595  69.7196454501811 2.85048362498087  60.5494108617184 4.61507017464234  C 51.3791762732559 6.37965672430358  29.8354526111154 12.2163497018789  23.8683498201172 11.6733859551506  C 17.9012470291191 11.1304222084223  0 9.50159180451152  0 9.50159180451152  C 0 9.50159180451152  0 65.0000000000001  0 65.0000000000001  L 207 65.0000000000001  Z " fill-rule="nonzero" fill="url(#LinearGradient2598)" stroke="none" />
  </g>
</svg>