<?xml version="1.0" encoding="utf-8"?>
<svg version="1.1" xmlns:xlink="http://www.w3.org/1999/xlink" width="60px" height="80px" xmlns="http://www.w3.org/2000/svg">
  <defs>
    <linearGradient gradientUnits="userSpaceOnUse" x1="26.9639897346497" y1="80" x2="27.4410402774811" y2="0" id="LinearGradient2616">
      <stop id="Stop2617" stop-color="#4e95ff" stop-opacity="0.490196078431373" offset="0" />
      <stop id="Stop2618" stop-color="#274b80" stop-opacity="0.149019607843137" offset="1" />
    </linearGradient>
    <mask fill="white" id="clip2619">
      <path d="M 0 80  L 0 0  L 34.2708358764648 0  L 60 0  L 60 80  L 0 80  Z " fill-rule="evenodd" />
    </mask>
  </defs>
  <g transform="matrix(1 0 0 1 -4 -3 )">
    <path d="M 0 80  L 0 0  L 34.2708358764648 0  L 60 0  L 60 80  L 0 80  Z " fill-rule="nonzero" fill="url(#LinearGradient2616)" stroke="none" transform="matrix(1 0 0 1 4 3 )" />
    <path d="M 0 80  L 0 0  L 34.2708358764648 0  L 60 0  L 60 80  L 0 80  Z " stroke-width="2" stroke="#4e95ff" fill="none" transform="matrix(1 0 0 1 4 3 )" mask="url(#clip2619)" />
  </g>
</svg>