<?xml version="1.0" encoding="utf-8"?>
<svg version="1.1" xmlns:xlink="http://www.w3.org/1999/xlink" width="51px" height="10px" xmlns="http://www.w3.org/2000/svg">
  <defs>
    <linearGradient gradientUnits="userSpaceOnUse" x1="10.5199498236179" y1="25.8171725273132" x2="41.5511443018913" y2="-5.30797958374023" id="LinearGradient2511">
      <stop id="Stop2512" stop-color="#999999" stop-opacity="0" offset="0" />
      <stop id="Stop2513" stop-color="#999999" offset="1" />
    </linearGradient>
  </defs>
  <g transform="matrix(1 0 0 1 0 -111 )">
    <path d="M 36.0593078213142 7.76009297773428  C 26.2973319103522 9.24932713481771  16.34953499009 10  6.40673883213905 10  C 4.27049855160848 10  2.13425827107791 9.96592855395155  0 9.89674577930022  C 0 9.89674577930022  0.161884433602683 4.88775385368241  0.161884433602683 4.88775385368241  C 11.9261777710017 5.26963542941033  23.7494435127306 4.57107903107414  35.3069370330843 2.80621482750183  C 40.1709101997256 2.06257646195253  45.0698887025461 1.11946415463665  49.8679371855466 0  C 49.8679371855466 0  51 4.87974064105701  51 4.87974064105701  C 46.076048178076 6.02826033765598  41.0491843268792 6.99743087839491  36.0593078213142 7.76009297773428  Z " fill-rule="nonzero" fill="url(#LinearGradient2511)" stroke="none" transform="matrix(1 0 0 1 0 111 )" />
  </g>
</svg>