<?xml version="1.0" encoding="utf-8"?>
<svg version="1.1" xmlns:xlink="http://www.w3.org/1999/xlink" width="38px" height="8px" preserveAspectRatio="xMinYMid meet" viewBox="264 699  38 6" xmlns="http://www.w3.org/2000/svg">
  <g transform="matrix(-0.838670567945415 -0.544639035015029 0.544639035015039 -0.838670567945426 138.007168147995 1444.87958560694 )">
    <path d="M 291 0  C 290.694375179988 0.141161297267974  277.132090417055 7.3546505031486  276.575730994705 7.61683343298327  C 264.033255131189 13.5211220037077  255.14241517966 20.1311558459857  249.548625223941 24.8475714880523  C 235.421973668374 36.7616829211274  232.485133085431 44.9009233406175  217.180634036018 58.3091652783399  C 210.175193599145 64.4470494736848  204.062024824297 68.4105232439404  192.121324231385 76.0858167978651  C 160.355994626044 96.5057840057373  144.473314542133 106.716287935357  127.385280730576 110.593203997748  C 116.503661826452 113.061506611989  121.792315961871 110.005358404658  73.0901451434326 113.729972078669  C 59.4454333665425 114.773929044675  52.986725170189 115.475756569903  41.7654959660675 115.821803757005  C 24.1081748022733 116.365452274367  9.63992638537838 115.564273150931  0 114.775887917837  " stroke-width="4" stroke="#ffd08f" fill="none" transform="matrix(1 0 0 1 20 686 )" />
  </g>
</svg>