<?xml version="1.0" encoding="utf-8"?>
<svg version="1.1" xmlns:xlink="http://www.w3.org/1999/xlink" width="64px" height="64px" xmlns="http://www.w3.org/2000/svg">
  <defs>
    <linearGradient gradientUnits="userSpaceOnUse" x1="0.000367814674973488" y1="32.0001220703125" x2="64.0001220703125" y2="32.0001220703125" id="LinearGradient169">
      <stop id="Stop170" stop-color="#31c19a" stop-opacity="0.0588235294117647" offset="0" />
      <stop id="Stop171" stop-color="#31c19a" stop-opacity="0.0941176470588235" offset="0.02" />
      <stop id="Stop172" stop-color="#31c19a" stop-opacity="0.333333333333333" offset="0.14" />
      <stop id="Stop173" stop-color="#31c19a" stop-opacity="0.537254901960784" offset="0.27" />
      <stop id="Stop174" stop-color="#31c19a" stop-opacity="0.705882352941177" offset="0.4" />
      <stop id="Stop175" stop-color="#31c19a" stop-opacity="0.835294117647059" offset="0.54" />
      <stop id="Stop176" stop-color="#31c19a" stop-opacity="0.929411764705882" offset="0.68" />
      <stop id="Stop177" stop-color="#31c19a" stop-opacity="0.980392156862745" offset="0.83" />
      <stop id="Stop178" stop-color="#31c19a" offset="1" />
    </linearGradient>
  </defs>
  <g transform="matrix(1 0 0 1 0 -66 )">
    <path d="M 30.499929119046 38.0444499027107  C 23.9534407914146 48.1986467764034  14.5484193547151 56.9313678457801  2.54503239451236 64  C 2.54503239451236 64  0 59.6637895633686  0 59.6637895633686  C 11.3213359335793 52.9966265356171  20.1638461155326 44.8042124169587  26.2806042888729 35.3159581368038  C 28.2923053934664 32.1961905566024  29.9203757840008 29.0944761919382  31.4942548112847 26.0953704094595  C 35.3169528086099 18.8104066962692  38.9257052654971 11.930964872219  47.0742717460853 6.42571662131615  C 51.7586369400888 3.25964929786654  57.1471220416785 1.09860571147861  63.0880647966871 0  C 63.0880647966871 0  64.0000000000005 4.94780916707284  64.0000000000005 4.94780916707284  C 58.7411082716158 5.91967393682142  53.9904138298321 7.81913011440611  49.8824142436236 10.5949041114817  C 42.7824874234203 15.3928224652004  39.6116796487374 21.437272367911  35.9396630664255 28.4354724193381  C 34.3135543541979 31.5331340213307  32.6342351178736 34.7354919923397  30.499929119046 38.0444499027107  Z " fill-rule="nonzero" fill="url(#LinearGradient169)" stroke="none" transform="matrix(1 0 0 1 0 66 )" />
  </g>
</svg>