<?xml version="1.0" encoding="utf-8"?>
<svg version="1.1" xmlns:xlink="http://www.w3.org/1999/xlink" width="98px" height="20px" preserveAspectRatio="xMinYMid meet" viewBox="480 227  98 18" xmlns="http://www.w3.org/2000/svg">
  <g transform="matrix(0.66913060635886 0.743144825477394 -0.743144825477393 0.669130606358859 350.412088048828 -315.038435778232 )">
    <path d="M 0 580  C 5.16627128809339 577.347325919461  13.4002125389154 572.864808702745  22.9293366288711 566.439594588149  C 61.0940942297792 540.703440795207  84.9552815983379 507.441809779122  94.8431008037669 493.417531437676  C 102.297113552957 482.845124784669  112.35442672518 467.28223685118  129.235732955766 448.561703107974  C 134.595110221147 442.6179495222  141.761019834554 435.116960588258  153.207658823148 429.784192871442  C 163.604936136113 424.940763462268  171.796717440551 424.560248424839  179.262505688514 423.525694541179  C 188.455631479284 422.250837869479  202.414356535131 416.416945710817  230.331745633879 404.748184304647  C 241.11010981387 400.244110065268  267.56770314245 388.93229142812  301.203042596158 371.366920972991  C 307.692928756691 367.977796708874  313.066949129355 365.078987841245  316.837061151012 363.021605140077  C 329.472110321472 362.213522130483  339.294279595918 363.625659785034  346.01930965423 365.108392108702  C 354.270944659685 366.927517801601  360.386577403258 369.40856011955  369.99025931446 368.23767180786  C 374.789171648604 367.652242919028  380.642265681192 366.84907588769  384.580895462492 361.979173477597  C 389.241674484606 356.215875988052  387.823916634928 348.964991264636  387.708358113291 348.417760442874  C 386.168147278964 341.158997940638  379.97600429984 337.492349910256  377.285638401423 335.899786693503  C 368.180615306136 330.508179907747  358.368269116158 331.474123834008  355.398585946328 331.727128777046  C 344.61241210912 332.644035056853  330.142276531433 330.252243698172  301.203042596158 325.467653357937  C 270.299252780099 320.358455782676  248.505428108036 302.972503266878  242.838423563829 298.345834911363  C 238.688139869351 294.956710647247  225.077249624409 274.481722279131  198.023010687015 233.669057059778  C 195.458026394704 229.800395910504  186.099311465748 215.444701246136  180.304972901131 195.071696526312  C 176.793555774797 182.723369827812  176.939498744045 176.422704007043  178.221014683049 171.07912724487  C 180.848781297833 160.120373555385  188.242086164748 153.228416312709  193.854118043698 148.129997248779  C 208.477091053646 134.844169069642  216.648372007889 138.463748898274  226.162852990562 126.223283648155  C 227.754985842795 124.1746947466  233.95689089344 116.000003053403  235.543105489813 104.316554780518  C 236.973554032468 93.7804530849422  233.393497340748 89.6519321036965  235.543105489813 80.323985499075  C 237.175384861178 73.2407631148119  240.797601499283 68.8670691683089  247.007377220093 61.5465210635823  C 262.46604456524 43.3260583383109  268.907059355219 46.7769682049183  280.358518366627 31.2954534518769  C 280.460409988134 31.1581572020135  280.378103522617 31.2680033621122  294.950130721811 9.38873221774633  C 295.199978739819 9.01216370323407  300.954109772356 0.373621980961269  301.203042596158 0  " stroke-width="3" stroke="#ffd08f" fill="none" transform="matrix(1 0 0 1 321 97 )" />
  </g>
</svg>