<?xml version="1.0" encoding="utf-8"?>
<svg version="1.1" xmlns:xlink="http://www.w3.org/1999/xlink" width="707px" height="150px" xmlns="http://www.w3.org/2000/svg">
  <g transform="matrix(1 0 0 1 -319 -593 )">
    <path d="M 0 88.7966032823368  C 5.83547959045651 91.5078801799167  15.713795366562 95.1378642792071  28.1641700333545 95.040985087622  C 35.5096297346561 94.9842589697819  45.3183330339594 93.6183842290509  59.4563217545949 86.7144927572772  C 79.9739275926903 76.6962703927442  85.1906499660975 66.9383423089982  111.611271709863 44.0419507279701  C 130.173621839884 27.9544602667151  139.454796904894 19.9107455012421  150.205833311225 14.8981917565074  C 157.869006799194 11.3259086600038  164.471261715269 9.43463186327407  211.747842572534 4.49056378604973  C 259.994174082513 -0.555257907493504  269.425382354105 -0.290089201972629  277.462142800913 0.327317620877329  C 306.265648476477 2.54152505622397  318.807252126026 7.10106195225753  322.314805003212 8.65380995122214  C 334.533748716425 14.0616795418713  338.530542965663 19.0340802128611  354.651266003637 30.5110960396139  C 368.8147792991 40.5948794168171  384.555931147773 51.8019130436244  399.503867142359 57.5717696010704  C 429.69290536059 69.2249349516423  470.568191530865 64.0744959172491  499.640315877878 46.1230254377738  C 520.422693382126 33.2908586047043  530.221565445671 16.9744529718863  550.751994634756 18.0214184744059  C 561.991234332344 18.5937368684679  572.645240716184 24.1767201676802  574.74277455667 25.3067946119117  C 577.404902222167 26.7401801352065  588.557065260175 32.9982712600556  597.691077106683 46.1230254377738  C 605.195546360259 56.9064715552104  602.113545545208 59.0727268372379  608.121590801843 65.898201001106  C 610.375935905861 68.459833059357  615.320009411794 73.2795423755593  642.543739308981 81.5111662145218  C 664.393019615587 88.1175959169129  664.142048317642 85.8994889417792  670.706871261542 89.8377194751757  C 673.147582399946 91.3004734074918  692.911175199838 103.154221335861  694.697773310608 120.020462078656  C 695.05072078071 123.351156499289  694.937997419151 129.093533487298  697.827770096506 136.673507669655  C 699.231865966321 140.357354162254  700.856767727465 143.192867960238  702 145  " stroke-width="4" stroke="#ffd08f" fill="none" transform="matrix(1 0 0 1 321 595 )" />
  </g>
</svg>