<?xml version="1.0" encoding="utf-8"?>
<svg version="1.1" xmlns:xlink="http://www.w3.org/1999/xlink" width="34px" height="8px" preserveAspectRatio="xMinYMid meet" viewBox="1318 433  34 6" xmlns="http://www.w3.org/2000/svg">
  <g transform="matrix(0 1 -1 0 1771 -899 )">
    <path d="M 0 379.216265039216  C 6.57936892636712 376.782874760353  33.416843757374 376.535144257327  43.0084950770165 380.334778032786  C 52.8855475137068 384.246183706799  54.7132381930944 391.683595776202  61.7840294964396 392.854635454339  C 72.3630441157518 394.605423143995  81.8664006097101 380.202361925646  92.0327620948744 367.814798456152  C 118.104404488995 336.04568238957  125.353495163709 345.786023111982  149.40034058708 316.691492530488  C 175.790601515379 284.761498223035  163.539724982342 277.288783335399  186.950188197354 256.178003420342  C 199.867000670168 244.530027885056  218.742431586701 233.146823486511  219.284657072233 215.48851260845  C 219.418015232189 211.147487516714  218.429552826805 206.87999978337  221.371126085819 202.968594109357  C 223.749957219308 199.804533217156  228.541813886274 197.082734793498  249.533389670668 197.751656013701  C 270.518981435064 198.420577233903  271.542615223293 202.259422790166  280.824440854468 200.881452405853  C 298.284956348617 198.29011560805  309.368948982046 183.645798105934  312.116469021125 180.014860496491  C 326.000983013616 161.670954229755  324.171338368514 140.756355373801  323.589911445852 134.108492666483  C 322.155334243476 117.701599509454  315.025801845865 103.361326002424  313.159886712204 99.6793886469188  C 307.451131634117 88.4168429290261  304.072114300964 87.1025764191352  302.728762872843 78.8128272763269  C 300.752082307791 66.6116724595053  306.763702071491 61.394795441389  302.728762872843 51.6858180358667  C 299.507650393922 43.9345590261773  294.855013784053 45.2841283543003  292.298738139195 38.1223286850217  C 289.449367637293 30.1405630386407  290.95326180501 36.9016135674515  294.600827300931 21.1695966907945  C 296.444271828885 13.2241111032887  299.27171306984 6.73734962286824  299.647362978286 0.156153050672174  " stroke-width="3" stroke="#ffd08f" fill="none" transform="matrix(1 0 0 1 1033 371 )" />
  </g>
</svg>