<?xml version="1.0" encoding="utf-8"?>
<svg version="1.1" xmlns:xlink="http://www.w3.org/1999/xlink" width="426px" height="98px" xmlns="http://www.w3.org/2000/svg">
  <g transform="matrix(1 0 0 1 -706.5 -437.5 )">
    <path d="M 0 14.3505593820918  C 27.0262297200393 5.28954264533785  50.2156028262184 1.98811855597775  66.6864357180844 0.726042122864992  C 94.0210730475363 -1.36754089223092  111.452812796816 1.49745420938206  121.911344260324 3.8698523695988  C 136.532768467501 7.18802561389745  161.664450730904 12.8904686721879  166.71596729853 29.0223282904858  C 168.360604554264 34.2744767602376  166.543585988364 36.373980264167  167.758184943789 45.7906557964465  C 169.195061851884 56.9333838945212  170.68793523653 68.9254107171878  178.177433476034 74.0878929234135  C 183.285678500297 77.6080376624284  188.81517806384 76.3302550620473  197.974810865395 75.1351752486886  C 213.217198178549 73.146995340495  225.850076486427 73.4602597548392  251.116199092223 74.0878929234135  C 277.095270301426 74.7322138947105  285.333096181807 78.2651812468467  290.710709877583 81.4237773776105  C 297.645733202221 85.4956625941414  302.381888349621 90.445313963438  305.298828990863 94  C 324.660190242549 86.2434234014321  334.917793172552 75.9144710949478  340.725445168635 67.7992907944916  C 348.949729417433 56.3067323614011  348.91825427375 48.318673852273  360.523676534763 35.3109304194077  C 365.091232269105 30.1908119182554  372.063586578111 22.5337179377562  383.446608889771 17.4943389527177  C 399.537361122173 10.3712853354498  414.8592902713 12.719019904878  422 14.3505593820918  " stroke-width="3" stroke="#ffd08f" fill="none" transform="matrix(1 0 0 1 708 439 )" />
  </g>
</svg>