<?xml version="1.0" encoding="utf-8"?>
<svg version="1.1" xmlns:xlink="http://www.w3.org/1999/xlink" width="33px" height="38px" xmlns="http://www.w3.org/2000/svg">
  <defs>
    <filter x="18px" y="21px" width="33px" height="38px" filterUnits="userSpaceOnUse" id="filter5176">
      <feOffset dx="0" dy="0" in="SourceAlpha" result="shadowOffsetInner" />
      <feGaussianBlur stdDeviation="1.5" in="shadowOffsetInner" result="shadowGaussian" />
      <feComposite in2="shadowGaussian" operator="atop" in="SourceAlpha" result="shadowComposite" />
      <feColorMatrix type="matrix" values="0 0 0 0 0.305882352941176  0 0 0 0 0.584313725490196  0 0 0 0 1  0 0 0 1 0  " in="shadowComposite" />
    </filter>
    <g id="widget5177">
      <path d="M 13.4254069421266 32  C 8.80110530597184 32  4.32598978556393 27.7333330763325  2.68509346460592 22.0952220785761  C 1.19338325939468 22.0952220785761  0 20.1142715058085  0 17.5237932317895  C 0 16.1523645777535  0 13.2571272718752  2.08840938252143 13.2571272718752  C 2.53593753931048 13.2571272718752  2.83426448512701 13.5618891949943  2.83426448512701 14.0190349709329  C 2.83426448512701 14.4761797831182  2.53593753931048 14.9333217040435  2.08840938252143 14.9333217040435  C 1.93923836200026 14.9333217040435  1.49174039566261 15.0857017018498  1.49174039566261 17.5237990143093  C 1.49174039566261 19.3523705530239  2.23758040304253 20.5714182455004  2.68509346460592 20.5714182455004  C 2.68509346460592 20.5714182455004  2.83426448512701 20.5714182455004  2.83426448512701 20.5714182455004  C 2.98345060087387 20.4190392114474  3.2817775466904 20.4190392114474  3.58013468295836 20.5714182455004  C 3.72929060825371 20.7238011345665  4.02764774452175 20.8761820961261  4.02764774452175 21.028561130179  C 5.22100081346494 26.3619102048162  9.24863346276089 30.4761961669242  13.4254069421266 30.4761961669242  C 17.7513665372391 30.4761961669242  21.7790142817608 26.8190550170015  23.1215232759994 21.6381138890162  C 23.1215232759994 21.3333538934037  23.270724486972 21.1809729318442  23.5690363375628 21.1809729318442  C 23.7182073580839 21.028590042778  24.0165493991261 21.1809729318442  24.1657506100987 21.1809729318442  C 24.1657506100987 21.1809729318442  24.3149216306198 21.1809729318442  24.3149216306198 21.1809729318442  C 24.7624045017318 21.1809729318442  25.5082897947888 19.9619233118611  25.5082897947888 18.1333517731464  C 25.5082897947888 18.1333517731464  25.5082897947888 17.6762088884678  25.5082897947888 17.6762088884678  C 25.5082897947888 16.7619231191105  25.5082897947888 15.3904935013212  25.3591187742677 15.0857306144487  C 24.9116057127043 15.0857306144487  24.6132334812106 14.7809696550829  24.6132334812106 14.3238248428977  C 24.6132334812106 13.8666790669591  24.9115755222529 13.56191714384  25.3591187742677 13.56191714384  C 25.8066318358311 13.56191714384  26.1049738768733 13.7142990691529  26.4033159179155 14.0190600285187  C 27 14.6285819472503  27 16.0000115650396  27 17.676203105948  C 27 17.676203105948  27 18.1333440631201  27 18.1333440631201  C 27 20.7238242646457  25.9558028563522 22.7047748374133  24.3149216306198 22.7047748374133  C 22.6740102144361 28.1904855985441  18.1988795988025 31.9999980724934  13.425437132578 31.9999980724934  Z M 13.4254069421266 9.14285769357331  C 11.486183675352 9.14285769357331  10.4419865317042 8.07619144453308  10.4419865317042 6.09523653487561  C 10.4419865317042 6.09523653487561  10.4419865317042 1.52380780855812  10.4419865317042 1.52380780855812  C 10.4419865317042 1.37142708793689  10.4419865317042 1.21904576496984  10.5911424569995 1.06666516481778  C 10.7403285727464 0.914284323727383  11.486183675352 0  13.4254069421266 0  C 15.3646000184497 0  16.1104853115068 0.914285648888169  16.2596563320278 1.06666516481778  C 16.4087971620975 1.21904576496984  16.4087971620975 1.37142708793689  16.4087971620975 1.52380780855812  C 16.4087971620975 1.52380780855812  16.4087971620975 6.09523653487561  16.4087971620975 6.09523653487561  C 16.4087971620975 8.07618662576658  15.3646000184497 9.14285672982001  13.4254069421266 9.14285672982001  Z M 11.9336967369154 1.82857153871466  C 11.9336967369154 1.82857153871466  11.9336967369154 6.09522352420608  11.9336967369154 6.09522352420608  C 11.9336967369154 7.31427218043582  12.2320387779576 7.61903121229503  13.4254069421266 7.61903121229503  C 14.6187751062956 7.61903121229503  14.9171171473378 7.31426880729928  14.9171171473378 6.09522352420608  C 14.9171171473378 6.09522352420608  14.9171171473378 1.82857117730718  14.9171171473378 1.82857117730718  C 14.7679461268167 1.67619033621678  14.1712469495064 1.5238091337189  13.4254069421266 1.5238091337189  C 12.6795518395209 1.5238091337189  12.2320236827319 1.6761899748093  11.9336967369154 1.82857117730718  Z " fill-rule="nonzero" fill="#ffffff" stroke="none" fill-opacity="0.8" transform="matrix(1 0 0 1 21 24 )" />
    </g>
  </defs>
  <g transform="matrix(1 0 0 1 -18 -21 )">
    <use xlink:href="#widget5177" filter="url(#filter5176)" />
    <use xlink:href="#widget5177" />
  </g>
</svg>