<?xml version="1.0" encoding="utf-8"?>
<svg version="1.1" xmlns:xlink="http://www.w3.org/1999/xlink" width="52px" height="22px" xmlns="http://www.w3.org/2000/svg">
  <defs>
    <filter x="8px" y="50px" width="52px" height="22px" filterUnits="userSpaceOnUse" id="filter2637">
      <feOffset dx="0" dy="0" in="SourceAlpha" result="shadowOffsetInner" />
      <feGaussianBlur stdDeviation="1.5" in="shadowOffsetInner" result="shadowGaussian" />
      <feComposite in2="shadowGaussian" operator="atop" in="SourceAlpha" result="shadowComposite" />
      <feColorMatrix type="matrix" values="0 0 0 0 0.305882352941176  0 0 0 0 0.584313725490196  0 0 0 0 1  0 0 0 1 0  " in="shadowComposite" />
    </filter>
    <g id="widget2638">
      <path d="M 44.93364617234 16  C 44.93364617234 16  0.761588161102245 16  0.761588161102245 16  C 0.609270324168897 16  0.304634289044143 15.852717769905  0.15231780682851 15.7054355398101  C 0 15.5582129140171  0 15.4109306839221  0 15.1164258280341  C 0 15.1164258280341  1.37086149575496 8.49003676840376  1.37086149575496 8.49003676840376  C 1.82781524739371 6.42850277718794  3.19867710440672 4.66153324616204  5.33112898902194 3.92530090859308  C 5.33112898902194 3.92530090859308  13.0993443323323 0.0967377820494194  13.0993443323323 0.0967377820494194  C 13.4039812103925 -0.0504848437435972  13.7086151983883 -0.0504848437435972  14.0132530398033 0.243900803540496  C 16.4503365040272 2.74722188073924  19.4967072113391 4.21980576448105  22.847688786131 4.21980576448105  C 26.0463639638281 4.21980576448105  29.2450410682348 2.74722188073924  31.6821148989106 0.243900803540496  C 31.986750813616 -0.0505444480455377  32.2913848016117 -0.0505444480455377  32.5960226430268 0.0967377820494194  C 32.5960226430268 0.0967377820494194  40.8211961934919 4.21980576448105  40.8211961934919 4.21980576448105  C 42.8013257856577 4.95597849774807  44.324509212604 6.72300763307592  44.6291412738902 8.78454162429173  C 44.6291412738902 8.78454162429173  45.9999990366452 15.1164258280341  45.9999990366452 15.1164258280341  C 45.9999990366452 15.2636484538272  45.9999990366452 15.5582129140171  45.8476849327118 15.7054355398101  C 45.6953669753591 15.8525985613012  45.0860951459482 15.9998807913961  44.9337771885956 15.9998807913961  Z M 1.67549572458942 14.5274161162582  L 44.0199002718336 14.5274161162582  C 44.0199002718336 14.5274161162582  42.9536745703647 9.07910608448165  42.9536745703647 9.07910608448165  C 42.6490425090786 7.45935917924876  41.5828168076097 6.13411712990385  39.9073154233107 5.54504781382596  C 39.9073154233107 5.54504781382596  32.1390957449036 1.56926206148929  32.1390957449036 1.56926206148929  C 29.5496923966174 4.21980576448105  26.1986665075037 5.69233004392092  22.6953862424555 5.69233004392092  C 19.1920732233433 5.69233004392092  15.8410791249387 4.21980576448105  13.2516593996205 1.56926206148929  C 13.2516593996205 1.56926206148929  5.94039744669088 5.10326072784303  5.94039744669088 5.10326072784303  C 4.41722028155092 5.69233004392092  3.19867517769708 7.01757209326583  2.89403781795945 8.63731899849872  C 2.89403781795945 8.63731899849872  1.6754922324282 14.5274161162582  1.6754922324282 14.5274161162582  Z " fill-rule="nonzero" fill="#ffffff" stroke="none" fill-opacity="0.8" transform="matrix(1 0 0 1 11 53 )" />
    </g>
  </defs>
  <g transform="matrix(1 0 0 1 -8 -50 )">
    <use xlink:href="#widget2638" filter="url(#filter2637)" />
    <use xlink:href="#widget2638" />
  </g>
</svg>