<?xml version="1.0" encoding="utf-8"?>
<svg version="1.1" xmlns:xlink="http://www.w3.org/1999/xlink" width="15px" height="15px" xmlns="http://www.w3.org/2000/svg">
  <defs>
    <filter x="27px" y="30px" width="15px" height="15px" filterUnits="userSpaceOnUse" id="filter5184">
      <feOffset dx="0" dy="0" in="SourceAlpha" result="shadowOffsetInner" />
      <feGaussianBlur stdDeviation="1.5" in="shadowOffsetInner" result="shadowGaussian" />
      <feComposite in2="shadowGaussian" operator="atop" in="SourceAlpha" result="shadowComposite" />
      <feColorMatrix type="matrix" values="0 0 0 0 0.305882352941176  0 0 0 0 0.584313725490196  0 0 0 0 1  0 0 0 1 0  " in="shadowComposite" />
    </filter>
    <g id="widget5185">
      <path d="M 9.00000000000006 4.49999999999997  C 9.00000000000006 7.05000000000006  7.04996964177292 9.00000000000003  4.4999392835459 9.00000000000003  C 1.94996964177298 9.00000000000003  0 7.05000000000006  0 4.49999999999997  C 0 1.95  1.94996964177298 0  4.4999392835459 0  C 7.04996964177292 0  9.00000000000006 1.95  9.00000000000006 4.49999999999997  Z M 7.4999392835459 4.49998482088649  C 7.4999392835459 2.84996964177289  6.14996964177298 1.49998482088649  4.4999392835459 1.49998482088649  C 2.84996964177292 1.49998482088649  1.4999392835459 2.84996964177289  1.4999392835459 4.49998482088649  C 1.4999392835459 6.15  2.84996964177292 7.49998482088649  4.4999392835459 7.49998482088649  C 6.14996964177298 7.49998482088649  7.4999392835459 6.15  7.4999392835459 4.49998482088649  Z " fill-rule="nonzero" fill="#ffffff" stroke="none" fill-opacity="0.8" transform="matrix(1 0 0 1 30 33 )" />
    </g>
  </defs>
  <g transform="matrix(1 0 0 1 -27 -30 )">
    <use xlink:href="#widget5185" filter="url(#filter5184)" />
    <use xlink:href="#widget5185" />
  </g>
</svg>