<?xml version="1.0" encoding="utf-8"?>
<svg version="1.1" xmlns:xlink="http://www.w3.org/1999/xlink" width="27px" height="16px" xmlns="http://www.w3.org/2000/svg">
  <g transform="matrix(1 0 0 1 -14 -15 )">
    <path d="M 26.617148848352 10.938705919127  C 27.3076282218524 9.79759448554982  27.0345094828344 8.36324861377094  26.0362992257779 7.53030091989802  C 26.2055546658481 6.99241376451039  26.0728437553883 6.38169874842254  25.6343189948256 5.9577527972642  C 25.6343189948256 5.9577527972642  20.9298229533046 1.38952069991815  20.9298229533046 1.38952069991815  C 20.9086684219864 1.36710811398779  20.8875100527633 1.34469552805743  20.8644269742775 1.32229039559761  C 20.8413458147441 1.29987780966724  20.8182665741631 1.27933604484381  20.7951854146297 1.25878682654982  C 20.7951854146297 1.25878682654982  20.77979733529 1.24385007157661  20.77979733529 1.24385007157661  C 20.4489852922006 0.961818199604873  20.0277714012879 0.806823279610892  19.5815573984363 0.806823279610892  C 19.0949532853537 0.806823279610892  18.6391195740934 0.989850702326554  18.2967631133325 1.32229039559761  C 18.2967631133325 1.32229039559761  14.6751136841888 4.83716822156932  14.6751136841888 4.83716822156932  L 13.5153343509224 0.859116828958224  C 13.5153343509224 0.859116828958224  13.7557522219983 0.859116828958224  13.7557522219983 0.859116828958224  C 14.0000175926471 0.859116828958224  14.1981225631816 0.666750207649031  14.1981225631816 0.429558414479112  C 14.1981225631816 0.192381528250284  14.0000175926471 0  13.7557522219983 0  C 13.7557522219983 0  8.93970076081194 0  8.93970076081194 0  C 7.95302484692685 0  7.15099005376113 0.778805683830301  7.15099005376113 1.73690460163296  C 7.15099005376113 1.73690460163296  7.15099005376113 4.20777480829441  7.15099005376113 4.20777480829441  C 7.15099005376113 4.20777480829441  1.75793586990119 4.20777480829441  1.75793586990119 4.20777480829441  C 1.57906515899968 4.20777480829441  1.41173418832319 4.2750125660855  1.28479344781225 4.39827806196722  C 1.28479344781225 4.39827806196722  0.196181028104419 5.45535161514378  0.196181028104419 5.45535161514378  C 0.0692403700484649 5.57862456449605  0 5.74111022238827  0 5.91479099303986  C 0 5.91479099303986  0 8.96463188473581  0 8.96463188473581  C 0 9.13832010885794  0.0692403700484649 9.30080576675016  0.196181028104419 9.42407126263189  C 0.196181028104419 9.42407126263189  1.35211029819729 10.5465042990221  1.35211029819729 10.5465042990221  C 1.47905115864276 10.6697847018449  1.64638224925377 10.7370150061654  1.8252530800898 10.7370150061654  C 1.8252530800898 10.7370150061654  3.3389236970266 10.7370150061654  3.3389236970266 10.7370150061654  C 2.75230474404541 11.2954439263765  2.38686952244159 12.0723638821588  2.38686952244159 12.9296098900101  C 2.38686952244159 14.6216818663118  3.80437351865998 16  5.54884469695432 16  C 5.54884469695432 16  16.7523192161448 16  16.7523192161448 16  C 18.4948680838669 16  19.9142960697409 14.6235601408892  19.9142960697409 12.9296098900101  C 19.9142960697409 11.235674546072  18.4967908741773 9.85922723349068  16.7523192161448 9.85922723349068  C 16.7523192161448 9.85922723349068  15.6848654804882 9.85922723349068  15.6848654804882 9.85922723349068  L 19.0295611442314 6.56846781335205  L 19.0468720138815 5.5823512997688  L 19.8604445083853 4.79234304970859  C 19.8604445083853 4.79234304970859  23.3455422438295 8.18023609799637  23.3455422438295 8.18023609799637  C 23.4820987349099 8.31282588553053  23.6378908049031 8.41742789116629  23.8032987454002 8.49211911950289  C 23.8032987454002 8.49211911950289  22.4684984795613 10.6921972877752  22.4684984795613 10.6921972877752  C 22.4684984795613 10.6921972877752  22.2800093795308 10.5838536399256  22.2800093795308 10.5838536399256  C 22.0972905693836 10.4792739947015  21.860716359976 10.5390508284765  21.7530151562172 10.716473241342  C 21.7530151562172 10.716473241342  21.6953103384313 10.81359196255  21.6953103384313 10.81359196255  C 21.5876091346725 10.9909994684744  21.649149938317 11.2207228841577  21.8318725863689 11.3253099828524  C 21.8318725863689 11.3253099828524  22.8204669729214 11.89120728055  22.8204669729214 11.89120728055  C 24.139881078373 12.6457370108136  25.8381942552435 12.2199127850778  26.617148848352 10.938705919127  Z M 13.871152262808 5.23311148388816  L 12.3863311763355 5.23311148388816  C 12.3863311763355 5.23311148388816  11.5265973222411 4.39827806196722  11.5265973222411 4.39827806196722  C 11.3996567016647 4.2750125660855  11.2323240519049 4.20777480829441  11.0534546602831 4.20777480829441  C 11.0534546602831 4.20777480829441  10.2437277464 4.20777480829441  10.2437277464 4.20777480829441  L 10.2437277464 0.859116828958224  L 12.5940529768502 0.859116828958224  L 13.8711551412366 5.23311148388816  Z M 8.03572833743731 4.20777480829441  C 8.03572833743731 4.20777480829441  8.03572833743731 1.73690460163296  8.03572833743731 1.73690460163296  C 8.03572833743731 1.25318181669959  8.44155510848646 0.859116828958224  8.93970076081194 0.859116828958224  C 8.93970076081194 0.859116828958224  9.36283648255872 0.859116828958224  9.36283648255872 0.859116828958224  L 9.36283648255872 4.20777480829441  L 8.03572833743731 4.20777480829441  Z M 1.91372674054908 9.87790563067774  L 1.91372674054908 9.87604226304136  L 0.884738046057178 8.87686726906237  L 0.884738046057178 6.00256306218384  L 1.84640977022952 5.06874755141847  L 10.9669060688902 5.06874755141847  C 10.9669060688902 5.06874755141847  11.8266399229845 5.90171760570302  11.8266399229845 5.90171760570302  C 11.9535805435609 6.0249756481142  12.1209112743684 6.09221340590529  12.2997825849425 6.09221340590529  C 12.2997825849425 6.09221340590529  13.9423185317184 6.09221340590529  13.9423185317184 6.09221340590529  L 13.9423185317184 8.21011706141334  C 13.9423185317184 8.21011706141334  9.47823556389224 8.21011706141334  9.47823556389224 8.21011706141334  C 9.23397115271959 8.21011706141334  9.03586714166131 8.40246877578144  9.03586714166131 8.63966056895136  C 9.03586714166131 8.87686726906237  9.23397115271959 9.06921898343047  9.47823556389224 9.06921898343047  C 9.47823556389224 9.06921898343047  13.9423185317184 9.06921898343047  13.9423185317184 9.06921898343047  L 13.9423185317184 9.85922723349068  C 13.9423185317184 9.85922723349068  5.54884469695432 9.85922723349068  5.54884469695432 9.85922723349068  C 5.4334446561446 9.85922723349068  5.31804413559678 9.86483224334091  5.20649015514578 9.87790563067774  C 5.20649015514578 9.87790563067774  1.91372674054908 9.87790563067774  1.91372674054908 9.87790563067774  Z M 5.54884469695432 10.7183291555078  C 5.54884469695432 10.7183291555078  16.7523192161448 10.7183291555078  16.7523192161448 10.7183291555078  C 18.0082639707844 10.7183291555078  19.0295611442314 11.7100581324118  19.0295611442314 12.9296098900101  C 19.0295611442314 14.1491691010788  18.0082639707844 15.1408906245123  16.7523192161448 15.1408906245123  C 16.7523192161448 15.1408906245123  5.54884469695432 15.1408906245123  5.54884469695432 15.1408906245123  C 4.29290234100528 15.1408906245123  3.27160732637966 14.1491691010788  3.27160732637966 12.9296098900101  C 3.27160732637966 11.7100581324118  4.29290234100528 10.7183291555078  5.54884469695432 10.7183291555078  Z M 20.2374188705415 3.20858490737432  C 20.2374188705415 3.20858490737432  18.165974993183 5.22003809655133  18.165974993183 5.22003809655133  L 18.1486660424854 6.20987389193679  L 14.8270572951327 9.47823563308614  L 14.8270572951327 5.90544434097578  C 14.8270572951327 5.90544434097578  18.9218503457105 1.92927122294215  18.9218503457105 1.92927122294215  C 19.0968760756641 1.75931718756333  19.3315217379041 1.66593265509857  19.5796326891736 1.66593265509857  C 19.8296702686582 1.66593265509857  20.0643159308983 1.75931718756333  20.2374188705415 1.92927122294215  C 20.6009298626207 2.28225268103665  20.6009298626207 2.85560344927983  20.2374188705415 3.20858490737432  Z M 23.3474669530922 5.9577527972642  C 23.1589759341093 6.13891685234349  23.0281897329123 6.3536886061125  22.9531798023336 6.58153374721834  C 22.9531798023336 6.58153374721834  20.4836031935958 4.18536222236405  20.4836031935958 4.18536222236405  C 20.4836031935958 4.18536222236405  20.8644288932299 3.81557318818942  20.8644288932299 3.81557318818942  C 21.1048448453533 3.58213049070389  21.2625597056568 3.3001060722027  21.3394924265458 3.00128153109192  C 21.3394924265458 3.00128153109192  23.9898612172156 5.57489037575274  23.9898612172156 5.57489037575274  C 23.7552155549755 5.64958160408935  23.53403134386 5.77658874218492  23.3474669530922 5.9577527972642  Z M 23.9725484286131 7.5713695426038  C 23.6859739953278 7.29497249436448  23.6859739953278 6.843001493955  23.9725484286131 6.56472617113821  C 24.2591286187557 6.28645830179195  24.7226554102097 6.28645830179195  25.0092317624475 6.56472617113821  C 25.2958119525901 6.843001493955  25.2958119525901 7.29309421978701  25.0092317624475 7.5713695426038  C 24.7226554102097 7.84965977236169  24.2591286187557 7.84965977236169  23.9725484286131 7.5713695426038  Z M 25.543924822812 8.25867642201737  C 26.1536201379456 8.83389801136747  26.3036438370078 9.75838177700986  25.8535823345832 10.5016940341024  C 25.3246634020069 11.3738767969269  24.1668097374794 11.6633621394442  23.2686114418929 11.1497583910938  C 23.2686114418929 11.1497583910938  23.2301402840674 11.1273458051635  23.2301402840674 11.1273458051635  C 23.2301402840674 11.1273458051635  24.7534296499368 8.61724798302099  24.7534296499368 8.61724798302099  C 25.0380832118643 8.57243771810136  25.3131247411926 8.45289895749239  25.543924822812 8.25867642201737  Z " fill-rule="nonzero" fill="#ffffff" stroke="none" transform="matrix(1 0 0 1 14 15 )" />
  </g>
</svg>