<?xml version="1.0" encoding="utf-8"?>
<svg version="1.1" xmlns:xlink="http://www.w3.org/1999/xlink" width="30px" height="17px" xmlns="http://www.w3.org/2000/svg">
  <g transform="matrix(1 0 0 1 -29 -38 )">
    <path d="M 29.9098969067148 16.4292272819881  C 29.7964255999483 16.6211674504061  29.5932151632745 16.7383693043373  29.37414599936 16.7381829245007  C 29.37414599936 16.7381829245007  28.2946039407215 16.7381829245007  28.2946039407215 16.7381829245007  C 27.5588173747649 16.7450945101088  26.8544980718236 16.4329082837614  26.3557110581759 15.8788010294745  C 25.9143240320692 15.4573185605995  25.6392442014058 14.8846043859561  25.5826175329415 14.2692402920316  C 25.5826175329415 14.2692402920316  24.3262772957979 14.2692402920316  24.3262772957979 14.2692402920316  C 23.6680235488332 15.9207054294091  22.0996850766766 17  20.3582254824089 17  C 18.6167639927512 17  17.0484236252048 15.9207054294091  16.39017177363 14.2692402920316  C 16.39017177363 14.2692402920316  12.5397222692807 14.2692402920316  12.5397222692807 14.2692402920316  C 11.8814675746211 15.9207054294091  10.3131291024646 17  8.57166856050183 17  C 6.83020944008152 17  5.26187191561993 15.9207054294091  4.60361674711282 14.2692402920316  C 4.60361674711282 14.2692402920316  0.626832161712298 14.2692402920316  0.626832161712298 14.2692402920316  C 0.280339044868082 14.2689451906237  -0.000306398458327343 13.9809572797315  0 13.6260590074909  C 0 13.6260590074909  0 11.0709778271948  0 11.0709778271948  C -0.000295836466399067 10.7161572132194  0.280432985129689 10.4283556821639  0.626831924788561 10.4283556821639  C 0.626831924788561 10.4283556821639  1.06347242075397 10.4283556821639  1.06347242075397 10.4283556821639  C 1.06347242075397 10.4283556821639  1.06347242075397 6.65991070213122  1.06347242075397 6.65991070213122  C 1.0631750814644 6.3050124298906  1.34381752608016 6.01705558230451  1.69030427559895 6.01676048089649  C 1.69030427559895 6.01676048089649  5.3543214530753 6.01676048089649  5.3543214530753 6.01676048089649  L 5.3543214530753 5.0322555888826  C 5.3543214530753 5.0322555888826  4.22602570174338 4.06750695955107  4.22602570174338 4.06750695955107  C 4.09352136351181 3.97554404182948  4.00422528099209 3.83134817489369  3.97944353197937 3.66938409686635  C 3.95466225681412 3.50740448718596  3.99661908134865 3.34216323036454  4.095301134622 3.21306413019542  C 4.19917181772936 3.08699370237147  4.34918434625656 3.01036052621246  4.50998638175367 3.00121238256469  C 4.67078841725079 2.99207977057008  4.82815648010798 3.0512553686986  4.94500584551249 3.16476068920343  C 4.94500584551249 3.16476068920343  6.19866884443123 4.23708154757388  6.19866884443123 4.23708154757388  C 6.34175467059188 4.35922246717565  6.42440646383922 4.54019728853886  6.42422118947711 4.73097258297789  C 6.42422118947711 4.73097258297789  6.42422118947711 6.01676048089649  6.42422118947711 6.01676048089649  C 6.42422118947711 6.01676048089649  6.44779415358512 6.01676048089649  6.44779415358512 6.01676048089649  C 6.65138035130537 6.01676048089649  8.26292565763134 6.03156214625518  8.26292565763134 6.03156214625518  C 8.26292565763134 6.03156214625518  9.90661725040201 8.23435437202329  9.90661725040201 8.23435437202329  C 9.97225839320082 8.2985622257407  10.0089303968642 8.38780710417811  10.0078746646934 8.480764047695  C 10.0657371273685 8.50160752609095  10.1241331422986 8.52190739662997  10.1809237619887 8.54551550926917  C 10.1809237619887 8.54551550926917  10.1943184823675 0.643165752887774  10.1943184823675 0.643165752887774  C 10.1943184823675 0.28817429072882  10.4751138612553 0.000295101407961101  10.8216849556244 0  C 10.8216849556244 0  18.251507197115 0  18.251507197115 0  C 18.5366591296735 0.0224277070072423  18.7579458997636 0.264100228498025  18.7615452451717 0.556996141754657  C 18.7545133486661 0.842592178076827  18.5303095735296 1.072476174901  18.2515053017251 1.07999349497828  C 18.2515053017251 1.07999349497828  17.0165924473299 1.07999349497828  17.0165924473299 1.07999349497828  C 17.0165924473299 1.07999349497828  18.4154470505812 8.70794553688816  18.4154470505812 8.70794553688816  C 19.8295178438991 7.95759584628777  21.5338619132684 8.07636639717729  22.8356934032508 9.01595374856446  C 24.1375267886231 9.9555876949108  24.8201381911118 11.5596191638672  24.6060633795673 13.1760604236121  C 24.6060633795673 13.1760604236121  25.5827445240643 13.1760604236121  25.5827445240643 13.1760604236121  C 25.6469679152227 12.4396270941465  25.9283726619613 11.7406405801895  26.389589257136 11.1719335720336  C 26.8758572205357 10.6182612040321  27.5709099622867 10.3052518000729  28.2979455131041 10.3125516770074  C 28.2979455131041 10.3125516770074  28.6842202872715 10.3125516770074  28.6842202872715 10.3125516770074  C 28.8674002435487 10.3125516770074  29.041465269827 10.3946054000817  29.1606568632926 10.5371393801409  C 29.2798636198774 10.6797044235062  29.3322521965395 10.8685071980076  29.3040885981089 11.0539551354497  C 29.0083622853334 12.6650069115856  29.2282028729346 14.3308077647302  29.9309167806359 15.8035967653963  C 30.0299679610911 16.0018117216472  30.0220679760141 16.2383743292838  29.9100238978376 16.429196218682  Z M 17.5834239581616 14.2692247603786  C 18.1579753920303 15.2820127926004  19.2150608712083 15.9053290928875  20.3586254096764 15.9056707892547  C 21.5021918435345 15.9053290928875  22.5592792181023 15.2820127926004  23.1338287565812 14.2692247603786  C 23.1338287565812 14.2692247603786  17.5834239581616 14.2692247603786  17.5834239581616 14.2692247603786  Z M 4.43067995166873 11.5083647087952  C 4.43067995166873 11.5083647087952  1.07150626774218 11.5083647087952  1.07150626774218 11.5083647087952  L 1.07150626774218 13.1716960291045  C 1.07150626774218 13.1716960291045  4.32674435145751 13.1716960291045  4.32674435145751 13.1716960291045  C 4.25133152606171 12.6157405081043  4.28668812913889 12.0499223874161  4.43067995166873 11.5083647087952  Z M 8.47777473594745 8.22778448278228  C 8.47777473594745 8.22778448278228  7.54770170278407 7.13131190391568  7.54770170278407 7.13131190391568  L 2.13658389533066 7.13131190391568  L 2.13658389533066 10.4278120743071  C 2.13658389533066 10.4278120743071  4.86142483736977 10.4278120743071  4.86142483736977 10.4278120743071  C 5.60753890900969 9.09634558476217  6.97936146159697 8.26178327131331  8.47777473594745 8.22778448278228  Z M 11.7865540303039 12.6130380004733  C 11.7865540303039 10.7945765294796  10.3473683731994 9.32040521169183  8.57204195231088 9.32040521169183  C 6.79671600526985 9.32040521169183  5.35753082201281 10.7945765294796  5.35753082201281 12.6130380004733  C 5.35753082201281 14.431499471467  6.79671600526985 15.9056707892547  8.57204195231088 15.9056707892547  C 10.3473683731994 15.9056707892547  11.7865540303039 14.431499471467  11.7865540303039 12.6130380004733  Z M 17.0481639567893 7.67623995124885  L 16.0452544069431 2.1012462781134  C 16.0452544069431 2.1012462781134  13.8342005941705 5.13158051015082  13.8342005941705 5.13158051015082  C 13.6651005417188 5.3804286553517  13.3310883007854 5.44171655829529  13.0881647073637 5.26850756345819  C 12.845242061637 5.0952985686211  12.7853951257432 4.75316731518935  12.9544961258899 4.50435023329454  C 12.9544961258899 4.50435023329454  15.3268116062089 1.25338886965194  15.3268116062089 1.25338886965194  C 15.3815552048138 1.17621208563608  15.4555806048074 1.11554544881449  15.5411119691508 1.07777246859177  C 15.5411119691508 1.07777246859177  11.2625772849689 1.07777246859177  11.2625772849689 1.07777246859177  L 11.2625772849689 6.78228459652874  C 11.2625772849689 6.78228459652874  11.3782993672341 6.64291907369221  11.3782993672341 6.64291907369221  C 11.5706264751383 6.41210317768485  11.9091952333761 6.38472087335399  12.13451539316 6.58172436066694  C 12.3598327098591 6.77872784797983  12.3865776089542 7.12551859732728  12.1942495533551 7.35630343002853  C 12.1942495533551 7.35630343002853  11.9263731519828 7.67623995124885  11.9263731519828 7.67623995124885  L 17.0481639567893 7.67623995124885  Z M 17.5405616111053 9.31105515655449  C 17.5405616111053 9.31105515655449  17.3519589443423 9.33026781137995  17.3519589443423 9.33026781137995  L 17.2512606700695 8.77159425109567  L 11.2642111110572 8.77159425109567  C 11.2642111110572 8.77159425109567  11.2642111110572 9.19911853300799  11.2642111110572 9.19911853300799  C 12.4290750934559 10.1505565356739  13.0192758139821 11.6596119462166  12.8178963239455 13.1716804974514  C 12.8178963239455 13.1716804974514  16.1095555090871 13.1716804974514  16.1095555090871 13.1716804974514  C 16.0343293795958 12.6181634459804  16.0693201724235 12.0547682631683  16.2124202140084 11.5154782058931  C 16.2124202140084 11.5154782058931  14.4653332071462 11.5154782058931  14.4653332071462 11.5154782058931  C 14.1694457862297 11.5154782058931  13.9295794567066 11.2697985179149  13.9295794567066 10.966698308603  C 13.9295794567066 10.6636136309442  14.1694457862297 10.4179339429659  14.4653332071462 10.4179339429659  C 14.4653332071462 10.4179339429659  16.6083501042944 10.4179339429659  16.6083501042944 10.4179339429659  C 16.6222793246232 10.4179339429659  16.6340629635924 10.4250629717169  16.6479940793111 10.4261657190836  C 16.8840061334854 10.0069974665133  17.1855285485558 9.63027722173448  17.5405616111053 9.31105515655449  Z M 22.8220352236768 10.4864285329258  C 22.2106412010542 9.74240022511766  21.308050847502 9.31515551296025  20.3586254096764 9.32040521169183  C 19.4092018672407 9.31515551296025  18.5066077229088 9.74240022511766  17.8952118048963 10.4864285329258  C 17.2838177822737 11.23048790404  17.0268673559436 12.2143404666256  17.1939213350051 13.1716960291045  C 17.1939213350051 13.1716960291045  20.8107990996682 13.1716960291045  20.8107990996682 13.1716960291045  C 20.8867492680989 12.9570641155774  20.9273087164343 12.731000905404  20.930809501568 12.5027477321502  C 20.9308076061781 12.147958181481  20.650337286657 11.8601721820785  20.3039737374813 11.8595664476094  C 19.957193202529 11.8595664476094  19.6760708688845 11.5716251316764  19.6760708688845 11.2164006947217  C 19.6760708688845 10.8612073210731  19.957193202529 10.573250473487  20.3039737374813 10.573250473487  C 21.3430662803983 10.5750521452411  22.1844753435715 11.4383946117955  22.1844715527918 12.5027477321502  C 22.1844753435715 12.7255027002236  22.1723410574721 12.9488323394598  22.1481255561901 13.170950509758  C 22.1481255561901 13.170950509758  23.5233219027881 13.1716960291045  23.5233219027881 13.1716960291045  C 23.6903796726294 12.2143404666256  23.4334273509095 11.23048790404  22.8220352236768 10.4864285329258  Z M 27.973824364331 11.6252559296653  C 27.6681681039024 11.6832355905089  27.3874779191537 11.8365640694393  27.1701923171292 12.0642736348362  C 26.8924949530227 12.3571229531337  26.7443285342519 12.7538945620028  26.7603388926841 13.1618178977633  C 26.7603388926841 13.1618178977633  26.7603388926841 13.8878605513372  26.7603388926841 13.8878605513372  C 26.744576830328 14.2957217604855  26.8927053413009 14.6924001794363  27.1701885263494 14.9853892826113  C 27.4671240978771 15.2924345317983  27.873397130813 15.4622731579232  28.2952749087438 15.4556877370291  C 28.2952749087438 15.4556877370291  28.4142125199637 15.4556877370291  28.4142125199637 15.4556877370291  C 27.9961804881273 14.2271339806074  27.8458628018272 12.9196949583341  27.973824364331 11.6252714613184  Z M 10.7150579017641 12.6130380004733  C 10.7150579017641 13.8253611794555  9.75559732214631 14.8081420579806  8.57204195231088 14.8081420579806  C 7.38848895171283 14.8081420579806  6.42902837209502 13.8253611794555  6.42902837209502 12.6130380004733  C 6.42902837209502 11.4007148214911  7.38848895171283 10.4179339429659  8.57204195231088 10.4179339429659  C 9.75559732214631 10.4179339429659  10.7150579017641 11.4007148214911  10.7150579017641 12.6130380004733  Z M 9.64354755780014 12.6130380004733  C 9.64354755780014 12.0068997084617  9.16381679414376 11.5155092691992  8.57204195231088 11.5155092691992  C 7.98026521508812 11.5155092691992  7.50053587297416 12.0068997084617  7.50053587297416 12.6130380004733  C 7.50053587297416 13.2192228874439  7.98026521508812 13.7106133267065  8.57204195231088 13.7106133267065  C 9.16381679414376 13.7106133267065  9.64354755780014 13.2192228874439  9.64354755780014 12.6130380004733  Z " fill-rule="nonzero" fill="#fafafa" stroke="none" transform="matrix(1 0 0 1 29 38 )" />
  </g>
</svg>