<?xml version="1.0" encoding="utf-8"?>
<svg version="1.1" xmlns:xlink="http://www.w3.org/1999/xlink" width="26px" height="14px" xmlns="http://www.w3.org/2000/svg">
  <g transform="matrix(1 0 0 1 -16 -682 )">
    <path d="M 25.9219116070926 13.5299667574508  C 25.8235694885481 13.688031297631  25.6474529869546 13.7845550493845  25.4575940207507 13.7844059318938  C 25.4575940207507 13.7844059318938  24.5219899477439 13.7844059318938  24.5219899477439 13.7844059318938  C 23.8843077998371 13.7900873082908  23.2738999246424 13.5329938425127  22.8416174481115 13.0766794091113  C 22.4590805486041 12.7295637141759  22.2206786625359 12.2579200027267  22.171601441163 11.7511591222093  C 22.171601441163 11.7511591222093  21.0827734838918 11.7511591222093  21.0827734838918 11.7511591222093  C 20.5122869321739 13.1111851964676  19.153060280207 14  17.6437964024361 14  C 16.1345286945469 14  14.7753010850504 13.1111851964676  14.2048154908621 11.7511591222093  C 14.2048154908621 11.7511591222093  10.8677597735413 11.7511591222093  10.8677597735413 11.7511591222093  C 10.2972713067642 13.1111851964676  8.93804465479733 14  7.42878029826163 14  C 5.91951546296114 14  4.56028976852385 13.1111851964676  3.98980130174674 11.7511591222093  C 3.98980130174674 11.7511591222093  0.54325470953561 11.7511591222093  0.54325470953561 11.7511591222093  C 0.242960624578871 11.750905622475  -0.000265436475986989 11.5137342534593  0 11.2214639716166  C 0 11.2214639716166  0 9.11728197158883  0 9.11728197158883  C -0.000256282729259634 8.82508624849157  0.243042044516434 8.58806399696652  0.543254529998813 8.58806399696652  C 0.543254529998813 8.58806399696652  0.921676266575942 8.58806399696652  0.921676266575942 8.58806399696652  C 0.921676266575942 8.58806399696652  0.921676266575942 5.48463077976731  0.921676266575942 5.48463077976731  C 0.921418571426256 5.1923604979246  1.16464197803074 4.95523386415607  1.46493043750116 4.95498036442187  C 1.46493043750116 4.95498036442187  4.64041249288114 4.95498036442187  4.64041249288114 4.95498036442187  L 4.64041249288114 4.14421365554073  C 4.64041249288114 4.14421365554073  3.66255575123941 3.34971566489891  3.66255575123941 3.34971566489891  C 3.54771850990866 3.27397889135412  3.47032857498827 3.15522172173185  3.44885094700413 3.0218510380175  C 3.42737403716717 2.88846544255406  3.4637364625572 2.75238082050837  3.54926085068843 2.64606004961349  C 3.63928227651775 2.54222954081405  3.7692932498068 2.47912301873454  3.90865497826261 2.47157767370321  C 4.0480171854832 2.46407706391921  4.18440291198742 2.51279374814272  4.28567267723946 2.60627550308513  C 4.28567267723946 2.60627550308513  5.37218006156031 3.48937910672235  5.37218006156031 3.48937910672235  C 5.49618780311336 3.58994394247476  5.56781963387162 3.7389868744655  5.56765924766606 3.89609706270503  C 5.56765924766606 3.89609706270503  5.56765924766606 4.95498036442187  5.56765924766606 4.95498036442187  C 5.56765924766606 4.95498036442187  5.58808909890132 4.95498036442187  5.58808909890132 4.95498036442187  C 5.76453020302426 4.95498036442187  7.1612029644895 4.96716326341496  7.1612029644895 4.96716326341496  C 7.1612029644895 4.96716326341496  8.58573504924354 6.78123718521564  8.58573504924354 6.78123718521564  C 8.64262379697456 6.83411424743062  8.67440611897497 6.90761425861446  8.67349072069127 6.98415626660929  C 8.7236384601407 7.00131968979307  8.77424868637989 7.01805067225363  8.82346666460184 7.03748068129651  C 8.82346666460184 7.03748068129651  8.83507575329589 0.529680238843615  8.83507575329589 0.529680238843615  C 8.83507575329589 0.237320486506437  9.07843189743915 0.000253499734251329  9.37879360792287 0  C 9.37879360792287 0  15.817973243714 0  15.817973243714 0  C 16.0651039694831 0.0184756571022276  16.2568875701538 0.217487860238567  16.260005286484 0.458715225002344  C 16.2539115682022 0.693903331391255  16.0596010469555 0.883222897629777  15.8179713286548 0.88941127349538  C 15.8179713286548 0.88941127349538  14.7477137001639 0.88941127349538  14.7477137001639 0.88941127349538  C 14.7477137001639 0.88941127349538  15.9600533986629 7.17125398223585  15.9600533986629 7.17125398223585  C 17.1855821096719 6.55332601237465  18.6626806536082 6.65113217454841  19.7909358490901 7.42490283397788  C 20.919191044572 8.1987331404037  21.5107872935308 9.51969043208926  21.325254445994 10.8508771836393  C 21.325254445994 10.8508771836393  22.171712514595 10.8508771836393  22.171712514595 10.8508771836393  C 22.2273717943383 10.2444163488156  22.4712564948127 9.66876318757812  22.8709772202607 9.20042988442327  C 23.2924108865884 8.7444435095015  23.8947889186795 8.48669392676411  24.5248874322695 8.49270336164078  C 24.5248874322695 8.49270336164078  24.8596589259361 8.49270336164078  24.8596589259361 8.49270336164078  C 25.0184135010861 8.49270336164078  25.1692703722153 8.56026849669332  25.2725686638941 8.67765378540076  C 25.3758822760464 8.7950539858573  25.4212864139294 8.95053879344781  25.3968751546779 9.10326492745967  C 25.1405808707759 10.4300228895349  25.3311101076897 11.8018441573104  25.9401276499263 13.0147360034595  C 26.0259720923215 13.1779749205683  26.0191257557855 13.3727820104659  25.9220207654654 13.5299220222036  Z M 15.2389665937446 11.7511442104602  C 15.7369116615981 12.5852030713942  16.6530520307214 13.0985102097551  17.6441411130869 13.0987935329875  C 18.6352321105116 13.0985102097551  19.5513753522236 12.5852030713942  20.0493175474883 11.7511442104602  C 20.0493175474883 11.7511442104602  15.2389665937446 11.7511442104602  15.2389665937446 11.7511442104602  Z M 3.8399225470891 9.47747527046182  C 3.8399225470891 9.47747527046182  0.928638942956574 9.47747527046182  0.928638942956574 9.47747527046182  L 0.928638942956574 10.8472834521125  C 0.928638942956574 10.8472834521125  3.74984510577903 10.8472834521125  3.74984510577903 10.8472834521125  C 3.68448724824706 10.3894480203055  3.71512963127598 9.92347077350435  3.8399225470891 9.47747527046182  Z M 7.34740560397136 6.77583913205099  C 7.34740560397136 6.77583913205099  6.54134235722718 5.87284325514959  6.54134235722718 5.87284325514959  L 1.85170620079219 5.87284325514959  L 1.85170620079219 8.58761664449429  C 1.85170620079219 8.58761664449429  4.21323556409983 8.58761664449429  4.21323556409983 8.58761664449429  C 4.85986774104187 7.4911109998647  6.04878099946791 6.80382848506216  7.34740560397136 6.77583913205099  Z M 10.2150137701961 10.3872112579445  C 10.2150137701961 8.88966903372928  8.96771945418015 7.67564389465065  7.42910346449672 7.67564389465065  C 5.89048795357808 7.67564389465065  4.64319411632688 8.88966903372928  4.64319411632688 10.3872112579445  C 4.64319411632688 11.8847683939088  5.89048795357808 13.0987935329875  7.42910346449672 13.0987935329875  C 8.96771945418015 13.0987935329875  10.2150137701961 11.8847683939088  10.2150137701961 10.3872112579445  Z M 14.7750751080683 6.32161234351986  L 13.9058872021678 1.73044883299587  C 13.9058872021678 1.73044883299587  11.9896406945728 4.22601951095857  11.9896406945728 4.22601951095857  C 11.8430869614007 4.43095167847713  11.5536094897148 4.48141303734221  11.3430765022313 4.33878215745316  C 11.1325425572183 4.19612145406601  11.080676052163 3.91437886706924  11.2272297853351 3.7094765230488  C 11.2272297853351 3.7094765230488  13.2832363536935 1.03220618262425  13.2832363536935 1.03220618262425  C 13.3306809871231 0.968637396323402  13.3948364268782 0.918683036926789  13.4689635797361 0.887577128359299  C 13.4689635797361 0.887577128359299  9.76090057664641 0.887577128359299  9.76090057664641 0.887577128359299  L 9.76090057664641 5.58540438000675  C 9.76090057664641 5.58540438000675  9.8611931829565 5.47064355913627  9.8611931829565 5.47064355913627  C 10.0278761030741 5.28056349369499  10.3213024267703 5.2580169290957  10.5165800528984 5.42025675901655  C 10.7118548064376 5.5824965889374  10.7350337251127 5.86808640719513  10.5683498474655 6.05813664913829  C 10.5683498474655 6.05813664913829  10.3361891392354 6.32161234351986  10.3361891392354 6.32161234351986  L 14.7750751080683 6.32161234351986  Z M 15.2018201910065 7.66793452037962  C 15.2018201910065 7.66793452037962  15.0383641455919 7.68375588614669  15.0383641455919 7.68375588614669  L 14.9510929841144 7.22366878022958  L 9.76231580537372 7.22366878022958  C 9.76231580537372 7.22366878022958  9.76231580537372 7.57575008760655  9.76231580537372 7.57575008760655  C 10.7718651006172 8.35928794267921  11.2833716599895 9.60203311047369  11.1088436999783 10.8472685403635  C 11.1088436999783 10.8472685403635  13.9616144665117 10.8472685403635  13.9616144665117 10.8472685403635  C 13.8964191496268 10.3914312829323  13.9267441115982 9.927452210507  14.0507643010358 9.48335049959691  C 14.0507643010358 9.48335049959691  12.536621810027 9.48335049959691  12.536621810027 9.48335049959691  C 12.2801858117464 9.48335049959691  12.0723023086259 9.2810278881662  12.0723023086259 9.03140520867395  C 12.0723023086259 8.78179744093083  12.2801858117464 8.57947482950013  12.536621810027 8.57947482950013  C 12.536621810027 8.57947482950013  14.3939036457497 8.57947482950013  14.3939036457497 8.57947482950013  C 14.4059752212335 8.57947482950013  14.416188231792 8.5853500586351  14.428261722335 8.58625967532867  C 14.6328053622614 8.24106759602365  14.8941247614278 7.93081374479822  15.2018201910065 7.66793452037962  Z M 19.7790988683547 8.63588597624564  C 19.2492230614151 8.02316220681102  18.4669769268147 7.67131948741925  17.6441411130869 7.67564389465065  C 16.8213072144183 7.67131948741925  16.0390591647587 8.02316220681102  15.5091833578191 8.63588597624564  C 14.979308508409 9.24865448092737  14.7566187253086 10.0588843668418  14.9013981561589 10.8472834521125  C 14.9013981561589 10.8472834521125  18.0360254164075 10.8472834521125  18.0360254164075 10.8472834521125  C 18.10184983023 10.670519578594  18.1370026563712 10.4843613031591  18.1400341950388 10.2963837943371  C 18.1400322799796 10.004217894738  17.8969595645936 9.76721055496204  17.5967759546128 9.76670355549357  C 17.2962323135079 9.76670355549357  17.0525946556665 9.52957692172503  17.0525946556665 9.23705314014805  C 17.0525946556665 8.94452935857114  17.2962323135079 8.7073878130535  17.5967759546128 8.7073878130535  C 18.4973248694961 8.70887898796089  19.2265449307132 9.4198562720414  19.2265411005948 10.2963837943371  C 19.2265449307132 10.4798281314407  19.2160293408057 10.6637496445146  19.1950422073517 10.8466720704005  C 19.1950422073517 10.8466720704005  20.3868792823669 10.8472834521125  20.3868792823669 10.8472834521125  C 20.531661585806 10.0588843668418  20.3089689301168 9.24865448092737  19.7790988683547 8.63588597624564  Z M 24.2439808079031 9.57374552248103  C 23.9790783330279 9.62149294301481  23.7358141117248 9.74776563417006  23.5474986832127 9.93529579051975  C 23.3068293670862 10.1764635082872  23.1784189044992 10.5032246657372  23.1922935081925 10.8391565488674  C 23.1922935081925 10.8391565488674  23.1922935081925 11.4370729514718  23.1922935081925 11.4370729514718  C 23.1786333911264 11.7729451876058  23.3070112977074 12.0996317863103  23.5474967681535 12.3409187980705  C 23.8048405044811 12.5937773271116  24.1569451987036 12.733649533422  24.5225721257319 12.7282216567593  C 24.5225721257319 12.7282216567593  24.6256501856061 12.7282216567593  24.6256501856061 12.7282216567593  C 24.2633554615352 11.716474393864  24.1330816463749 10.6397566402551  24.2439808079031 9.57376043423013  Z M 9.28638338516024 10.3872112579445  C 9.28638338516024 11.3855975936698  8.45485033020776 12.1949476863888  7.42910346449672 12.1949476863888  C 6.40335803508005 12.1949476863888  5.57182498012758 11.3855975936698  5.57182498012758 10.3872112579445  C 5.57182498012758 9.38882492221928  6.40335803508005 8.57947482950013  7.42910346449672 8.57947482950013  C 8.45485033020776 8.57947482950013  9.28638338516024 9.38882492221928  9.28638338516024 10.3872112579445  Z M 8.35774055223972 10.3872112579445  C 8.35774055223972 9.88804045770546  7.94197546105786 9.48336541134592  7.42910346449672 9.48336541134592  C 6.91623051040599 9.48336541134592  6.50046494045934 9.88804045770546  6.50046494045934 10.3872112579445  C 6.50046494045934 10.8864267934307  6.91623051040599 11.2911018397903  7.42910346449672 11.2911018397903  C 7.94197546105786 11.2911018397903  8.35774055223972 10.8864267934307  8.35774055223972 10.3872112579445  Z " fill-rule="nonzero" fill="#fafafa" stroke="none" transform="matrix(1 0 0 1 16 682 )" />
  </g>
</svg>