<?xml version="1.0" encoding="utf-8"?>
<svg version="1.1" xmlns:xlink="http://www.w3.org/1999/xlink" width="70px" height="13px" xmlns="http://www.w3.org/2000/svg">
  <g transform="matrix(1 0 0 1 -146 -342 )">
    <path d="M 0 6  C 0 2.68629121780396  2.68629121780396 0  6 0  C 6 0  64 0  64 0  C 67.3137054443359 0  70 2.68629121780396  70 6  C 70 6  70 7  70 7  C 70 10.3137092590332  67.3137054443359 13  64 13  C 64 13  6 13  6 13  C 2.68629121780396 13  0 10.3137092590332  0 7  C 0 7  0 6  0 6  Z " fill-rule="nonzero" fill="#ffd08f" stroke="none" transform="matrix(1 0 0 1 146 342 )" />
  </g>
</svg>