<?xml version="1.0" encoding="utf-8"?>
<svg version="1.1" xmlns:xlink="http://www.w3.org/1999/xlink" width="23px" height="14px" xmlns="http://www.w3.org/2000/svg">
  <g transform="matrix(1 0 0 1 -17 -1126 )">
    <path d="M 22.3552432808335 9.09880273829585  C 22.3552432808335 9.09880273829585  22.3552432808335 5.50167005487629  22.3552432808335 5.50167005487629  C 22.3552432808335 5.38957902733624  22.3089499274878 5.28203343505033  22.2265142562558 5.20277055101198  C 22.2265142562558 5.20277055101198  20.7869816368457 3.81757143887854  20.7869816368457 3.81757143887854  C 20.7045768432881 3.73827884611307  20.5928073813752 3.69371575538686  20.4762364410929 3.69365633793253  C 20.4762364410929 3.69365633793253  13.4571080574284 3.69365633793253  13.4571080574284 3.69365633793253  C 13.3491905853971 3.69365633793253  13.24510966441 3.73186176104849  13.1646347255025 3.80090484294696  C 13.1646347255025 3.80090484294696  10.863777098096 5.77427733521208  10.863777098096 5.77427733521208  C 10.863777098096 5.77427733521208  10.1277614122374 1.01422623620138  10.1277614122374 1.01422623620138  C 10.1082930385276 0.451750905055124  9.62674798682597 0  9.03761739809277 0  C 9.03761739809277 0  5.01766068724977 0  5.01766068724977 0  C 4.41623306468638 0  3.92677560891949 0.47076449043164  3.92677560891949 1.04943107787506  C 3.92677560891949 1.04943107787506  3.92677560891949 3.03403346900316  3.92677560891949 3.03403346900316  C 3.92677560891949 3.03403346900316  1.70774381867556 3.03403346900316  1.70774381867556 3.03403346900316  C 0.766098260143736 3.03403346900316  0 3.77116640706895  0 4.6771340415328  C 0 4.6771340415328  0 9.22821395376476  0 9.22821395376476  C 0 9.93507369886385  0.467233249616798 10.5372993069379  1.11942376889537 10.7687005827155  C 1.10580671448455 10.8801974357124  1.09685218890827 10.9930608901583  1.09685218890827 11.1080336642319  C 1.09685218890827 12.7026793027786  2.4452339134868 14  4.10260080637718 14  C 5.23845921747247 14  6.22881430737181 13.3904066275926  6.73982437987057 12.4936486985455  C 7.25084989120654 13.3904066275926  8.24118954226868 14  9.37706339220117 14  C 9.91637285328842 14  10.4347935676434 13.8609928656614  10.8954884697058 13.5991698532813  C 11.1859624722143 13.7667567831391  11.5141535540035 13.8568633525874  11.8605238665964 13.8568633525874  C 12.1000111092502 13.8568633525874  12.3477967268994 13.8144392902161  12.5972960554778 13.726352914214  C 12.617490054536 13.7191039847892  12.6371359748736 13.7105181626425  12.6561025863744 13.7005954477742  C 12.6561025863744 13.7005954477742  16.6455521549093 11.6068729018211  16.6455521549093 11.6068729018211  C 16.7963587166836 11.5277585614185  16.8813495154722 11.3733623064158  16.8727732414074 11.2137373154345  C 17.0343947086406 12.6984012460689  18.3425351040561 13.8597153903939  19.9277022747784 13.8597153903939  C 21.6217286866013 13.8597153903939  23 12.5336366452905  23 10.903756456343  C 23 10.2238722354968  22.757772363743 9.59874119878961  22.3552046837405 9.09880273829585  Z M 13.6245268080305 4.53937467373451  L 20.2941739534063 4.53937467373451  L 21.4763179984286 5.67674358397596  C 21.4763179984286 5.67674358397596  21.4763179984286 8.35513388025688  21.4763179984286 8.35513388025688  C 21.0209726534562 8.09797513803951  20.4928100328277 7.94791635720076  19.9277794689644 7.94791635720076  C 19.3627411856826 7.94791635720076  18.8345785650541 8.09797513803951  18.379264097756 8.35513388025688  C 18.379264097756 8.35513388025688  18.379264097756 5.81711731976352  18.379264097756 5.81711731976352  C 18.379264097756 5.58354730690391  18.1825501535661 5.39430271495325  17.9397744385885 5.39430271495325  C 17.9397744385885 5.39430271495325  14.8451598741936 5.39430271495325  14.8451598741936 5.39430271495325  C 14.735142720303 5.39430271495325  14.6291242252473 5.43393415697245  14.5480085745959 5.50550248067872  C 14.5480085745959 5.50550248067872  11.2696950057711 8.39945930116588  11.2696950057711 8.39945930116588  L 11.0184279303333 6.77448105219821  L 13.6245190886119 4.53937467373451  Z M 5.01766068724977 0.845718335802015  C 5.01766068724977 0.845718335802015  9.03759423983696 0.845718335802015  9.03759423983696 0.845718335802015  C 9.15432728790981 0.845718335802015  9.24933017262298 0.937132089245016  9.24933017262298 1.04943107787506  C 9.24933017262298 1.07022718688063  9.25091265343603 1.09099358715907  9.25402357913193 1.11167086125603  C 9.25402357913193 1.11167086125603  10.0255331517144 6.10131100368815  10.0255331517144 6.10131100368815  L 7.09469377234226 6.10131100368815  C 7.09469377234226 6.10131100368815  4.86087929547887 3.21394952062844  4.86087929547887 3.21394952062844  C 4.84442921444176 3.19303457671427  4.82598752340578 3.17363477788482  4.80578580492895 3.15598779395727  C 4.80578580492895 3.15598779395727  4.80578580492895 1.04943107787506  4.80578580492895 1.04943107787506  C 4.80578580492895 0.937132089245016  4.90078868964212 0.845718335802015  5.01766840666837 0.845718335802015  Z M 0.878956160079262 9.22821395376476  C 0.878956160079262 9.22821395376476  0.878956160079262 4.67716375025992  0.878956160079262 4.67716375025992  C 0.878956160079262 4.237474588428  1.25077739579708 3.87975180480517  1.70774381867556 3.87975180480517  C 1.70774381867556 3.87975180480517  4.28035585848493 3.87975180480517  4.28035585848493 3.87975180480517  C 4.28035585848493 3.87975180480517  6.4780743339736 6.72041116878374  6.4780743339736 6.72041116878374  C 6.52007569057751 6.77477813946974  6.57508426752283 6.81850938583573  6.63845297481221 6.84806956935081  C 6.71459731988499 6.90888333382845  6.8111054912252 6.94694021330869  6.91784961162934 6.94694021330869  C 6.91784961162934 6.94694021330869  10.1198798858466 6.94694021330869  10.1198798858466 6.94694021330869  C 10.1321846390954 6.94694021330869  10.1437637669957 6.94444468022802  10.1557983405935 6.9434940009592  C 10.1557983405935 6.9434940009592  10.3780635603502 8.3809507641509  10.3780635603502 8.3809507641509  C 10.0565420562316 8.27174148314454  9.71806870886683 8.21600791100963  9.37709426987557 8.21603761973678  C 8.24123585878028 8.21603761973678  7.25090392713674 8.82563099214416  6.73987069638218 9.72238892119124  C 6.22886834330201 8.82563099214416  5.23851325340267 8.21603761973678  4.10265484230738 8.21603761973678  C 2.87447218475321 8.21603761973678  1.81756798710119 8.92925503244618  1.35166247748363 9.94710573335993  C 1.07265953101511 9.81864519715985  0.878963879497862 9.54508723755523  0.878963879497862 9.22821395376476  Z M 6.22940098318543 11.1080336642319  C 6.22940098318543 12.2363414126924  5.27531944128862 13.1543410816523  4.10260852579578 13.1543410816523  C 2.92992076855874 13.1543410816523  1.97581606840613 12.2363414126924  1.97581606840613 11.1080336642319  C 1.97581606840613 9.97975562449867  2.92992076855874 9.06175595553877  4.10260852579578 9.06175595553877  C 5.27531944128862 9.06175595553877  6.22940098318543 9.97975562449867  6.22940098318543 11.1080336642319  Z M 10.2311861826435 12.9809015325459  C 9.9635153426801 13.0951315884408  9.67451574912427 13.1543410816523  9.37708655045697 13.1543410816523  C 8.20439107380133 13.1543410816523  7.25030181248593 12.2363414126924  7.25030181248593 11.1080336642319  C 7.25030181248593 9.97975562449867  8.20439107380133 9.06175595553877  9.37708655045697 9.06175595553877  C 9.97561939104527 9.06157770317584  10.5464858353703 9.30414946036222  10.9494935222331 9.72990522916036  C 10.933390815033 9.73664911022362  10.9186776031809 9.74514580618878  10.9028682338876 9.75227590070497  C 10.8733414577417 9.76552599301421  10.8441543360142 9.77948909477511  10.8153454657981 9.79422462344191  C 10.7837807631417 9.81029704483047  10.7527101032758 9.82726072803361  10.7221257667816 9.84499683814261  C 10.6942586656347 9.86115838571265  10.6668084130923 9.87803294273431  10.639836764503 9.89553138302613  C 10.6112671962635 9.91421817240396  10.5832534261633 9.93367738868777  10.555818612458 9.95384961442316  C 10.5298582077054 9.97277407361823  10.5044227234176 9.99235212481061  10.479543037269 10.0125540592732  C 10.4538142150744 10.0336472555502  10.428718385205 10.0554534612789  10.4042632670795 10.0779429677321  C 10.3805183354651 10.0993629600078  10.3573600796644 10.1213771268266  10.3348039385145 10.143926050734  C 10.3118772652718 10.167366236456  10.2896299008659 10.191400596721  10.2680695647154 10.2159400053475  C 10.2466713363555 10.2397366957954  10.2259292585767 10.2640384346047  10.2058278925417 10.2888749305028  C 10.1857651235996 10.3143947271253  10.166389382913 10.3404195721094  10.1477238287377 10.3668900480008  C 10.1291045910739 10.3929446017121  10.1105239505031 10.4189397379691  10.0932478916757 10.4459449709491  C 10.0756784949416 10.4733958348365  10.0595603489043 10.501678543084  10.0434267640298 10.5300503775131  C 10.0276251141551 10.5577983286719  10.0117076730014 10.5854571536493  9.99730323789335 10.6140963666227  C 9.98249739301809 10.6434485890477  9.96932034546748 10.6737217820144  9.95599662896346 10.7039652662539  C 9.94309748048246 10.7332283624974  9.92988955525744 10.7623429151052  9.91837990212449 10.7923784382547  C 9.90636848678251 10.8236617279444  9.89617113481159 10.8558956969031  9.88571132260826 10.8879217047716  C 9.87580730854415 10.9183731501012  9.86544784878263 10.9484977994321  9.85694876890376 10.9794840018505  C 9.84777809960668 11.012876611168  9.84065307623866 11.0470416473914  9.83315752077782 11.0811472661605  C 9.82633355473521 11.1121631773059  9.81885343811158 11.142911709907  9.8133649314868 11.1744623781411  C 9.80720483544381 11.2099643070864  9.80336828439949 11.2462089542104  9.79899137405315 11.2824238926072  C 9.79519342010184 11.3136180561155  9.79056176894169 11.3445745498067  9.78810699382681 11.3762737616766  C 9.78518133417732 11.414182097521  9.78478764382871 11.4528034428171  9.78379183882928 11.4912168270231  C 9.78298901929485 11.5220841945328  9.781151797668 11.5525653485895  9.78159952394681 11.5836406771892  C 9.78220163859763 11.6246387206574  9.78565221871194 11.6662903561228  9.78847752591963 11.7077340304981  C 9.79044597766269 11.7370862529231  9.79115616417391 11.7661116793495  9.79429796754421 11.7956421541374  C 9.79906084882056 11.8410073804966  9.80701956939741 11.8867885290361  9.81447652776524 11.9325399688483  C 9.81876852450697 11.9588321923767  9.82150891811006 11.984886746088  9.82666548973502 12.0113275132522  C 9.83724109321735 12.0652488530309  9.85129815448839 12.1194672800812  9.86560995657324 12.1737451245856  C 9.87051178738439 12.1922833703277  9.87383113738249 12.2107324898884  9.87921157214686 12.229359861812  C 9.90052488690213 12.3036613884162  9.92501088270209 12.3771607793872  9.95262324303515 12.4495609474537  C 9.95298605570937 12.4505116267225  9.95352641501138 12.4514028885371  9.95388150826699 12.4523535678059  C 9.98815572685207 12.541806545257  10.0273008985739 12.6264467089096  10.069201902736 12.7081754173015  C 10.0740188199425 12.7175039576269  10.0784497662191 12.7270998764966  10.0833593164488 12.7363392906405  C 10.1253915507272 12.8157210095875  10.171970522561 12.8927854478166  10.2228878076482 12.9671761006022  C 10.2258675032279 12.9715432834934  10.2281756093894 12.9765343496547  10.2311861826435 12.9809015325459  Z M 12.2653919333418 12.9423693134313  C 11.8012310123279 13.0964981898897  11.4365193611409 12.9822384252677  11.1726001586173 12.7483713251366  C 11.1435674252618 12.7226732761511  11.1158083959753 12.695668043171  11.0894311426183 12.6674447523778  C 11.0802681927398 12.657640872418  11.0705494447221 12.6484311670012  11.0616566744946 12.63833019977  C 11.0298217921872 12.6020558439189  10.9998858868555 12.5628997415341  10.9711156137324 12.5221690766103  C 10.9318006148013 12.4665840481112  10.8961909367984 12.4087411563485  10.8644872846072 12.3488483624125  C 10.8594001877497 12.3392227348157  10.8548688890313 12.3293297286745  10.8499747776388 12.3195555574418  C 10.8242536748628 12.2682782943795  10.799937506272 12.2155155949597  10.7786859468656 12.160019692642  C 10.7786859468656 12.160019692642  10.7777904943079 12.1578806642871  10.7777904943079 12.1578806642871  C 10.6437968262449 11.8071394315447  10.6105570097523 11.4038137517454  10.7382747904933 11.0714919298365  C 10.7796894712836 10.9638572113691  10.8384882827616 10.8639170532338  10.91575966295 10.7754147550515  C 10.9179596972511 10.7729192219709  10.9196888470176 10.7700671841644  10.9219429172488 10.7675419423566  C 10.9341550374744 10.7538462191401  10.9485285949081 10.7415170973725  10.9616670453657 10.728415548699  C 11.0063701984797 10.6838524579728  11.0547863919404 10.6416957741458  11.1106904214433 10.6047381175702  C 11.1106904214433 10.6047381175702  11.1116939458614 10.6041736517543  11.1116939458614 10.6041736517543  C 11.1837701573318 10.5566693970402  11.2652717789132 10.5159981495707  11.35705566607 10.4835265107949  C 11.35705566607 10.4835265107949  11.7528534159602 10.3449352986364  11.7528534159602 10.3449352986364  L 11.786263059662 10.3332300601389  C 11.7862707790806 10.3331706426847  14.4878665842815 9.38700710038579  14.4878665842815 9.38700710038579  C 14.3932882675913 9.84330344069504  14.4580927867403 10.2762190127366  14.551675298431 10.5457365854487  C 14.551675298431 10.5457365854487  14.5652614751675 10.585783949648  14.5652614751675 10.585783949648  C 14.6352302853601 10.7923784382547  14.7615508513344 11.1655794687231  15.1777047080734 11.4138850102495  C 15.1777047080734 11.4138850102495  12.2653764945046 12.9423693134313  12.2653764945046 12.9423693134313  Z M 16.8580214324623 11.1203033685453  C 16.8019321369129 10.930345767143  16.6187040170176 10.8024794054859  16.411808159694 10.8133230908959  C 15.5820401349354 10.8568463761719  15.4936296337069 10.5973703532368  15.40107380469 10.3237232674507  C 15.40107380469 10.3237232674507  15.3854805791175 10.2782986236371  15.3854805791175 10.2782986236371  C 15.3827710631888 10.2703069760335  15.113950029854 9.46876551750481  15.702795000099 8.922719112473  C 15.8523355772229 8.78418731776879  15.8807044405788 8.56380797976414  15.7707953585485 8.39431969136874  C 15.6608631182625 8.22486111170054  15.4426660321081 8.15252036108839  15.2475654464056 8.22088014226236  C 15.2475654464056 8.22088014226236  11.8184761934809 9.42191485478801  11.8184761934809 9.42191485478801  C 11.764733601186 9.35010886126446  11.7076176229628 9.28076869209451  11.6472749277647 9.2139834734595  C 11.6472749277647 9.2139834734595  15.0162685068866 6.23999134202812  15.0162685068866 6.23999134202812  L 17.5002924988396 6.23999134202812  C 17.5002924988396 6.23999134202812  17.5002924988396 9.09889186447725  17.5002924988396 9.09889186447725  C 17.0978483295346 9.59883032497101  16.8556438515334 10.2239613616783  16.8556438515334 10.9037861650702  C 16.8556438515334 10.9973983643223  16.8613639407162 11.0896736708528  16.8702412721065 11.1811468417501  C 16.8674468425732 11.160826072379  16.8639731042031 11.1405053030078  16.8580445907181 11.1203033685453  Z M 22.1210592787579 10.9037861650702  C 22.1210284010835 12.0675067162944  21.1371962199014 13.0140564720462  19.9277408718714 13.0140564720462  C 18.7184399122134 13.0140564720462  17.7345614145197 12.0675067162944  17.7345614145197 10.9037861650702  C 17.7345614145197 9.74024386620884  18.7183858762832 8.79360498427557  19.9277408718714 8.79360498427557  C 21.1371962199014 8.79360498427557  22.1210592787579 9.74021415748172  22.1210592787579 10.9037861650702  Z " fill-rule="nonzero" fill="#f5f5f5" stroke="none" transform="matrix(1 0 0 1 17 1126 )" />
  </g>
</svg>