<?xml version="1.0" encoding="utf-8"?>
<svg version="1.1" xmlns:xlink="http://www.w3.org/1999/xlink" width="15px" height="8px" xmlns="http://www.w3.org/2000/svg">
  <g transform="matrix(1 0 0 1 -132 -43 )">
    <path d="M 0.862715331920915 0.452261306532663  C 0.862715331920915 0.202563450162203  0.669551660704034 0  0.431361457349138 0  C 0.193171253994242 0  0 0.202563450162203  0 0.452261306532663  C 0 0.452261306532663  0 1.45525093823548  0 1.45525093823548  C 0 1.70498059919852  0.193171253994242 1.90754404936073  0.431361457349138 1.90754404936073  C 0.669551660704034 1.90754404936073  0.862715331920915 1.70498059919852  0.862715331920915 1.45525093823548  C 0.862715331920915 1.45525093823548  0.862715331920915 0.452261306532663  0.862715331920915 0.452261306532663  Z M 13.8484642600953 5.58507728516004  C 13.3627115405323 5.58507728516004  12.950102291667 5.89774823484511  12.779429138187 6.3402455314548  C 12.779429138187 6.3402455314548  4.23667213132157 6.3402455314548  4.23667213132157 6.3402455314548  C 4.06599897784161 5.89774823484511  3.65153953129342 5.58507728516004  3.16766734052279 5.58507728516004  C 2.53188178753358 5.58507728516004  2.01613160061812 6.12588257744424  2.01613160061812 6.79257044717257  C 2.01613160061812 7.45922651230838  2.53188178753358 8  3.16766734052279 8  C 3.65153953129342 8  4.06599897784161 7.68732905031487  4.23667213132157 7.24486355829782  C 4.23667213132157 7.24486355829782  12.779429138187 7.24486355829782  12.779429138187 7.24486355829782  C 12.950102291667 7.68732905031487  13.3645920693248 8  13.8484642600953 8  C 14.4842346475298 8  15 7.45922651230838  15 6.79257044717257  C 15 6.12588257744424  14.4842346475298 5.58507728516004  13.8484642600953 5.58507728516004  Z M 2.44748547518988 0.452261306532663  C 2.44748547518988 0.202563450162203  2.25430663841829 0  2.01613160061812 0  C 1.7779262317085 0  1.58477772604644 0.202563450162203  1.58477772604644 0.452261306532663  C 1.58477772604644 0.452261306532663  1.58477772604644 1.45525093823548  1.58477772604644 1.45525093823548  C 1.58477772604644 1.70498059919852  1.7779262317085 1.90754404936073  2.01613160061812 1.90754404936073  C 2.25430663841829 1.90754404936073  2.44748547518988 1.70498059919852  2.44748547518988 1.45525093823548  C 2.44748547518988 1.45525093823548  2.44748547518988 0.452261306532663  2.44748547518988 0.452261306532663  Z M 3.16766734052279 1.45525093823548  C 3.16766734052279 1.70498059919852  3.36084617729449 1.90754404936073  3.59902121509458 1.90754404936073  C 3.83721141844948 1.90754404936073  4.03039025522115 1.70498059919852  4.03039025522115 1.45525093823548  C 4.03039025522115 1.45525093823548  4.03039025522115 0.452261306532663  4.03039025522115 0.452261306532663  C 4.03039025522115 0.202563450162203  3.83721141844948 0  3.59902121509458 0  C 3.36084617729449 0  3.16766734052279 0.202563450162203  3.16766734052279 0.452261306532663  C 3.16766734052279 0.452261306532663  3.16766734052279 1.45525093823548  3.16766734052279 1.45525093823548  Z " fill-rule="nonzero" fill="#ffffff" stroke="none" transform="matrix(1 0 0 1 132 43 )" />
  </g>
</svg>