<?xml version="1.0" encoding="utf-8"?>
<svg version="1.1" xmlns:xlink="http://www.w3.org/1999/xlink" width="72px" height="75px" xmlns="http://www.w3.org/2000/svg">
  <defs>
    <mask fill="white" id="clip5101">
      <path d="M 9.0743102310007 1.2537088379785  C 29.4914929762957 -7.54924850430468  72 32.8938664331923  72 32.8938664331923  C 72 32.8938664331923  9.0743102310007 75  9.0743102310007 75  C 9.0743102310007 75  -11.3428725142943 10.0566661802617  9.0743102310007 1.2537088379785  Z " fill-rule="evenodd" />
    </mask>
  </defs>
  <g transform="matrix(1 0 0 1 -9 -42 )">
    <path d="M 9.0743102310007 1.2537088379785  C 29.4914929762957 -7.54924850430468  72 32.8938664331923  72 32.8938664331923  C 72 32.8938664331923  9.0743102310007 75  9.0743102310007 75  C 9.0743102310007 75  -11.3428725142943 10.0566661802617  9.0743102310007 1.2537088379785  Z " fill-rule="nonzero" fill="#31c19a" stroke="none" fill-opacity="0.2" transform="matrix(1 0 0 1 9 42 )" />
    <path d="M 9.0743102310007 1.2537088379785  C 29.4914929762957 -7.54924850430468  72 32.8938664331923  72 32.8938664331923  C 72 32.8938664331923  9.0743102310007 75  9.0743102310007 75  C 9.0743102310007 75  -11.3428725142943 10.0566661802617  9.0743102310007 1.2537088379785  Z " stroke-width="4" stroke-dasharray="6,2" stroke="#31c19a" fill="none" transform="matrix(1 0 0 1 9 42 )" mask="url(#clip5101)" />
  </g>
</svg>