<?xml version="1.0" encoding="utf-8"?>
<svg version="1.1" xmlns:xlink="http://www.w3.org/1999/xlink" width="26px" height="16px" xmlns="http://www.w3.org/2000/svg">
  <g transform="matrix(1 0 0 1 -130 -37 )">
    <path d="M 25.0719936735065 7.53028769213416  C 25.2349792220222 6.99240784238215  25.1071851179075 6.38169009630954  24.6849027617711 5.95774877212059  C 24.6849027617711 5.95774877212059  20.1546473561631 1.38951539409419  20.1546473561631 1.38951539409419  C 20.1342753326514 1.36710373368786  20.1139014370553 1.34469207328152  20.0916741778057 1.32228796397371  C 20.0694487906406 1.29986875246886  20.047221531391 1.27932221339688  20.024996144226 1.25878322542342  C 20.024996144226 1.25878322542342  20.0101785954211 1.24383960145302  20.0101785954211 1.24383960145302  C 19.6916190809188 0.96182117394097  19.2860038930717 0.806819774628026  18.8563174427441 0.806819774628026  C 18.3877346927931 0.806819774628026  17.9487832962829 0.989843300547407  17.6191092161136 1.32228796397371  C 17.6191092161136 1.32228796397371  14.1315917715262 4.83716575180389  14.1315917715262 4.83716575180389  L 13.0147679385657 0.859111131876632  C 13.0147679385657 0.859111131876632  13.2462820761878 0.859111131876632  13.2462820761878 0.859111131876632  C 13.48150013299 0.859111131876632  13.6722674154621 0.666739345989918  13.6722674154621 0.429551790389056  C 13.6722674154621 0.192371785886714  13.48150013299 0  13.2462820761878 0  C 13.2462820761878 0  8.60860084580778 0  8.60860084580778 0  C 7.65846928866981 0  6.88613942478908 0.778805199120108  6.88613942478908 1.73689613039237  C 6.88613942478908 1.73689613039237  6.88613942478908 4.20776658799366  6.88613942478908 4.20776658799366  C 6.88613942478908 4.20776658799366  1.69282761046703 4.20776658799366  1.69282761046703 4.20776658799366  C 1.52058132795882 4.20776658799366  1.35944785603843 4.27500912031118  1.23720857764636 4.3982657014475  C 1.23720857764636 4.3982657014475  0.188915088871451 5.45534398321391  0.188915088871451 5.45534398321391  C 0.0666759128590028 5.57861566654726  0 5.74110020449319  0 5.91478302154376  C 0 5.91478302154376  0 8.96462640704102  0 8.96462640704102  C 0 9.13830922409159  0.0666759128590028 9.30080131313603  0.188915088871451 9.42406544537087  C 0.188915088871451 9.42406544537087  1.30203219452513 10.5465060359234  1.30203219452513 10.5465060359234  C 1.42427158992248 10.6697777192568  1.58540529585343 10.7370127004758  1.75765134435108 10.7370127004758  C 1.75765134435108 10.7370127004758  3.21526042999477 10.7370127004758  3.21526042999477 10.7370127004758  C 2.65036782500215 11.2954315382012  2.29846718761498 12.0723640648885  2.29846718761498 12.9296100754308  C 2.29846718761498 14.6216828850105  3.66347115643412 16  5.3433325926599 16  C 5.3433325926599 16  16.131865383876 16  16.131865383876 16  C 17.8098746265011 16  19.1767321929843 14.6235555574433  19.1767321929843 12.9296100754308  C 19.1767321929843 11.2356721445167  17.8117279901546 9.85922015086151  16.131865383876 9.85922015086151  C 16.131865383876 9.85922015086151  15.103947779787 9.85922015086151  15.103947779787 9.85922015086151  L 18.3247652586047 6.56845141599615  L 18.3414342989785 5.58233835811745  L 19.1248754523784 4.79234243099122  C 19.1248754523784 4.79234243099122  22.4808958097133 8.18022584391785  22.4808958097133 8.18022584391785  C 22.6123947690503 8.31282313392298  22.7624161324146 8.41741339951871  22.9216986977924 8.49211641717365  C 22.9216986977924 8.49211641717365  21.6363348416094 10.6921893796631  21.6363348416094 10.6921893796631  C 21.6363348416094 10.6921893796631  21.4548268890665 10.5838537692016  21.4548268890665 10.5838537692016  C 21.2788752833148 10.4792710547044  21.0510631927883 10.5390379994875  20.9473497115766 10.7164661614038  C 20.9473497115766 10.7164661614038  20.8917843715794 10.8135883905636  20.8917843715794 10.8135883905636  C 20.7880690182832 10.9910014502829  20.8473335972493 11.2207209694478  21.0232870750854 11.3253112350435  C 21.0232870750854 11.3253112350435  21.9752682517078 11.8912056603035  21.9752682517078 11.8912056603035  C 23.2458145590859 12.6457265265844  24.8812263910344 12.219904978864  25.6313313357712 10.9387100930343  C 26.296235842901 9.79759563584261  26.0332341800579 8.36324936983723  25.0719955455909 7.53028769213416  Z M 13.3574071399287 5.23310005158344  L 11.9275782671727 5.23310005158344  C 11.9275782671727 5.23310005158344  11.0996863394426 4.3982657014475  11.0996863394426 4.3982657014475  C 10.977447646077 4.27500912031118  10.8163126530879 4.20776658799366  10.6440677746431 4.20776658799366  C 10.6440677746431 4.20776658799366  9.86433054042328 4.20776658799366  9.86433054042328 4.20776658799366  L 9.86433054042328 0.859111131876632  L 12.1276067516583 0.859111131876632  L 13.3574090120132 5.23310005158344  Z M 7.7381096353165 4.20776658799366  C 7.7381096353165 4.20776658799366  7.7381096353165 1.73689613039237  7.7381096353165 1.73689613039237  C 7.7381096353165 1.25318031032183  8.12890540227424 0.859111131876632  8.60860084580778 0.859111131876632  C 8.60860084580778 0.859111131876632  9.01606471709707 0.859111131876632  9.01606471709707 0.859111131876632  L 9.01606471709707 4.20776658799366  L 7.7381096353165 4.20776658799366  Z M 1.8428482717996 9.87789401750062  L 1.8428482717996 9.87602889616626  L 0.85196997651686 8.87685243784856  L 0.85196997651686 6.00255699073622  L 1.77802453791554 5.06874284120465  L 10.5607244448585 5.06874284120465  C 10.5607244448585 5.06874284120465  11.3886163725886 5.90171207000623  11.3886163725886 5.90171207000623  C 11.5108560019965 6.02497620224107  11.6719891229011 6.09221118346007  11.8442358734304 6.09221118346007  C 11.8442358734304 6.09221118346007  13.4259376011196 6.09221118346007  13.4259376011196 6.09221118346007  L 13.4259376011196 8.21010554076012  C 13.4259376011196 8.21010554076012  9.1271907168802 8.21010554076012  9.1271907168802 8.21010554076012  C 8.89197359612024 8.21010554076012  8.70120631364817 8.40246977554832  8.70120631364817 8.63965733114918  C 8.70120631364817 8.87685243784856  8.89197359612024 9.06920912153823  9.1271907168802 9.06920912153823  C 9.1271907168802 9.06920912153823  13.4259376011196 9.06920912153823  13.4259376011196 9.06920912153823  L 13.4259376011196 9.85922770196003  C 13.4259376011196 9.85922770196003  5.3433325926599 9.85922770196003  5.3433325926599 9.85922770196003  C 5.23220659287678 9.85922770196003  5.12108012507252 9.86483061706161  5.01365757644837 9.87789401750062  C 5.01365757644837 9.87789401750062  1.8428482717996 9.87789401750062  1.8428482717996 9.87789401750062  Z M 5.3433325926599 10.7183237316396  C 5.3433325926599 10.7183237316396  16.131865383876 10.7183237316396  16.131865383876 10.7183237316396  C 17.3412937486346 10.7183237316396  18.3247652586047 11.7100472557184  18.3247652586047 12.9296100754308  C 18.3247652586047 14.1491653440446  17.3412937486346 15.1408813170248  16.131865383876 15.1408813170248  C 16.131865383876 15.1408813170248  5.3433325926599 15.1408813170248  5.3433325926599 15.1408813170248  C 4.13390609998573 15.1408813170248  3.15043693012128 14.1491653440446  3.15043693012128 12.9296100754308  C 3.15043693012128 11.7100472557184  4.13390656800685 10.7183237316396  5.3433325926599 10.7183237316396  Z M 19.4878876132953 3.20859012967596  C 19.4878876132953 3.20859012967596  17.4931647314833 5.22002910004592  17.4931647314833 5.22002910004592  L 17.4764956911095 6.20986484949481  L 14.2779073436259 9.47822192395383  L 14.2779073436259 5.90544231267494  C 14.2779073436259 5.90544231267494  18.221044289055 1.92926036518056  18.221044289055 1.92926036518056  C 18.389586184362 1.7593077907987  18.6155430391506 1.66592335540614  18.8544640790907 1.66592335540614  C 19.0952403547686 1.66592335540614  19.3211953374728 1.7593077907987  19.4878876132953 1.92926036518056  C 19.8379355890607 2.28224401658032  19.8379355890607 2.85559892717768  19.4878876132953 3.20859012967596  Z M 22.4827491733667 5.95774877212059  C 22.3012412208237 6.13890717670562  22.1752967361935 6.35367552080162  22.1030660999915 6.58152991863219  C 22.1030660999915 6.58152991863219  19.724955289582 4.18535492758732  19.724955289582 4.18535492758732  C 19.724955289582 4.18535492758732  20.0916760498902 3.81557008198133  20.0916760498902 3.81557008198133  C 20.3231873793856 3.5821203201477  20.4750602343187 3.30010189263565  20.5491442341742 3.00128227091737  C 20.5491442341742 3.00128227091737  23.1013514145974 5.57487787278004  23.1013514145974 5.57487787278004  C 22.8753964318934 5.64958089043498  22.6624037622562 5.77658281643704  22.4827491733667 5.95774877212059  Z M 23.0846805021391 7.57136566808108  C 22.8087183983136 7.29496525786765  22.8087183983136 6.84299425597374  23.0846805021391 6.56472117332744  C 23.3606463501337 6.28644809068114  23.8070055850041 6.28644809068114  24.0829676888296 6.56472117332744  C 24.3589335368241 6.84299425597374  24.3589335368241 7.29309258543478  24.0829676888296 7.57136566808108  C 23.8070055850041 7.84965385292442  23.3606463501337 7.84965385292442  23.0846805021391 7.57136566808108  Z M 24.5978564488487 8.25866665534002  C 25.1849702288163 8.83389423837025  25.3294371174737 9.75836767903301  24.8960439398393 10.5016902662093  C 24.3867152707805 11.3738647985249  23.2717466735579 11.6633588135714  22.4068136819423 11.1497481944616  C 22.4068136819423 11.1497481944616  22.3697670018034 11.1273365340552  22.3697670018034 11.1273365340552  C 22.3697670018034 11.1273365340552  23.8366388105294 8.61724567074284  23.8366388105294 8.61724567074284  C 24.1107494227859 8.57242990102869  24.3756044492824 8.45288846036405  24.5978564488487 8.25866665534002  Z " fill-rule="nonzero" fill="#ffffff" stroke="none" transform="matrix(1 0 0 1 130 37 )" />
  </g>
</svg>