<?xml version="1.0" encoding="utf-8"?>
<svg version="1.1" xmlns:xlink="http://www.w3.org/1999/xlink" width="20px" height="26px" xmlns="http://www.w3.org/2000/svg">
  <defs>
    <filter x="7px" y="5px" width="20px" height="26px" filterUnits="userSpaceOnUse" id="filter209">
      <feOffset dx="0" dy="0" in="SourceAlpha" result="shadowOffsetInner" />
      <feGaussianBlur stdDeviation="1.5" in="shadowOffsetInner" result="shadowGaussian" />
      <feComposite in2="shadowGaussian" operator="atop" in="SourceAlpha" result="shadowComposite" />
      <feColorMatrix type="matrix" values="0 0 0 0 1  0 0 0 0 0.815686274509804  0 0 0 0 0.56078431372549  0 0 0 1 0  " in="shadowComposite" />
    </filter>
    <g id="widget210">
      <path d="M 5.89499596953154 19.4159103428426  C 5.58510220229882 19.7961175919782  5.15287921623548 20  4.71249996027796 20  C 4.51406532854406 20  4.3129020537911 19.9586749221633  4.12262369195146 19.8732667552938  C 3.52729013758671 19.6060252399357  3.19021374723402 18.9916350347081  3.27993271606962 18.3359197516437  C 3.27993271606962 18.3359197516437  3.7828334881612 12.8670240307695  3.7828334881612 12.8670240307695  C 3.7828334881612 12.8670240307695  1.50483179547044 12.8670240307695  1.50483179547044 12.8670240307695  C 0.923096967456456 12.8670240307695  0.403898485158209 12.5336578818624  0.148369964165375 11.9964093249335  C -0.0990022869333655 11.4756862901293  -0.0337669573617474 10.8723206146683  0.319636802360869 10.4177297284298  C 0.319636802360869 10.4177297284298  8.22461943586158 0.581985452430319  8.22461943586158 0.581985452430319  C 8.681326061189 0.0227028660019885  9.42614179834097 -0.153621975111767  10.0839968688398 0.141169592137489  C 10.692899490392 0.413927129887297  11.040860793658 1.0255668389359  10.951156654404 1.66474908485882  C 10.951156654404 1.66474908485882  10.2443787941219 7.1308792795203  10.2443787941219 7.1308792795203  C 10.2443787941219 7.1308792795203  12.4951830341113 7.1308792795203  12.4951830341113 7.1308792795203  C 13.0660329492118 7.1308792795203  13.5988301578609 7.47251946201497  13.8516448654162 8.00149398535624  C 14.0990022869333 8.52220950514365  14.0337669573618 9.12833319180051  13.6803780272208 9.58017358185995  C 13.6803780272208 9.58017358185995  5.89499596953154 19.4159103428426  5.89499596953154 19.4159103428426  Z M 9.42885561177853 1.2900503430981  C 9.36089163918778 1.2900503430981  9.27662995639044 1.31485741382718  9.20866598379977 1.40025806567974  C 9.20866598379977 1.40025806567974  1.31453860404914 11.2277283080916  1.31453860404914 11.2277283080916  C 1.30095470727992 11.2442613452331  1.24114700458343 11.3214105085487  1.29552708040499 11.4371267385052  C 1.32815215998158 11.5060018682332  1.40152892986561 11.580385505336  1.50756043848957 11.580385505336  C 1.50756043848957 11.580385505336  5.18277565279294 11.580385505336  5.18277565279294 11.580385505336  C 5.18277565279294 11.580385505336  4.54667557853908 18.487460067079  4.54667557853908 18.487460067079  C 4.5385193086449 18.5480611632194  4.5249354118758 18.6417433636765  4.63637971779303 18.6940929712799  C 4.70161504736465 18.7216430231711  4.80491791296948 18.7326525229039  4.90822077857419 18.6031687820187  C 4.90822077857419 18.6031687820187  12.6881752093884 8.78119201694787  12.6881752093884 8.78119201694787  C 12.7044877491767 8.75915798744842  12.7642954518732 8.68476683532869  12.7099302056333 8.56630762421008  C 12.6773051260567 8.49742497946522  12.6039283561727 8.42303382734549  12.4978820179671 8.42303382734549  C 12.4978820179671 8.42303382734549  8.7954841805438 8.42303382734549  8.7954841805438 8.42303382734549  C 8.7954841805438 8.42303382734549  9.68984141880963 1.49118225494094  9.68984141880963 1.49118225494094  C 9.70344014516042 1.40026558069663  9.63003371611305 1.35067398428911  9.57022601341656 1.32312393239791  C 9.54575720373414 1.30934890645232  9.49139195749415 1.29006537313186  9.4288704413601 1.29006537313186  Z " fill-rule="nonzero" fill="#ffd08f" stroke="none" transform="matrix(1 0 0 1 10 8 )" />
    </g>
  </defs>
  <g transform="matrix(1 0 0 1 -7 -5 )">
    <use xlink:href="#widget210" filter="url(#filter209)" />
    <use xlink:href="#widget210" />
  </g>
</svg>