<?xml version="1.0" encoding="utf-8"?>
<svg version="1.1" xmlns:xlink="http://www.w3.org/1999/xlink" width="94px" height="18px" preserveAspectRatio="xMinYMid meet" viewBox="1172 503  94 16" xmlns="http://www.w3.org/2000/svg">
  <g transform="matrix(0.681998360062502 0.731353701619172 -0.731353701619168 0.681998360062501 761.365740611205 -729.021324265709 )">
    <path d="M 0 725  C 6.45783911011673 721.684157399326  16.7502656736443 716.081010878431  28.6616707860889 708.049493235186  C 76.3676177872239 675.879300994009  106.194101997922 634.302262223903  118.553876004709 616.771914297095  C 127.871391941196 603.556405980837  140.443033406475 584.102796063974  161.544666194707 560.702128884968  C 168.243887776433 553.272436902751  177.201274793193 543.896200735323  191.509573528935 537.230241089302  C 204.506170170141 531.175954327835  214.745896800689 530.700310531049  224.078132110642 529.407118176474  C 235.569539349105 527.813547336849  253.017945668914 520.521182138521  287.914682042349 505.935230380809  C 301.387637267337 500.305137581585  334.459628928062 486.16536428515  376.503803245197 464.208651216239  C 384.616160945864 459.972245886093  391.333686411693 456.348734801557  396.046326438766 453.777006425096  C 411.84013790184 452.766902663104  424.117849494898 454.532074731293  432.524137067787 456.385490135877  C 442.838680824606 458.659397252001  450.483221754072 461.760700149438  462.487824143075 460.297089759825  C 468.486464560756 459.565303648785  475.80283210149 458.561344859612  480.726119328115 452.473966846996  C 486.552093105757 445.269844985065  484.779895793661 436.206239080795  484.635447641614 435.522200553592  C 482.710184098705 426.448747425797  474.9700053748 421.86543738782  471.607048001779 419.874733366879  C 460.225769132669 413.135224884684  447.960336395198 414.34265479251  444.24823243291 414.658910971307  C 430.7655151364 415.805043821066  412.677845664291 412.815304622715  376.503803245197 406.834566697422  C 337.874065975124 400.448069728345  310.631785135045 378.715629083597  303.548029454786 372.932293639204  C 298.360174836688 368.695888309058  281.346562030511 343.102152848914  247.528763358769 292.086321324722  C 244.32253299338 287.25049488813  232.624139332185 269.30587655767  225.381216126414 243.83962065789  C 220.991944718496 228.404212284765  221.174373430057 220.528380008804  222.776268353811 213.848909056087  C 226.060976622292 200.150466944232  235.302607705935 191.535520390886  242.317647554623 185.162496560974  C 260.596363817058 168.555211337052  270.810465009861 173.079686122843  282.703566238203 157.779104560194  C 284.693732303494 155.21836843325  292.4461136168 145.000003816753  294.428881862266 130.395693475647  C 296.216942540585 117.225566356178  291.741871675934 112.064915129621  294.428881862266 100.404981873844  C 296.469231076473 91.5509538935148  300.997001874104 86.0838364603862  308.759221525116 76.9331513294779  C 328.08255570655 54.1575729228886  336.133824194024 58.4712102561479  350.448147958284 39.1193168148462  C 350.575512485167 38.9476965025168  350.472629403271 39.0850042026403  368.687663402264 11.7359152721829  C 368.999973424773 11.2652046290426  376.192637215445 0.467027476201586  376.503803245197 0  " stroke-width="3" stroke="#ffd08f" fill="none" transform="matrix(1 0 0 1 899 444 )" />
  </g>
</svg>