<?xml version="1.0" encoding="utf-8"?>
<svg version="1.1" xmlns:xlink="http://www.w3.org/1999/xlink" width="41px" height="41px" xmlns="http://www.w3.org/2000/svg">
  <defs>
    <mask fill="white" id="clip5117">
      <path d="M 0 17.5  C 0 7.83501720428467  7.83501720428467 0  17.5 0  C 27.164981842041 0  35 7.83501720428467  35 17.5  C 35 27.164981842041  27.164981842041 35  17.5 35  C 7.83501720428467 35  0 27.164981842041  0 17.5  Z " fill-rule="evenodd" />
    </mask>
    <filter x="-3px" y="-3px" width="41px" height="41px" filterUnits="userSpaceOnUse" id="filter5118">
      <feOffset dx="0" dy="0" in="SourceAlpha" result="shadowOffsetInner" />
      <feGaussianBlur stdDeviation="1.5" in="shadowOffsetInner" result="shadowGaussian" />
      <feComposite in2="shadowGaussian" operator="atop" in="SourceAlpha" result="shadowComposite" />
      <feColorMatrix type="matrix" values="0 0 0 0 1  0 0 0 0 0.815686274509804  0 0 0 0 0.56078431372549  0 0 0 1 0  " in="shadowComposite" />
    </filter>
    <g id="widget5119">
      <path d="M 0 17.5  C 0 7.83501720428467  7.83501720428467 0  17.5 0  C 27.164981842041 0  35 7.83501720428467  35 17.5  C 35 27.164981842041  27.164981842041 35  17.5 35  C 7.83501720428467 35  0 27.164981842041  0 17.5  Z " fill-rule="nonzero" fill="#ffd08f" stroke="none" fill-opacity="0.2" />
      <path d="M 0 17.5  C 0 7.83501720428467  7.83501720428467 0  17.5 0  C 27.164981842041 0  35 7.83501720428467  35 17.5  C 35 27.164981842041  27.164981842041 35  17.5 35  C 7.83501720428467 35  0 27.164981842041  0 17.5  Z " stroke-width="4" stroke="#ffd08f" fill="none" mask="url(#clip5117)" />
    </g>
  </defs>
  <g transform="matrix(1 0 0 1 3 3 )">
    <use xlink:href="#widget5119" filter="url(#filter5118)" />
    <use xlink:href="#widget5119" />
  </g>
</svg>