<?xml version="1.0" encoding="utf-8"?>
<svg version="1.1" xmlns:xlink="http://www.w3.org/1999/xlink" width="48px" height="8px" preserveAspectRatio="xMinYMid meet" viewBox="828 1197  48 6" xmlns="http://www.w3.org/2000/svg">
  <g transform="matrix(-0.838670567945434 -0.544639035015051 0.544639035015018 -0.838670567945453 912.980481871488 2670.43713936737 )">
    <path d="M 364 0  C 363.617706410706 0.176451621584967  346.65319900965 9.19331312893575  345.957271759699 9.52104179122908  C 330.268401607398 16.9014025046346  319.147213489334 25.1639448074821  312.150170383212 31.0594643600654  C 294.479719640165 45.9521036514092  290.806145852566 56.1261541757719  271.662373845741 72.8864565979249  C 262.89955488003 80.558811842106  255.252842048262 85.5131540549255  240.316707973279 95.1072709973314  C 200.582756164537 120.632230007172  180.715761145486 133.395359919196  159.34103843962 138.241504997185  C 145.729666339617 141.326883264986  152.345027526189 137.506698005823  91.4254736502043 142.162465098337  C 74.357861668115 143.467411305843  66.2789277042914 144.344695712379  52.2427509678644 144.777254696256  C 30.1559299932216 145.456815342958  12.0581897054217 144.455341438664  0 143.469859897296  " stroke-width="4" stroke="#ffd08f" fill="none" transform="matrix(1 0 0 1 523 1180 )" />
  </g>
</svg>