<?xml version="1.0" encoding="utf-8"?>
<svg version="1.1" xmlns:xlink="http://www.w3.org/1999/xlink" width="883px" height="186px" xmlns="http://www.w3.org/2000/svg">
  <g transform="matrix(1 0 0 1 -897 -1064 )">
    <path d="M 0 110.842656511055  C 7.29850581256527 114.227078017689  19.6534363701444 118.758299548527  35.2252724918593 118.637367592135  C 44.4123289273904 118.566557748486  56.6801943074308 116.861569279022  74.3627500007611 108.243608200463  C 100.024370977752 95.7381030419772  106.548989558737 83.5575169512322  139.593584845099 54.9765040121558  C 162.809743554727 34.8948779881064  174.41782290954 24.8541030049988  187.864275850791 18.597053158123  C 197.448700811528 14.1378583962806  205.706221917388 11.7770232224318  264.835620767357 5.60546238120691  C 325.177898638813 -0.693115043147063  336.973626363112 -0.362111348669282  347.025301109974 0.408582685371011  C 383.050198521861 3.17252438052785  398.73613584993 8.8640842300594  403.123075203447 10.8023420770428  C 418.405457796327 17.5528551522669  423.404297327425 23.759782886399  443.566683121358 38.0862647115181  C 461.281162713119 50.6736080996131  480.968814170577 64.6630776613519  499.664380841868 71.865450329612  C 537.42218077863 86.4118153534294  588.545401943161 79.9826466277385  624.906264018201 57.5742593395659  C 650.899038161691 41.5561752238033  663.154607494728 21.1887999166305  688.832266793897 22.4957016818446  C 702.889321572362 23.2101129185702  716.214417875797 30.1792162093112  718.837829146376 31.5898608603864  C 722.167384830573 33.3791214101543  736.115531764151 41.1909455039315  747.539552278728 57.5742593395659  C 756.925483909269 71.0349748378834  753.07078773318 73.7390590175177  760.585123538487 82.2591336634495  C 763.404660577416 85.4567571292664  769.588273879708 91.4730839308706  803.637326372202 101.748421274679  C 830.964488920919 109.995068006629  830.650596044003 107.226258610083  838.861300523695 112.142256724185  C 841.913927844947 113.968177150042  866.632495477859 128.764924564075  868.867015622099 149.81864576715  C 869.308451346813 153.976271216354  869.16746685757 161.144341801386  872.781740946912 170.606240608328  C 874.537860852464 175.204697264607  876.570145391331 178.744200695194  878.000000000001 181  " stroke-width="4" stroke="#ffd08f" fill="none" transform="matrix(1 0 0 1 899 1066 )" />
  </g>
</svg>