<?xml version="1.0" encoding="utf-8"?>
<svg version="1.1" xmlns:xlink="http://www.w3.org/1999/xlink" width="26px" height="8px" preserveAspectRatio="xMinYMid meet" viewBox="2148 839  26 6" xmlns="http://www.w3.org/2000/svg">
  <g transform="matrix(-0.615661475325671 0.788010753606707 -0.788010753606715 -0.615661475325649 4154.94950271563 -342.504276319896 )">
    <path d="M 0 473.779099578257  C 8.21915010493862 470.738909687872  41.7453494322887 470.429404148467  53.7275353885191 475.176529297959  C 66.0662532017383 480.063298218927  68.3494606350656 489.35533212752  77.1825106940138 490.818386789008  C 90.3981412646007 493.005757668452  102.270026607823 475.011093398198  114.970158186212 459.534519190765  C 147.53965606933 419.843333468903  156.595443189125 432.01256322642  186.635502394936 395.66290797066  C 219.603028354597 355.770726787557  204.298856439479 346.434586813438  233.543927409618 320.059541168926  C 249.680006991041 305.506981403467  273.259776074463 291.285217129457  273.937140834851 269.223561554069  C 274.103735951596 263.800041655741  272.868918300563 258.468396675916  276.54362212567 253.581627754947  C 279.515331172428 249.628564401077  285.501465962545 246.228047795439  311.72478832705 247.063773798288  C 337.940635269649 247.899499801136  339.219390094329 252.695614732753  350.814532267428 250.974028323852  C 372.62674546935 247.736505759675  386.473210112956 229.440424605633  389.905496684851 224.904062350578  C 407.250458780086 201.985848668727  404.964810392667 175.855904550982  404.238473990818 167.550305087133  C 402.446356008773 147.052125595781  393.53992476745 129.135906023385  391.208966169707 124.535826528339  C 384.077413672158 110.464808850259  379.85624124982 108.822811760294  378.17808531192 98.4658987091005  C 375.708755129117 83.2222167369391  383.218655510847 76.7044390883512  378.17808531192 64.5743935257266  C 374.1541724921 54.8902505899569  368.341955681001 56.5763537454489  365.14857749081 47.6286600110576  C 361.589056186895 37.656530412144  363.467767054875 46.1035426504293  368.024418105163 26.4485291989315  C 370.327305730854 16.521726594694  373.859432327247 8.41740118276922  374.328705751336 0.195091979338517  " stroke-width="3" stroke="#ffd08f" fill="none" transform="matrix(1 0 0 1 1789 786 )" />
  </g>
</svg>