<?xml version="1.0" encoding="utf-8"?>
<svg version="1.1" xmlns:xlink="http://www.w3.org/1999/xlink" width="532px" height="122px" xmlns="http://www.w3.org/2000/svg">
  <g transform="matrix(1 0 0 1 -1381.5 -869.5 )">
    <path d="M 0 18.0145319902855  C 33.8148087492435 6.64006417180709  62.8290006925196 2.4957232936742  83.4370570122004 0.911414579766692  C 117.637740685069 -1.71670026897073  139.448069091751 1.87978294369237  152.533625046093 4.85789978311339  C 170.827729267394 9.02326619616914  202.272108971368 16.1816521629593  208.592489890103 36.4322844497587  C 210.650235082112 43.025406996894  208.376809009137 45.6609539486351  209.896496801707 57.4818870636243  C 211.694295397618 71.4695670165266  213.562155935753 86.5233879215762  222.932902548213 93.0039506910936  C 229.324261251556 97.4228557890058  236.242687245753 95.8188308225701  247.703080893196 94.3186242483538  C 266.774124735246 91.8228239380682  282.580190485387 92.2160707560747  314.192779906858 93.0039506910936  C 346.69739980842 93.8127791444238  357.0044426161 98.2477807141267  363.732831316028 102.21282692083  C 372.409827324105 107.324342405412  378.335632816587 113.537734549848  381.985264708948 118  C 406.209906275038 108.263020865628  419.044063495515 95.2968892468493  426.31050959488 85.1097480186171  C 436.600609318494 70.6829193472907  436.561228096067 60.6553565379597  451.081756422642 44.3264871222352  C 456.796612886464 37.8991043229163  465.520316856025 28.2870076239919  479.762581738861 21.9609786853264  C 499.895086901676 13.0192730806711  519.065652282574 15.9664292422936  528.000000000001 18.0145319902855  " stroke-width="3" stroke="#ffd08f" fill="none" transform="matrix(1 0 0 1 1383 871 )" />
  </g>
</svg>