<?xml version="1.0" encoding="utf-8"?>
<svg version="1.1" xmlns:xlink="http://www.w3.org/1999/xlink" width="6px" height="10px" xmlns="http://www.w3.org/2000/svg">
  <g transform="matrix(1 0 0 1 -71 -9 )">
    <path d="M 5.96483944781576 4.28629125582341  C 6.06312557837801 4.15182426923681  5.93897477398293 3.97081135003858  5.79413247718657 3.97081135003858  C 5.79413247718657 3.97081135003858  4.66125877664855 3.97081135003858  4.66125877664855 3.97081135003858  C 4.41813034928995 3.97081135003858  3.73012990200411 4.08976282024566  3.49734722084615 3.94495236158169  C 3.45079105461204 3.77945465049952  3.60080591617748 3.47948995283076  3.64218951764251 3.33467949416679  C 3.76116714060603 2.91576363455441  3.874971582138 2.50201920271726  3.99394920510152 2.07793145293446  C 3.99394920510152 2.07793145293446  4.50089755222001 0.252285280321225  4.50089755222001 0.252285280321225  C 4.56814582751786 0.0143823591735383  4.2577691248614 -0.0890536909863518  4.12844575569724 0.0919594016100723  C 4.12844575569724 0.0919594016100723  0.0314778439342413 5.71370889830832  0.0314778439342413 5.71370889830832  C -0.0616351051964502 5.84300384059277  0.0676884181333298 6.024016759791  0.212530714929686 6.024016759791  C 0.212530714929686 6.024016759791  1.87304440915308 6.024016759791  1.87304440915308 6.024016759791  C 1.98684915901628 6.024016759791  2.42654892250567 5.95161122219556  2.49897007090385 6.06021922032526  C 2.56621834620171 6.14813965777331  2.43689466870631 6.42224567524864  2.41102999487348 6.52050958477405  C 2.10065360054825 7.59624424441297  1.8006232607549 8.67197952057881  1.50059261263032 9.74771479674464  C 1.43334433733246 9.9856177371588  1.74372073165768 10.0890536909864  1.87304410082185 9.90804077178812  C 1.87304410082185 9.90804077178812  5.96483944781576 4.28629125582341  5.96483944781576 4.28629125582341  Z " fill-rule="nonzero" fill="#ffffff" stroke="none" transform="matrix(1 0 0 1 71 9 )" />
  </g>
</svg>