<?xml version="1.0" encoding="utf-8"?>
<svg version="1.1" xmlns:xlink="http://www.w3.org/1999/xlink" width="21px" height="30px" xmlns="http://www.w3.org/2000/svg">
  <defs>
    <filter x="46px" y="569px" width="21px" height="30px" filterUnits="userSpaceOnUse" id="filter287">
      <feOffset dx="0" dy="0" in="SourceAlpha" result="shadowOffsetInner" />
      <feGaussianBlur stdDeviation="2.5" in="shadowOffsetInner" result="shadowGaussian" />
      <feComposite in2="shadowGaussian" operator="atop" in="SourceAlpha" result="shadowComposite" />
      <feColorMatrix type="matrix" values="0 0 0 0 0.305882352941176  0 0 0 0 0.584313725490196  0 0 0 0 1  0 0 0 1 0  " in="shadowComposite" />
    </filter>
    <g id="widget288">
      <path d="M 10.6187643914775 7.9408578596157  C 10.6187643914775 7.9408578596157  8.53986044842089 7.9408578596157  8.53986044842089 7.9408578596157  C 8.09111119749714 7.9408578596157  6.83644102580154 8.18075723217314  6.40600462546693 7.8908787226444  C 6.32358124833083 7.56101738844341  6.59832731968782 6.96126774478782  6.67159205017435 6.67139044752106  C 6.89138846298894 5.83174506809397  7.10202400779898 5.00209357644197  7.312666216674 4.16244456022893  C 7.312666216674 4.16244456022893  8.24677709156981 0.504001555574575  8.24677709156981 0.504001555574575  C 8.36583283394917 0.0242028104596873  7.79802784064605 -0.175713737425508  7.55991413453233 0.184136533672637  C 7.55991413453233 0.184136533672637  0.0593934792124106 11.4294071966175  0.0593934792124106 11.4294071966175  C -0.114611921709353 11.6892967692491  0.123500673726873 12.0491470403472  0.389088098434298 12.0491470403472  C 0.389088098434298 12.0491470403472  3.42960218056284 12.0491470403472  3.42960218056284 12.0491470403472  C 3.64023994672787 12.0491470403472  4.44615975682221 11.9092059417324  4.57437525652864 12.1191188019166  C 4.6934321095855 12.2990427252037  4.46447705012134 12.838814495065  4.40952850225644 13.0387310429502  C 3.85088215560289 15.1978059997755  3.3013955662764 17.3469234366851  2.75187232459247 19.4959972321634  C 2.63281547153561 19.9757959772783  3.20062268619372 20.1757125251635  3.43873417095245 19.8158622540654  C 3.43873417095245 19.8158622540654  10.9392770398223 8.57060492600232  10.9392770398223 8.57060492600232  C 11.1132824407441 8.3007178288097  10.8843273812799 7.94086998223551  10.6187399565725 7.94086998223551  Z " fill-rule="nonzero" fill="#ffffff" stroke="none" transform="matrix(1 0 0 1 51 574 )" />
    </g>
  </defs>
  <g transform="matrix(1 0 0 1 -46 -569 )">
    <use xlink:href="#widget288" filter="url(#filter287)" />
    <use xlink:href="#widget288" />
  </g>
</svg>