<?xml version="1.0" encoding="utf-8"?>
<svg version="1.1" xmlns:xlink="http://www.w3.org/1999/xlink" width="13px" height="13px" xmlns="http://www.w3.org/2000/svg">
  <g transform="matrix(1 0 0 1 -93 -72 )">
    <path d="M 13 6.5  C 13 10.14  10.14 13  6.5 13  C 2.86000000000001 13  0 10.14  0 6.5  C 0 2.86  2.86000000000001 0  6.5 0  C 10.14 0  13 2.86  13 6.5  Z M 4.63179293308845 11.0870858848555  C 4.63179293308845 11.0870858848555  9.3363764796646 6.88179672051044  9.3363764796646 6.88179672051044  C 9.5954252010427 6.64878908272345  9.60252255667133 6.20348635687827  9.3363764796646 5.97366519945986  C 7.77498108488671 4.61823587683579  6.21315673951386 3.26241426243993  4.65176134473599 1.90858416266333  C 4.00901821976647 1.34976492546464  3.05089123209323 2.25710018253398  3.69717986216557 2.81671290604886  C 5.08646374840663 4.02357197609994  6.47619482833382 5.22844245164119  7.86458416856706 6.43490032714788  C 6.46864663040084 7.68238645212076  5.0727090922346 8.93146852372078  3.67544091886466 10.1789540789162  C 3.04023806004939 10.746935016952  3.99836488908707 11.6542662855792  4.63179293308845 11.0870858848555  Z " fill-rule="nonzero" fill="#ffffff" stroke="none" transform="matrix(1 0 0 1 93 72 )" />
  </g>
</svg>