<?xml version="1.0" encoding="utf-8"?>
<svg version="1.1" xmlns:xlink="http://www.w3.org/1999/xlink" width="54px" height="33px" xmlns="http://www.w3.org/2000/svg">
  <g transform="matrix(1 0 0 1 -876 -19 )">
    <path d="M 52.0726022449749 15.5312183650267  C 52.4111106918922 14.4218411749132  52.1456921679617 13.1622358236384  51.2686441975245 12.2878568424987  C 51.2686441975245 12.2878568424987  41.8596522012618 2.86587550031927  41.8596522012618 2.86587550031927  C 41.8173410755068 2.81965145073121  41.7750260615763 2.77342740114314  41.7288617539041 2.72721892569577  C 41.6827013344074 2.68097930196701  41.6365370267352 2.63860206513106  41.5903766072385 2.5962404024358  C 41.5903766072385 2.5962404024358  41.5596016981822 2.56541917799685  41.5596016981822 2.56541917799685  C 40.8979780911391 1.98375617125325  40.055546547149 1.6640657851703  39.1631208426223 1.6640657851703  C 38.189910515801 1.6640657851703  37.2782422307413 2.04155180737903  36.5935345257744 2.72721892569577  C 36.5935345257744 2.72721892569577  29.350229063939 9.97665436309552  29.350229063939 9.97665436309552  L 27.0306718724056 1.77191670949555  C 27.0306718724056 1.77191670949555  27.511508927467 1.77191670949555  27.511508927467 1.77191670949555  C 28.0000387377485 1.77191670949555  28.3962477090366 1.37514990110421  28.3962477090366 0.885950567677428  C 28.3962477090366 0.396766808391347  28.0000387377485 0  27.511508927467 0  C 27.511508927467 0  17.8794017566777 0  17.8794017566777 0  C 15.906051599545 0  14.3019818822542 1.60628572318522  14.3019818822542 3.58234826893426  C 14.3019818822542 3.58234826893426  14.3019818822542 8.67851858773692  14.3019818822542 8.67851858773692  C 14.3019818822542 8.67851858773692  3.51587272943152 8.67851858773692  3.51587272943152 8.67851858773692  C 3.15813045037601 8.67851858773692  2.82346862407982 8.81720631064181  2.5695870458809 9.07142300923547  C 2.5695870458809 9.07142300923547  0.392362107656091 11.2516469653787  0.392362107656091 11.2516469653787  C 0.138480742091775 11.5058948122537  0 11.8410191717672  0 12.199239981934  C 0 12.199239981934  0 18.4895419645221  0 18.4895419645221  C 0 18.8477627746889  0.138480742091775 19.1829027083431  0.392362107656091 19.4371349810774  C 0.392362107656091 19.4371349810774  2.70422071170604 21.752168699092  2.70422071170604 21.752168699092  C 2.95810253291593 22.0064165459671  3.29276484523405 22.1450886947313  3.65050663826763 22.1450886947313  C 3.65050663826763 22.1450886947313  6.67784858537375 22.1450886947313  6.67784858537375 22.1450886947313  C 5.50461009808139 23.2968275475401  4.77373954350804 24.8992508838325  4.77373954350804 26.6673207805759  C 4.77373954350804 30.1572209503341  7.60874778644009 33  11.0976907693706 33  C 11.0976907693706 33  33.5046434895885 33  33.5046434895885 33  C 36.989739608887 33  39.8285976315827 30.1610833372269  39.8285976315827 26.6673207805759  C 39.8285976315827 23.1735737980657  36.9935889026287 20.3346415611519  33.5046434895885 20.3346415611519  C 33.5046434895885 20.3346415611519  31.3697376964807 20.3346415611519  31.3697376964807 20.3346415611519  L 38.0591278447944 13.5474310454921  L 38.0937481594169 11.5135728636173  L 39.7208951703244 9.88420626391939  C 39.7208951703244 9.88420626391939  46.6910912970968 16.8717158030806  46.6910912970968 16.8717158030806  C 46.9642045203352 17.1451977137161  47.2757873519379 17.3609151365073  47.6066049877227 17.5149901104207  C 47.6066049877227 17.5149901104207  44.9370031325734 22.0526405955551  44.9370031325734 22.0526405955551  C 44.9370031325734 22.0526405955551  44.5600250772919 21.8291983989783  44.5600250772919 21.8291983989783  C 44.1945871268846 21.6134965503278  43.721438938868 21.7367658739429  43.5060340163514 22.1027114578953  C 43.5060340163514 22.1027114578953  43.3906290794341 22.3030260555374  43.3906290794341 22.3030260555374  C 43.175220268742 22.6689404912084  43.2983082404407 23.1427369994861  43.6637500790236 23.3584544222773  C 43.6637500790236 23.3584544222773  45.640941753547 24.5256116743759  45.640941753547 24.5256116743759  C 48.27976869964 26.0818109610802  51.6763932736868 25.203554018907  53.2343035435247 22.5610895668831  C 54.6152590583329 20.2075409989254  54.069024835505 17.2492018252893  52.0726061331504 15.5312183650267  Z M 27.7423071367749 10.7932688563908  L 24.7726625548971 10.7932688563908  C 24.7726625548971 10.7932688563908  23.0531947049962 9.07142300923547  23.0531947049962 9.07142300923547  C 22.7993143418521 8.81720631064181  22.4646493564134 8.67851858773692  22.1069099934895 8.67851858773692  C 22.1069099934895 8.67851858773692  20.4874557378022 8.67851858773692  20.4874557378022 8.67851858773692  L 20.4874557378022 1.77191670949555  L 25.1881063303673 1.77191670949555  L 27.7423110249504 10.7932688563908  Z M 16.0714584733497 8.67851858773692  C 16.0714584733497 8.67851858773692  16.0714584733497 3.58234826893426  16.0714584733497 3.58234826893426  C 16.0714584733497 2.58468439003878  16.883111220108 1.77191670949555  17.8794017566777 1.77191670949555  C 17.8794017566777 1.77191670949555  18.7256728739708 1.77191670949555  18.7256728739708 1.77191670949555  L 18.7256728739708 8.67851858773692  L 16.0714584733497 8.67851858773692  Z M 3.82745410296839 20.373156411095  L 3.82745410296839 20.3693095983429  L 1.76947610507348 18.3085081530627  L 1.76947610507348 12.3802737933934  L 3.69282019413228 11  L 21.9338123085524 11  C 21.9338123085524 11  23.6532801584532 12.1722811443879  23.6532801584532 12.1722811443879  C 23.9071624656851 12.4265134171222  24.2418235629483 12.5651855658864  24.5995668140477 12.5651855658864  C 24.5995668140477 12.5651855658864  27.8846396330945 12.5651855658864  27.8846396330945 12.5651855658864  L 27.8846396330945 16.9333426778178  C 27.8846396330945 16.9333426778178  18.9564730273666 16.9333426778178  18.9564730273666 16.9333426778178  C 18.4679451611728 16.9333426778178  18.0717361898847 17.3300939120684  18.0717361898847 17.8192932454952  C 18.0717361898847 18.3085081530627  18.4679451611728 18.7052438131726  18.9564730273666 18.7052438131726  C 18.9564730273666 18.7052438131726  27.8846396330945 18.7052438131726  27.8846396330945 18.7052438131726  L 27.8846396330945 20.3346571352926  C 27.8846396330945 20.3346571352926  11.0976907693706 20.3346571352926  11.0976907693706 20.3346571352926  C 10.8668906159748 20.3346571352926  10.6360894905352 20.3462131476896  10.4129811203158 20.373156411095  C 10.4129811203158 20.373156411095  3.82745410296839 20.373156411095  3.82745410296839 20.373156411095  Z M 11.0976907693706 22.1065426965067  C 11.0976907693706 22.1065426965067  33.5046434895885 22.1065426965067  33.5046434895885 22.1065426965067  C 36.0165331702412 22.1065426965067  38.0591278447944 24.1519724649193  38.0591278447944 26.6673207805759  C 38.0591278447944 29.1826535220919  36.0165331702412 31.2280677163637  33.5046434895885 31.2280677163637  C 33.5046434895885 31.2280677163637  11.0976907693706 31.2280677163637  11.0976907693706 31.2280677163637  C 8.58580497689344 31.2280677163637  6.54321516255958 29.1826535220919  6.54321516255958 26.6673207805759  C 6.54321516255958 24.1519724649193  8.58580594893731 22.1065426965067  11.0976907693706 22.1065426965067  Z M 40.4748435045364 6.61771714245667  C 40.4748435045364 6.61771714245667  36.3319575192346 10.7663100188447  36.3319575192346 10.7663100188447  L 36.2973372046121 12.807846252083  L 29.654115252146 19.5488327181548  L 29.654115252146 12.1799747698921  C 29.654115252146 12.1799747698921  37.8437073695758 3.97909950318491  37.8437073695758 3.97909950318491  C 38.1937559213673 3.62857231852233  38.6630509274667 3.43596692052516  39.1592715488806 3.43596692052516  C 39.6593453522118 3.43596692052516  40.1286364701357 3.62857231852233  40.4748435045364 3.97909950318491  C 41.2018662234339 4.70712828419692  41.2018662234339 5.88967278730396  40.4748435045364 6.61771714245667  Z M 46.6949405908385 12.2878568424987  C 46.317962535557 12.6614960519553  46.0563855290172 13.1044557616534  45.9063680538285 13.5744054571789  C 45.9063680538285 13.5744054571789  40.9672148322087 8.63229453814886  40.9672148322087 8.63229453814886  C 40.9672148322087 8.63229453814886  41.7288656420796 7.8696132940865  41.7288656420796 7.8696132940865  C 42.2096968648777 7.38812316030463  42.5251251020466 6.80646015356103  42.6789918709771 6.19014468376707  C 42.6789918709771 6.19014468376707  47.979729861087 11.4981856126088  47.979729861087 11.4981856126088  C 47.5104387431631 11.6522605865221  47.0680693523783 11.9142020589014  46.6949405908385 12.2878568424987  Z M 47.945105658289 15.6159416904172  C 47.3719535964975 15.045865844352  47.3719535964975 14.1136756529458  47.945105658289 13.5397374199879  C 48.5182654964315 12.9657991870299  49.4453192919316 12.9657991870299  50.018471353723 13.5397374199879  C 50.5916311918655 14.1136756529458  50.5916311918655 15.0420034574592  50.018471353723 15.6159416904172  C 49.4453192919316 16.1899110716566  48.5182654964315 16.1899110716566  47.945105658289 15.6159416904172  Z M 51.0878557014549 17.0334999766388  C 52.3072458598491 18.2199068666386  52.6072924747531 20.1266333380056  51.7071681827431 21.6597361740566  C 50.6493317162364 23.4585961469576  48.3336277066202 24.055677552991  46.5372284163418 22.996355651077  C 46.5372284163418 22.996355651077  46.4602853114378 22.9501316014889  46.4602853114378 22.9501316014889  C 46.4602853114378 22.9501316014889  49.5068652218687 17.7730691959071  49.5068652218687 17.7730691959071  C 50.0761718780939 17.6806366708717  50.6262553946635 17.4340824495008  51.0878557014549 17.0334999766388  Z " fill-rule="nonzero" fill="#ffffff" stroke="none" fill-opacity="0.952941176470588" transform="matrix(1 0 0 1 876 19 )" />
  </g>
</svg>