<?xml version="1.0" encoding="utf-8"?>
<svg version="1.1" xmlns:xlink="http://www.w3.org/1999/xlink" width="31px" height="17px" xmlns="http://www.w3.org/2000/svg">
  <g transform="matrix(1 0 0 1 -880 -31 )">
    <path d="M 1.78294501930322 0.96105527638191  C 1.78294501930322 0.430447331594682  1.38374009878834 0  0.891480345188218 0  C 0.3992205915881 0  0 0.430447331594682  0 0.96105527638191  C 0 0.96105527638191  0 3.0924082437504  0 3.0924082437504  C 0 3.62308377329686  0.3992205915881 4.05353110489155  0.891480345188218 4.05353110489155  C 1.38374009878834 4.05353110489155  1.78294501930322 3.62308377329686  1.78294501930322 3.0924082437504  C 1.78294501930322 3.0924082437504  1.78294501930322 0.96105527638191  1.78294501930322 0.96105527638191  Z M 28.6201594708636 11.8682892309651  C 27.6162705171 11.8682892309651  26.7635447361118 12.5327149990459  26.4108202189198 13.4730217543415  C 26.4108202189198 13.4730217543415  8.75578907139792 13.4730217543415  8.75578907139792 13.4730217543415  C 8.40306455420599 12.5327149990459  7.54651503133974 11.8682892309651  6.5465125037471 11.8682892309651  C 5.23255569423607 11.8682892309651  4.16667197461078 13.017500477069  4.16667197461078 14.4342122002417  C 4.16667197461078 15.8508563386553  5.23255569423607 17  6.5465125037471 17  C 7.54651503133974 17  8.40306455420599 16.3355742319191  8.75578907139792 15.3953350613829  C 8.75578907139792 15.3953350613829  26.4108202189198 15.3953350613829  26.4108202189198 15.3953350613829  C 26.7635447361118 16.3355742319191  27.6201569432712 17  28.6201594708636 17  C 29.9340849382283 17  31 15.8508563386553  31 14.4342122002417  C 31 13.017500477069  29.9340849382283 11.8682892309651  28.6201594708636 11.8682892309651  Z M 5.05813664872576 0.96105527638191  C 5.05813664872576 0.430447331594682  4.65890038606447 0  4.16667197461078 0  C 3.67438087886424 0  3.27520730049598 0.430447331594682  3.27520730049598 0.96105527638191  C 3.27520730049598 0.96105527638191  3.27520730049598 3.0924082437504  3.27520730049598 3.0924082437504  C 3.27520730049598 3.62308377329686  3.67438087886424 4.05353110489155  4.16667197461078 4.05353110489155  C 4.65890038606447 4.05353110489155  5.05813664872576 3.62308377329686  5.05813664872576 3.0924082437504  C 5.05813664872576 3.0924082437504  5.05813664872576 0.96105527638191  5.05813664872576 0.96105527638191  Z M 6.5465125037471 3.0924082437504  C 6.5465125037471 3.62308377329686  6.94574876640861 4.05353110489155  7.43797717786213 4.05353110489155  C 7.93023693146225 4.05353110489155  8.32947319412371 3.62308377329686  8.32947319412371 3.0924082437504  C 8.32947319412371 3.0924082437504  8.32947319412371 0.96105527638191  8.32947319412371 0.96105527638191  C 8.32947319412371 0.430447331594682  7.93023693146225 0  7.43797717786213 0  C 6.94574876640861 0  6.5465125037471 0.430447331594682  6.5465125037471 0.96105527638191  C 6.5465125037471 0.96105527638191  6.5465125037471 3.0924082437504  6.5465125037471 3.0924082437504  Z " fill-rule="nonzero" fill="#ffffff" stroke="none" fill-opacity="0.952941176470588" transform="matrix(1 0 0 1 880 31 )" />
  </g>
</svg>