<?xml version="1.0" encoding="utf-8"?>
<svg version="1.1" xmlns:xlink="http://www.w3.org/1999/xlink" width="718px" height="578px" xmlns="http://www.w3.org/2000/svg">
  <defs>
    <filter x="575px" y="68px" width="718px" height="578px" filterUnits="userSpaceOnUse" id="filter2723">
      <feOffset dx="0" dy="0" in="SourceAlpha" result="shadowOffsetInner" />
      <feGaussianBlur stdDeviation="1.5" in="shadowOffsetInner" result="shadowGaussian" />
      <feComposite in2="shadowGaussian" operator="atop" in="SourceAlpha" result="shadowComposite" />
      <feColorMatrix type="matrix" values="0 0 0 0 0.192156862745098  0 0 0 0 0.541176470588235  0 0 0 0 1  0 0 0 1 0  " in="shadowComposite" />
    </filter>
    <g id="widget2724">
      <path d="M 580.5 76  A 2.5 2.5 0 0 1 583 73.5 L 1285 73.5  A 2.5 2.5 0 0 1 1287.5 76 L 1287.5 638  A 2.5 2.5 0 0 1 1285 640.5 L 583 640.5  A 2.5 2.5 0 0 1 580.5 638 L 580.5 76  Z " fill-rule="nonzero" fill="#318aff" stroke="none" fill-opacity="0.0509803921568627" />
      <path d="M 579.5 76  A 3.5 3.5 0 0 1 583 72.5 L 1285 72.5  A 3.5 3.5 0 0 1 1288.5 76 L 1288.5 638  A 3.5 3.5 0 0 1 1285 641.5 L 583 641.5  A 3.5 3.5 0 0 1 579.5 638 L 579.5 76  Z " stroke-width="3" stroke="#318aff" fill="none" />
    </g>
  </defs>
  <g transform="matrix(1 0 0 1 -575 -68 )">
    <use xlink:href="#widget2724" filter="url(#filter2723)" />
    <use xlink:href="#widget2724" />
  </g>
</svg>