<?xml version="1.0" encoding="utf-8"?>
<svg version="1.1" xmlns:xlink="http://www.w3.org/1999/xlink" width="230px" height="59px" xmlns="http://www.w3.org/2000/svg">
  <defs>
    <linearGradient gradientUnits="userSpaceOnUse" x1="115" y1="0" x2="115" y2="59" id="LinearGradient327">
      <stop id="Stop328" stop-color="#ffd08f" offset="0" />
      <stop id="Stop329" stop-color="#ffd08f" stop-opacity="0.0901960784313725" offset="0.56" />
      <stop id="Stop330" stop-color="#ffd08f" stop-opacity="0.00392156862745098" offset="1" />
    </linearGradient>
  </defs>
  <g transform="matrix(1 0 0 1 -666 -540 )">
    <path d="M 230 59  C 230 59  0 59  0 59  C 0 59  21.1527931833554 44.6870185049074  28.2037016097152 39.9160143775823  C 35.2546100360749 35.145010250257  48.1326560226222 22.7404365834711  54.7756634616832 17.0152439854341  C 61.4186709007443 11.290051387397  78.0262234505351 23.8536616137822  85.7764101134858 26.1331444521923  C 93.5265967764364 28.4126272906028  118.641740286219 12.7743514278117  129.596872978556 8.32142041968468  C 140.552005670893 3.86848941155788  157.567459207982 7.20816450249096  166.890987951124 6.83708949238728  C 176.214516694266 6.46601448228361  186.470371150012 1.90707969234571  192.996854851067 0.263743092332001  C 199.523338552121 -1.37959350768193  230 5.19390732678752  230 5.19390732678752  C 230 5.19390732678752  230 59  230 59  Z " fill-rule="nonzero" fill="url(#LinearGradient327)" stroke="none" transform="matrix(1 0 0 1 666 540 )" />
  </g>
</svg>