<?xml version="1.0" encoding="utf-8"?>
<svg version="1.1" xmlns:xlink="http://www.w3.org/1999/xlink" width="12px" height="12px" xmlns="http://www.w3.org/2000/svg">
  <defs>
    <filter x="903px" y="22px" width="12px" height="12px" filterUnits="userSpaceOnUse" id="filter4935">
      <feOffset dx="0" dy="0" in="SourceAlpha" result="shadowOffsetInner" />
      <feGaussianBlur stdDeviation="1.5" in="shadowOffsetInner" result="shadowGaussian" />
      <feComposite in2="shadowGaussian" operator="atop" in="SourceAlpha" result="shadowComposite" />
      <feColorMatrix type="matrix" values="0 0 0 0 0.305882352941176  0 0 0 0 0.584313725490196  0 0 0 0 1  0 0 0 1 0  " in="shadowComposite" />
    </filter>
    <g id="widget4936">
      <path d="M 6.00000000000004 2.99999999999998  C 6.00000000000004 4.70000000000004  4.69997976118195 6.00000000000002  2.99995952236393 6.00000000000002  C 1.29997976118198 6.00000000000002  0 4.70000000000004  0 2.99999999999998  C 0 1.3  1.29997976118198 0  2.99995952236393 0  C 4.69997976118195 0  6.00000000000004 1.3  6.00000000000004 2.99999999999998  Z M 4.99995952236393 2.99998988059099  C 4.99995952236393 1.89997976118193  4.09997976118198 0.999989880590992  2.99995952236393 0.999989880590992  C 1.89997976118195 0.999989880590992  0.999959522363932 1.89997976118193  0.999959522363932 2.99998988059099  C 0.999959522363932 4.1  1.89997976118195 4.99998988059099  2.99995952236393 4.99998988059099  C 4.09997976118198 4.99998988059099  4.99995952236393 4.1  4.99995952236393 2.99998988059099  Z " fill-rule="nonzero" fill="#ffffff" stroke="none" fill-opacity="0.8" transform="matrix(1 0 0 1 906 25 )" />
    </g>
  </defs>
  <g transform="matrix(1 0 0 1 -903 -22 )">
    <use xlink:href="#widget4936" filter="url(#filter4935)" />
    <use xlink:href="#widget4936" />
  </g>
</svg>