<?xml version="1.0" encoding="utf-8"?>
<svg version="1.1" xmlns:xlink="http://www.w3.org/1999/xlink" width="39px" height="17px" xmlns="http://www.w3.org/2000/svg">
  <defs>
    <filter x="890px" y="37px" width="39px" height="17px" filterUnits="userSpaceOnUse" id="filter5308">
      <feOffset dx="0" dy="0" in="SourceAlpha" result="shadowOffsetInner" />
      <feGaussianBlur stdDeviation="1.5" in="shadowOffsetInner" result="shadowGaussian" />
      <feComposite in2="shadowGaussian" operator="atop" in="SourceAlpha" result="shadowComposite" />
      <feColorMatrix type="matrix" values="0 0 0 0 0.305882352941176  0 0 0 0 0.584313725490196  0 0 0 0 1  0 0 0 1 0  " in="shadowComposite" />
    </filter>
    <g id="widget5309">
      <path d="M 32.2350070366787 11  C 32.2350070366787 11  0.546356724269002 11  0.546356724269002 11  C 0.437085232555948 11  0.21854198996645 10.8987434668097  0.109271470116105 10.7974869336194  C 0 10.6962713783867  0 10.5950148451965  0 10.3925427567735  C 0 10.3925427567735  0.98344411651986 5.83690027827759  0.98344411651986 5.83690027827759  C 1.31125876443462 4.41959565931671  2.29470314011786 3.2048041067364  3.82450557908096 2.69864437465774  C 3.82450557908096 2.69864437465774  9.39735571667316 0.0665072251589759  9.39735571667316 0.0665072251589759  C 9.61589956397723 -0.0347083300737231  9.83444133797419 -0.0347083300737231  10.0529858763806 0.167681802434091  C 11.8013283615848 1.88871504300823  13.9867682168302 2.90111646308072  16.3907332596158 2.90111646308072  C 18.6854350175289 2.90111646308072  20.9801381576467 1.88871504300823  22.7284737318271 0.167681802434091  C 22.9470168880288 -0.0347493080313072  23.1655586620258 -0.0347493080313072  23.3841032004323 0.0665072251589759  C 23.3841032004323 0.0665072251589759  29.2847711822877 2.90111646308072  29.2847711822877 2.90111646308072  C 30.7052989331893 3.4072352172018  31.7980174786072 4.62206774773969  32.0165578703995 6.03937236670057  C 32.0165578703995 6.03937236670057  32.9999993088976 10.3925427567735  32.9999993088976 10.3925427567735  C 32.9999993088976 10.4937583120062  32.9999993088976 10.6962713783867  32.8907304952063 10.7974869336194  C 32.7814589171054 10.8986615108945  32.344372604702 10.9999180440848  32.2351010266012 10.9999180440848  Z M 1.20198355804632 9.98759857992751  L 1.20198606329241 10  L 31.5794936732719 10  C 31.5794936732719 10  30.814592626566 6.24188543308113  30.814592626566 6.24188543308113  C 30.5960522347738 5.12830943573352  29.8311511880678 4.2172055268089  28.629161064549 3.81222037200535  C 28.629161064549 3.81222037200535  23.0563078169961 1.07886766727389  23.0563078169961 1.07886766727389  C 21.1986923714864 2.90111646308072  18.7946955379918 3.91347690519563  16.2814727391528 3.91347690519563  C 13.7682264428333 3.91347690519563  11.3642524157169 2.90111646308072  9.50662522146689 1.07886766727389  C 9.50662522146689 1.07886766727389  4.26158947262606 3.50849175039208  4.26158947262606 3.50849175039208  C 3.16887541937348 3.91347690519563  2.29470175791312 4.82458081412026  2.07615756505786 5.93815681146787  C 2.07615756505786 5.93815681146787  1.20198355804632 9.98759857992751  1.20198355804632 9.98759857992751  Z " fill-rule="nonzero" fill="#ffffff" stroke="none" fill-opacity="0.8" transform="matrix(1 0 0 1 893 40 )" />
    </g>
  </defs>
  <g transform="matrix(1 0 0 1 -890 -37 )">
    <use xlink:href="#widget5309" filter="url(#filter5308)" />
    <use xlink:href="#widget5309" />
  </g>
</svg>