<!-- Generator: Adobe Illustrator 23.0.1, SVG Export Plug-In  -->
<svg version="1.1" xmlns="http://www.w3.org/2000/svg" xmlns:xlink="http://www.w3.org/1999/xlink" x="0px" y="0px"
	 width="427.83px" height="267.92px" viewBox="0 0 427.83 267.92" style="enable-background:new 0 0 427.83 267.92;"
	 xml:space="preserve">
<style type="text/css">
	.st0{fill:#FFFFFF;fill-opacity:0.35;stroke:#4E95FF;stroke-width:2;stroke-miterlimit:10;}
</style>
<defs>
</defs>
<path class="st0" d="M86.16,218.43c-2.38-6.27-5.99-8.89-12.6-8.51c-10.46,0.61-20.99,0.2-31.48,0.15
	c-7.94-0.04-11.83-3.51-11.93-11.48c-0.21-16.83-0.18-33.66-0.02-50.49c0.07-6.79,3.5-9.76,10.49-9.8
	c6.62-0.04,13.24-0.01,20.44-0.01c0-11.09,0-21.66,0-32.48c5.84,0,11.1,0,16.91,0c0,10.71,0,21.27,0,32.15c2.59,0,4.63,0,6.55,0
	c0.92-7.52,1.82-14.87,2.71-22.23c0.76-0.03,1.51-0.06,2.27-0.08c1.12,7.29,2.24,14.59,3.43,22.29c3.53,0,7.58,0,12.22,0
	c0-8.22-0.02-16.34,0.01-24.45c0.03-8.54,3.59-12.2,12.1-12.24c13.16-0.07,26.33-0.18,39.49,0.08c3.85,0.08,5.63-1.27,6.91-4.72
	c2.25-6.07,5.11-11.91,7.42-17.96c7.68-20.14,23.85-29.98,43.3-35.72c2.68-0.79,4.06-1.71,4.94-4.49
	c2.14-6.76,7.33-10.86,13.46-13.99c8.38-4.28,17.49-5.01,26.62-5.88c27.85-2.66,55.68-5.5,83.54-7.95
	c4.67-0.41,9.47,0.97,14.23,1.13c3.62,0.12,7.27-0.25,10.89-0.61c12.76-1.26,25.52-2.52,38.26-4c1.77-0.21,3.67-1.32,5.03-2.55
	c6.69-6.05,11.07-4.32,14.3,3.89c3.3,8.37-1.03,14.35-3.88,21.08c-2.31,5.46-4.4,11.01-6.6,16.51c-0.18,0.46-0.3,1.21-0.61,1.31
	c-7.66,2.43-7.31,10.22-9.95,15.68c-6.94,14.35-11.62,29.95-19.73,43.54c-5.97,10.01-10.08,20.67-15.28,30.9
	c-1.37,2.69-1.45,6.01-2.38,8.96c-0.46,1.46-1.19,3.13-2.33,4.03c-8.67,6.88-17.5,13.56-26.22,20.38c-1.76,1.38-3.29,3.05-5.32,4.94
	c1.76,3.98,3.63,8.4,5.66,12.75c5.93,12.75-0.78,26.64-14.61,27.39c-17.75,0.97-35.6,0.1-53.4-0.02c-0.57,0-1.13-0.46-1.66-0.69
	c0.12-0.57,0.16-1.15,0.25-1.15c10.3-0.87,13.93-9.85,19.4-16.33c8.04-9.51,15.49-19.52,23.1-29.21c-0.18-0.57-0.19-0.94-0.38-1.16
	c-6.3-7.38-6.08-7.25-1.44-15.51c9.03-16.1,17.79-32.35,26.64-48.55c5.82-10.65,11.61-21.32,17.41-31.99
	c5.77-10.61,11.54-21.22,17.56-32.3c-5.79,1.46-11.24,2.78-16.67,4.21c-40.68,10.71-81.44,21.16-121.98,32.39
	c-8.79,2.44-16.95,7.42-25.08,11.83c-2.24,1.22-4.01,4.39-4.79,7.02c-2.08,7-3.85,14.13-5.06,21.33c-0.77,4.57,0.29,9.45-0.53,14
	c-1.4,7.84-3.01,15.75-5.63,23.25c-4.2,12-3.24,23.79-0.57,35.77c0.9,4.06,1.27,8.23,2.19,12.29c0.84,3.68-0.67,6.05-3.91,6.96
	c-3.64,1.02-7.46,1.75-11.23,1.87c-8.32,0.27-16.66,0.09-24.99,0.09c-7.89,0-7.89,0-12.48,7.89c5.79,0.37,11.33,0.82,16.87,1.07
	c17.14,0.79,34.31,1.19,51.42,2.43c5.62,0.41,11.5,2.09,16.54,4.63c8.36,4.21,11.21,12.06,10.04,21.08
	c-1.16,8.98-6.67,14.77-15.18,17.31c-4.41,1.32-9.12,2.3-13.69,2.31c-59.14,0.15-118.29,0.17-177.43-0.03
	c-5.21-0.02-10.67-1.13-15.57-2.94c-9.7-3.59-14.07-11.92-13-22.83c0.89-9.04,7.69-16.74,17.77-18.36c9-1.45,18.21-1.72,27.34-2.23
	c10.81-0.61,21.64-0.89,32.46-1.37C81.15,218.95,83.56,218.66,86.16,218.43z M119.23,193.2c15.78,0,30.91,0.33,46.01-0.15
	c6.89-0.22,10.3-5.54,9.3-12.67c-3.05-21.58-6.25-43.15-9.26-64.74c-0.37-2.68-1.3-3.71-4.06-3.69
	c-12.83,0.11-25.66,0.06-38.49,0.06c-4.49,0-6.81,2.05-6.61,6.73C117.17,143.36,118.18,167.98,119.23,193.2z M397.34,58.71
	c-0.3-0.18-0.6-0.36-0.9-0.54c-25.85,32.46-51.71,64.93-77.93,97.85c4.96,2.7,9.38,5.35,14.02,7.49c1.37,0.63,3.83,0.47,5.02-0.4
	c4.17-3.02,8.14-6.35,11.91-9.86c3.23-3,5.64-7.09,9.23-9.45c3.66-2.4,6.22-5.01,7.62-9.09c3.52-10.25,9.01-19.6,11.57-30.45
	c2.48-10.5,8.44-20.18,12.85-30.22C392.96,68.95,395.14,63.82,397.34,58.71z M253.51,37.36c29.02-3.65,57.43-7.21,85.84-10.8
	c12.85-1.63,25.67-4.19,38.56-4.65c7.53-0.27,13.14-2.73,19.26-7.73c-4.2,0.43-7.63,0.63-11.01,1.14
	c-11.59,1.74-23.68,0.51-34.7,5.87c-1.72,0.84-3.88,0.87-5.86,1.07c-25.03,2.47-50.06,4.89-75.09,7.33
	c-6.03,0.59-12.06,1.18-18.38,1.8C252.67,33.73,253.04,35.31,253.51,37.36z M75.64,138.04c0-9.81,0-19.61,0-29.32
	c-4.42,0-8.47,0-12.52,0c0,9.95,0,19.51,0,29.32C67.35,138.04,71.29,138.04,75.64,138.04z M195.44,105.49
	c-0.7-0.25-1.39-0.5-2.09-0.75c-6.95,9.37-16.81,17.83-9.43,31.77c0.5-2,0.91-3.94,1.48-5.83c1.09-3.64,2.05-7.34,3.48-10.84
	C190.87,114.97,193.24,110.26,195.44,105.49z"/>
</svg>
