<?xml version="1.0" encoding="utf-8"?>
<svg version="1.1" xmlns:xlink="http://www.w3.org/1999/xlink" width="230px" height="65px" xmlns="http://www.w3.org/2000/svg">
  <defs>
    <linearGradient gradientUnits="userSpaceOnUse" x1="115" y1="0" x2="115" y2="65" id="LinearGradient377">
      <stop id="Stop378" stop-color="#4e95ff" offset="0" />
      <stop id="Stop379" stop-color="#000000" stop-opacity="0.0117647058823529" offset="1" />
    </linearGradient>
  </defs>
  <g transform="matrix(1 0 0 1 -985 -521 )">
    <path d="M 230 65.0000000000001  L 230 0  C 230 0  206.884264555094 13.3022467771985  206.884264555094 13.3022467771985  C 206.884264555094 13.3022467771985  181.715417760682 20.9034958862981  171.906395765791 17.9172865337036  C 162.0973737709 14.9310771811092  142.859661808548 4.13999970985788  132.67044410595 5.972449123326  C 122.481226403352 7.80489853679413  98.0728391842154 15.4740409278375  91.913709615282 13.3022467771985  C 85.7545800463487 11.1304526265595  77.4662727224234 2.85048362498087  67.2771231796872 4.61507017464234  C 57.0879736369509 6.37965672430358  33.1505029012393 12.2163497018789  26.5203886890192 11.6733859551506  C 19.890274476799 11.1304222084223  0 9.50159180451152  0 9.50159180451152  C 0 9.50159180451152  0 65.0000000000001  0 65.0000000000001  L 230 65.0000000000001  Z " fill-rule="nonzero" fill="url(#LinearGradient377)" stroke="none" transform="matrix(1 0 0 1 985 521 )" />
  </g>
</svg>