<?xml version="1.0" encoding="utf-8"?>
<svg version="1.1" xmlns:xlink="http://www.w3.org/1999/xlink" width="45px" height="45px" xmlns="http://www.w3.org/2000/svg">
  <defs>
    <filter x="1808px" y="195px" width="45px" height="45px" filterUnits="userSpaceOnUse" id="filter4941">
      <feOffset dx="0" dy="0" in="SourceAlpha" result="shadowOffsetInner" />
      <feGaussianBlur stdDeviation="3.5" in="shadowOffsetInner" result="shadowGaussian" />
      <feComposite in2="shadowGaussian" operator="atop" in="SourceAlpha" result="shadowComposite" />
      <feColorMatrix type="matrix" values="0 0 0 0 0.941176470588235  0 0 0 0 0.313725490196078  0 0 0 0 0.458823529411765  0 0 0 1 0  " in="shadowComposite" />
    </filter>
    <g id="widget4942">
      <path d="M 1830.5 203  C 1838.62 203  1845 209.38  1845 217.5  C 1845 225.62  1838.62 232  1830.5 232  C 1822.38 232  1816 225.62  1816 217.5  C 1816 209.38  1822.38 203  1830.5 203  Z " fill-rule="nonzero" fill="#d9001b" stroke="none" fill-opacity="0" />
      <path d="M 1830.5 203  C 1838.62 203  1845 209.38  1845 217.5  C 1845 225.62  1838.62 232  1830.5 232  C 1822.38 232  1816 225.62  1816 217.5  C 1816 209.38  1822.38 203  1830.5 203  Z " stroke-width="2" stroke="#f05075" fill="none" />
    </g>
  </defs>
  <g transform="matrix(1 0 0 1 -1808 -195 )">
    <use xlink:href="#widget4942" filter="url(#filter4941)" />
    <use xlink:href="#widget4942" />
  </g>
</svg>