<?xml version="1.0" encoding="utf-8"?>
<svg version="1.1" xmlns:xlink="http://www.w3.org/1999/xlink" width="27px" height="38px" xmlns="http://www.w3.org/2000/svg">
  <defs>
    <filter x="896px" y="17px" width="27px" height="38px" filterUnits="userSpaceOnUse" id="filter4929">
      <feOffset dx="0" dy="0" in="SourceAlpha" result="shadowOffsetInner" />
      <feGaussianBlur stdDeviation="1.5" in="shadowOffsetInner" result="shadowGaussian" />
      <feComposite in2="shadowGaussian" operator="atop" in="SourceAlpha" result="shadowComposite" />
      <feColorMatrix type="matrix" values="0 0 0 0 0.305882352941176  0 0 0 0 0.584313725490196  0 0 0 0 1  0 0 0 1 0  " in="shadowComposite" />
    </filter>
    <g id="widget4930">
      <path d="M 12.7105307307647 12.1379322858709  C 12.7105307307647 12.1379322858709  9.72632179384009 12.1379322858709  9.72632179384009 12.1379322858709  C 8.28948045383925 12.1379322858709  6.96317655536565 11.6965562291353  5.74737654460717 11.0344823735782  C 5.74737654460717 11.0344823735782  1.32633745228568 8.8275881321091  1.32633745228568 8.8275881321091  C 1.21581119536254 8.71724900315202  1.10529612304341 8.49655678744692  1.10529612304341 8.27586736330001  C 1.10529612304341 8.05517514759491  1.21581119536254 7.8344885150062  1.43685252460482 7.8344885150062  C 1.43685252460482 7.8344885150062  2.54213746304425 7.28276495463892  2.54213746304425 7.28276495463892  C 2.65265253536332 2.86897647170075  5.08423018767235 1.39577909371013E-05  8.84210055385094 1.39577909371013E-05  C 9.17369050922435 1.39577909371013E-05  9.39473183846662 0.220703381937846  9.39473183846662 0.551737518158214  C 9.39473183846662 0.882774445936765  9.17369050922435 1.10346107852548  8.84210055385094 1.10346107852548  C 4.97370393074917 1.10346107852548  3.64738884767153 4.63448069864327  3.64738884767153 7.61379071618472  C 3.64738884767153 7.83447734877344  3.53686259074842 8.05516677292035  3.31582126150614 8.05516677292035  C 3.31582126150614 8.05516677292035  2.87371623381359 8.27585898862545  2.87371623381359 8.27585898862545  C 2.87371623381359 8.27585898862545  6.30000782922283 10.0413715902425  6.30000782922283 10.0413715902425  C 7.40527039845416 10.7034370711251  8.51054415228955 11.0344712073454  9.72631060923603 11.0344712073454  C 9.72631060923603 11.0344712073454  12.7105195461607 11.0344712073454  12.7105195461607 11.0344712073454  C 13.9263083723152 11.0344712073454  15.0315821261507 10.7034370711251  16.0263072538548 10.0413715902425  C 16.0263072538548 10.0413715902425  19.2315798892298 8.38619811758253  19.2315798892298 8.38619811758253  C 19.2315798892298 8.38619811758253  18.7894748615373 8.1655114849938  18.7894748615373 8.1655114849938  C 18.568411163087 8.05516398136216  18.4578960907678 7.83447455721525  18.4578960907678 7.72413542825818  C 18.4578960907678 4.41379127449636  16.7999910523168 1.10344991229273  13.1526357584573 1.10344991229273  C 12.8210569876879 1.10344991229273  12.5999932892376 0.882760488145823  12.5999932892376 0.551723560367271  C 12.5999932892376 0.220689424146914  12.931583244611 0  13.2631620153805 0  C 16.9105173092399 0  19.4526324030761 2.97930722598327  19.5631586599992 7.39308454268868  C 19.5631586599992 7.39308454268868  20.6684212292306 7.94480810305595  20.6684212292306 7.94480810305595  C 20.8894625584728 8.05515560668759  21 8.16549752720286  21 8.38618695134977  C 21 8.60687358393849  20.8894625584728 8.8275630080854  20.6684212292306 8.93791051171704  C 20.6684212292306 8.93791051171704  16.5789609076786 11.0344963313691  16.5789609076786 11.0344963313691  C 15.4736983384472 11.6965646038098  14.0368569984464 12.1379406605455  12.7105307307647 12.1379406605455  Z M 1.10526256923135 31.2274530206928  C 1.10526256923135 31.4481424448397  0.884221239989155 31.77917658106  0.552642469219724 31.77917658106  C 0.221063698450293 31.77917658106  0 31.5584927400295  0 31.2274530206928  C 0 31.2274530206928  0 22.6205710620797  0 22.6205710620797  C 0 22.289531342743  0.221063698450293 22.0688475017124  0.552642469219724 22.0688475017124  C 0.884221239989155 22.0688475017124  1.10526256923135 22.289531342743  1.10526256923135 22.6205710620797  C 1.10526256923135 22.6205710620797  1.10526256923135 31.2274530206928  1.10526256923135 31.2274530206928  Z M 3.86843017691379 31.9999720844181  C 3.53684022154038 31.9999720844181  3.31578770769408 31.7792826602712  3.31578770769408 31.4482485240508  C 3.31578770769408 31.4482485240508  3.31578770769408 20.96552041798  3.31578770769408 20.96552041798  C 3.31578770769408 20.6344806986433  3.53684022154038 20.4137968576127  3.86843017691379 20.4137968576127  C 4.19999776307917 20.4137968576127  4.42105027692547 20.6344806986433  4.42105027692547 20.96552041798  C 4.42105027692547 20.96552041798  4.42105027692547 31.4482764396327  4.42105027692547 31.4482764396327  C 4.42105027692547 31.7793049927367  4.19999776307917 32  3.86843017691379 32  Z " fill-rule="nonzero" fill="#ffffff" stroke="none" fill-opacity="0.8" transform="matrix(1 0 0 1 899 20 )" />
    </g>
  </defs>
  <g transform="matrix(1 0 0 1 -896 -17 )">
    <use xlink:href="#widget4930" filter="url(#filter4929)" />
    <use xlink:href="#widget4930" />
  </g>
</svg>