<?xml version="1.0" encoding="utf-8"?>
<svg version="1.1" xmlns:xlink="http://www.w3.org/1999/xlink" width="137px" height="198px" xmlns="http://www.w3.org/2000/svg">
  <defs>
    <mask fill="white" id="clip2786">
      <path d="M 122.413793103448 54.7241379310345  L 135.689655172414 23  C 135.689655172414 23  138.368266846969 13.5372999774623  133.793103448276 6.27586206896555  C 129.217940049583 -0.98557583953118  124.21568627451 1.07189542483661  124.21568627451 1.07189542483661  L 72.7551020408164 44.8877551020408  L 0 177.237668161435  L 0 182.618834080717  L 5.91503267973849 189.307189542484  L 31.7924528301887 198  L 68.0188679245282 169.509433962264  L 71.3228699551571 156.385650224215  L 98.2075471698111 103.849056603774  L 115.689655172414 59.2068965517241  L 122.413793103448 54.7241379310345  Z M 78.6046511627908 122.302325581395  L 64.3604651162791 157.186046511628  L 54.7674418604652 163.836431226766  C 51.2790697674418 171.43023255814  34.4186046511629 183.348837209302  34.4186046511629 183.348837209302  L 30.0581395348838 185  L 14 175.5  L 100.406976744186 67.6511627906978  L 102.100371747212 67.6511627906978  L 91.9767441860465 88  L 81.2209302325582 111.546511627907  L 78.6046511627908 122.302325581395  Z M 54.7674418604652 163.836431226766  C 58.2558139534885 156.242629895392  54.7674418604652 163.836431226766  54.7674418604652 163.836431226766  Z " fill-rule="evenodd" />
    </mask>
  </defs>
  <g transform="matrix(1 0 0 1 -1704 -206 )">
    <path d="M 122.413793103448 54.7241379310345  L 135.689655172414 23  C 135.689655172414 23  138.368266846969 13.5372999774623  133.793103448276 6.27586206896555  C 129.217940049583 -0.98557583953118  124.21568627451 1.07189542483661  124.21568627451 1.07189542483661  L 72.7551020408164 44.8877551020408  L 0 177.237668161435  L 0 182.618834080717  L 5.91503267973849 189.307189542484  L 31.7924528301887 198  L 68.0188679245282 169.509433962264  L 71.3228699551571 156.385650224215  L 98.2075471698111 103.849056603774  L 115.689655172414 59.2068965517241  L 122.413793103448 54.7241379310345  Z M 78.6046511627908 122.302325581395  L 64.3604651162791 157.186046511628  L 54.7674418604652 163.836431226766  C 51.2790697674418 171.43023255814  34.4186046511629 183.348837209302  34.4186046511629 183.348837209302  L 30.0581395348838 185  L 14 175.5  L 100.406976744186 67.6511627906978  L 102.100371747212 67.6511627906978  L 91.9767441860465 88  L 81.2209302325582 111.546511627907  L 78.6046511627908 122.302325581395  Z M 54.7674418604652 163.836431226766  C 58.2558139534885 156.242629895392  54.7674418604652 163.836431226766  54.7674418604652 163.836431226766  Z " fill-rule="nonzero" fill="#f1597c" stroke="none" fill-opacity="0.498039215686275" transform="matrix(1 0 0 1 1704 206 )" />
    <path d="M 122.413793103448 54.7241379310345  L 135.689655172414 23  C 135.689655172414 23  138.368266846969 13.5372999774623  133.793103448276 6.27586206896555  C 129.217940049583 -0.98557583953118  124.21568627451 1.07189542483661  124.21568627451 1.07189542483661  L 72.7551020408164 44.8877551020408  L 0 177.237668161435  L 0 182.618834080717  L 5.91503267973849 189.307189542484  L 31.7924528301887 198  L 68.0188679245282 169.509433962264  L 71.3228699551571 156.385650224215  L 98.2075471698111 103.849056603774  L 115.689655172414 59.2068965517241  L 122.413793103448 54.7241379310345  Z " stroke-width="2" stroke="#ffffff" fill="none" transform="matrix(1 0 0 1 1704 206 )" mask="url(#clip2786)" />
    <path d="M 78.6046511627908 122.302325581395  L 64.3604651162791 157.186046511628  L 54.7674418604652 163.836431226766  C 51.2790697674418 171.43023255814  34.4186046511629 183.348837209302  34.4186046511629 183.348837209302  L 30.0581395348838 185  L 14 175.5  L 100.406976744186 67.6511627906978  L 102.100371747212 67.6511627906978  L 91.9767441860465 88  L 81.2209302325582 111.546511627907  L 78.6046511627908 122.302325581395  Z " stroke-width="2" stroke="#ffffff" fill="none" transform="matrix(1 0 0 1 1704 206 )" mask="url(#clip2786)" />
    <path d="M 54.7674418604652 163.836431226766  C 58.2558139534885 156.242629895392  54.7674418604652 163.836431226766  54.7674418604652 163.836431226766  Z " stroke-width="2" stroke="#ffffff" fill="none" transform="matrix(1 0 0 1 1704 206 )" mask="url(#clip2786)" />
  </g>
</svg>