<?xml version="1.0" encoding="utf-8"?>
<svg version="1.1" xmlns:xlink="http://www.w3.org/1999/xlink" width="26px" height="29px" xmlns="http://www.w3.org/2000/svg">
  <defs>
    <filter x="897px" y="16px" width="26px" height="29px" filterUnits="userSpaceOnUse" id="filter4927">
      <feOffset dx="0" dy="0" in="SourceAlpha" result="shadowOffsetInner" />
      <feGaussianBlur stdDeviation="1.5" in="shadowOffsetInner" result="shadowGaussian" />
      <feComposite in2="shadowGaussian" operator="atop" in="SourceAlpha" result="shadowComposite" />
      <feColorMatrix type="matrix" values="0 0 0 0 0.305882352941176  0 0 0 0 0.584313725490196  0 0 0 0 1  0 0 0 1 0  " in="shadowComposite" />
    </filter>
    <g id="widget4928">
      <path d="M 9.94474588305675 23  C 6.51933726368284 23  3.20443687819551 19.933333148614  1.98895812193031 15.8809408689766  C 0.883987599551616 15.8809408689766  0 14.4571326447999  0 12.5952263853487  C 0 11.6095120402603  0 9.52856022666032  1.54696991297884 9.52856022666032  C 1.8784722513411 9.52856022666032  2.09945517416816 9.74760785890218  2.09945517416816 10.076181385358  C 2.09945517416816 10.4047542191162  1.8784722513411 10.7333249747813  1.54696991297884 10.7333249747813  C 1.43647286074093 10.7333249747813  1.10499288567601 10.8428480982045  1.10499288567601 12.5952305415348  C 1.10499288567601 13.909516334986  1.65746696521669 14.7857068639534  1.98895812193031 14.7857068639534  C 1.98895812193031 14.7857068639534  2.09945517416816 14.7857068639534  2.09945517416816 14.7857068639534  C 2.20996340805472 14.6761844332278  2.43094633088178 14.6761844332278  2.65195161700619 14.7857068639534  C 2.76243748759534 14.8952320654697  2.98344277371981 15.0047558815906  2.98344277371981 15.1142783123162  C 3.86740800997403 18.9476229597117  6.8508396020451 21.9047659949768  9.94474588305675 21.9047659949768  C 13.1491603979549 21.9047659949768  16.1326031716746 19.2761957934698  17.1270542785181 15.5523943577304  C 17.1270542785181 15.3333481108839  17.2375736940533 15.223824294763  17.4585454352317 15.223824294763  C 17.5690424874696 15.1142990932467  17.7900365919453 15.223824294763  17.9005560074805 15.223824294763  C 17.9005560074805 15.223824294763  18.0110530597184 15.223824294763  18.0110530597184 15.223824294763  C 18.3425218531347 15.223824294763  18.8950294776213 14.3476323804002  18.8950294776213 13.033346586949  C 18.8950294776213 13.033346586949  18.8950294776213 12.7047751385862  18.8950294776213 12.7047751385862  C 18.8950294776213 12.0476322418606  18.8950294776213 11.0619172040746  18.7845324253835 10.842868879135  C 18.4530412686699 10.842868879135  18.2320248008967 10.6238219395909  18.2320248008967 10.2952491058327  C 18.2320248008967 9.96667557937686  18.4530189053725 9.747627947135  18.7845324253835 9.747627947135  C 19.1160235820971 9.747627947135  19.3370176865728 9.85715245595362  19.5580117910486 10.0761993954978  C 20 10.5142932745861  20 11.5000083123722  20 12.7047709824001  C 20 12.7047709824001  20 13.0333410453675  20 13.0333410453675  C 20 14.8952486902141  19.2265206343349 16.3190569143908  18.0110530597184 16.3190569143908  C 16.7955631218045 20.2619115239536  13.4806515546685 22.9999986146046  9.94476824635408 22.9999986146046  Z M 9.94474588305675 6.57142896725582  C 8.50828420396443 6.57142896725582  7.7348048382994 5.80476260075815  7.7348048382994 4.38095125944185  C 7.7348048382994 4.38095125944185  7.7348048382994 1.09523686240115  7.7348048382994 1.09523686240115  C 7.7348048382994 0.985713219454638  7.7348048382994 0.876189143572076  7.84529070888855 0.766665587212777  C 7.95579894277512 0.657141857679057  8.50828420396443 0  9.94474588305675 0  C 11.3811851988517 0  11.9336928233383 0.657142810138372  12.0441898755762 0.766665587212777  C 12.1546645645167 0.876189143572076  12.1546645645167 0.985713219454638  12.1546645645167 1.09523686240115  C 12.1546645645167 1.09523686240115  12.1546645645167 4.38095125944185  12.1546645645167 4.38095125944185  C 12.1546645645167 5.80475913726973  11.3811851988517 6.57142827455814  9.94474588305675 6.57142827455814  Z M 8.83977536067805 1.31428579345116  C 8.83977536067805 1.31428579345116  8.83977536067805 4.38094190802312  8.83977536067805 4.38094190802312  C 8.83977536067805 5.25713312968825  9.06076946515381 5.47617868383706  9.94474588305675 5.47617868383706  C 10.8287223009597 5.47617868383706  11.0497164054354 5.25713070524635  11.0497164054354 4.38094190802312  C 11.0497164054354 4.38094190802312  11.0497164054354 1.31428553368953  11.0497164054354 1.31428553368953  C 10.9392193531975 1.20476180415581  10.4972199625974 1.09523781486046  9.94474588305675 1.09523781486046  C 9.39226062186737 1.09523781486046  9.06075828350511 1.20476154439418  8.83977536067805 1.31428553368953  Z " fill-rule="nonzero" fill="#ffffff" stroke="none" fill-opacity="0.8" transform="matrix(1 0 0 1 900 19 )" />
    </g>
  </defs>
  <g transform="matrix(1 0 0 1 -897 -16 )">
    <use xlink:href="#widget4928" filter="url(#filter4927)" />
    <use xlink:href="#widget4928" />
  </g>
</svg>